<mxfile host="Electron" modified="2023-04-16T13:34:12.612Z" agent="Mozilla/5.0 (Windows NT 10.0; Win64; x64) AppleWebKit/537.36 (KHTML, like Gecko) draw.io/21.1.2 Chrome/106.0.5249.199 Electron/21.4.3 Safari/537.36" etag="XlHfrdenzCzu3NpUzVBh" version="21.1.2" type="device" pages="3">
  <diagram name="v1" id="GeVVzUZAz-KcLdu3GJl3">
    <mxGraphModel dx="1003" dy="2170" grid="1" gridSize="10" guides="1" tooltips="1" connect="1" arrows="1" fold="1" page="1" pageScale="1" pageWidth="850" pageHeight="1100" math="0" shadow="0">
      <root>
        <mxCell id="0" />
        <mxCell id="1" parent="0" />
        <mxCell id="Xf5m1xSMGF0W4rr0xWPQ-2" value="Internet" style="ellipse;shape=cloud;whiteSpace=wrap;html=1;" parent="1" vertex="1">
          <mxGeometry x="106" y="-150" width="120" height="80" as="geometry" />
        </mxCell>
        <mxCell id="Xf5m1xSMGF0W4rr0xWPQ-4" value="Home Assistant" style="shape=image;verticalLabelPosition=bottom;labelBackgroundColor=default;verticalAlign=top;aspect=fixed;imageAspect=0;image=data:image/png,iVBORw0KGgoAAAANSUhEUgAAAggAAAIICAYAAAAL/BZjAAAAAXNSR0IArs4c6QAAIABJREFUeF7svQe8JGWZ7/+rzidMznnOBIYwhIEhg+6u4cq67hrJGb1rWONdUNl1L7v/6wrqFUwYEUGCAkpQGDJcFQwYSMPkmRMnhxP7dK7/53mrqru6uqqrOlVVdz/lR2bmnErv732r3m897xMk8MYKsAKsACvACrACrIBBAYkVYQVYAVaAFWAFWAFWwKgAAwKPCVaAFWAFWAFWgBUoUYABgQcFK8AKsAKsACvACjAg8BhgBVgBVoAVYAVYAXsF2IJgrxHvwQqwAqwAK8AKtJ0CDAht1+XcYFaAFWAFWAFWwF4BBgR7jXgPVoAVYAVYAVag7RRgQGi7LucGswKsACvACrAC9gowINhrxHuwAqwAK8AKsAJtpwADQtt1OTeYFWAFWAFWgBWwV4ABwV4j3oMVYAVYAVaAFWg7BRgQ2q7LucGsACvACrACrIC9AgwI9hrxHqwAK8AKsAKsQNspwIDQdl3ODWYFWAFWgBVgBewVYECw14j3YAVYAVaAFWAF2k4BBoS263JuMCvACrACrAArYK8AA4K9RrwHK8AKsAKsACvQdgowILRdl3ODWQFWgBVgBVgBewUYEOw14j1YAVaAFWAFWIG2U4ABoe26nBvMCrACrAArwArYK8CAYK8R78EKsAKsACvACrSdAgwIbdfl3GBWgBVgBVgBVsBeAQYEe414D1aAFWAFWAFWoO0UYEBouy7nBrMCrAArwAqwAvYKMCDYa8R7sAKsACvACrACbacAA0LbdTk3mBVgBVgBVoAVsFeAAcFeI96DFWAFWAFWgBVoOwUYENquy7nBrAArwAqwAqyAvQIMCPYa8R6sACvACrACrEDbKcCA0HZdzg1mBVgBVoAVYAXsFWBAsNeI92AFWAFWgBVgBdpOgfYCBFmWPv0GZkSBk7ISjpdkrJIlLJJkzJaATgARAIG2GwXcYFaAFWAFWAFIgCzLSMsSErKEI5CxV5KwMwC8kQb+0v86Bu8/X8q2i1QtCwg3PCeHRuZiaiiHGcEgTsjJeIcEnA0ZayAh1C4dzO1kBVgBVoAVqIsCsiRhd1bGHwE8BwkvhGMY2t2HkR//LZKAJNflKj46ScsBwse3ydEpaazOZnFSLoC3BIC/A7C4nGWAkJE3VoAVYAVYAVagoIAEqcwMKQGjsoTf54DHAlm8lApg883HSYdbScGWAYQPbJQjKwJYDxl/J8l4uwycDKBL31kEAln6f05GLpcTf6ef5RgQWmlMc1tYAVaAFahZAQkSApKEQED5f1CSEAwExM+K5xVkJQlbZRnPSRKezITwwv9dIx2s+QZ8cIKmBwRZlqVrN+G4kIyLZQlvh4wTAIQ1bWnyT2WzSGWySGdzyORyyBEgqHAggyABYBuCD0Yj3wIrwAqwAj5QQJsYJQIECZCkAIIqJIQCAURCQYRDQdDfDZNoLyT8OhfAvSPj+PX310txHzSn6ltoakD4+O/lqbFunB+Q8CHIWAtJOBqKyT6dzWIylUYinc1DAVkLGASqHit8ICvACrACba+AAg1kTZAQDQXREQkhFgqBfq5uaQD9MvCQJOMbN62V+ptVtKYFhOtfk+dlg/gyZLxPBjoJ8qgTyFowNplCIp1WlxCatWv4vlkBVoAVYAX8rICYdCQJ0WAAUzqi6AgXgUIKwGvI4RM3HS+96Od2WN1b0wHCDbIcGn8dxwYDuA/AGmExkBUwGE+kMJFKiX/zxgqwAqwAK8AKuKkAWRSmxqKIRUJ5XwUZmATwqfRU/OTmJRL9vWm2pgKEz/5JnibH8G4pgK9DxjRaMsjkZMSTKYwlUsJiwBsrwAqwAqwAK+CVArTU0BkOoTsWEb4KqlOjLAHfDkbx5S+uxCCk5giJbBpA+NdX5LlSEFdLEq6VgJnkZEg+BuPJNJLpDPsWePU08HVZAVaAFWAFShQIBQPojkbQFQmD/g5KvpTDg6EA/jtyH9644QYp53fZmgIQCA4CIXxEAj4KYC5FIpDFYCKZFg6IvLECrAArwAqwAn5TgKwHsXAIUzsiwpERtNwg4zHk8J83HY/X/W5J8D0gqMsKH5YkfIbggMIVj8QTSGaynL/Ab08D3w8rwAqwAqxAiQKRYABTO6LoikbIm578EH4lpXDdjeukXj/L5WtAIIfE+EZcAglfAzCTlhI0OPCzqHxvrAArwAqwAqyAXgHKmUCWhCmxKEFCEsDdHTPw8RsW+jdXgq8B4TMvy+vCETxHDomJdAaHJiZFsiPeWAFWgBVgBViBZlOAcidM74iiOxoVaZxzMj7/lbXSjX5th28B4dqN8vwA8DyFMiYyGRyZUJYVeGMFWAFWgBVgBZpVAbIkTO+MCudFSZLSyOE9HT/HBj86LfoSED6+TZ7amcK3AVyq+RxMpjPNOh74vlkBVoAVYAVYgbwCFNUwoyOGzkgIUkDaChnvvek4aaPfJPIdINxwgxyYfD+ugYSbszm563B8UkQr8MYKsAKsACvACrSKAuS4OLOrg6IbMjngrmAOn7nxBOmIn9rnO0D47Cb5eOTwQ1mWTx2eTEijibSouMgbK8AKsAKsACvQSgpQ6OPsKR1U9GmPLOGzXz4Gd/kp9NFXgHDDRjkyCfwnZHxiIpXuJKdELsXcSo8Dt4UVYAVYAVZAr8CUaIQsCdlAABuyWXzqK8dLO/yikK8A4bOvyWchiG+kM7lT9o1NIJNly4FfBgrfByvACrACrED9FaBkSrO6yB8hPCwHcO2Xj8Ftkk9SMfsGED6+TY52pHEdZHzh8PhkeIz9Duo/EvmMrAArwAqwAr5TgPwR5kzppJTMD+Uy+MxXT5R2+eEmfQMI178hr83I8ncS6ew5B8cTnELZD6OD74EVYAVYAVag4QqQFYGSKE3viByWIF3dcSx+eYPkfa0GXwACZUycfAMXZnPydw/HE10UtcCLCw0fk3wBVoAVYAVYAZ8oQKWiaakhEgzemkrj325ZJw17fWu+AIRPb5RnhmTcnEinLz8cT3K2RK9HBV+fFWAFWAFWwFUFqEz09BilYo7sygakt998nLTd1RswuZhfAGFVMCc/PzyZXERVGtl64PWw4OuzAqwAK8AKuK1ALBzErM6ObCQUuPym46R73L6+8Xq+AIRrX5MvyMjZew6MTQZSXGvB6zHB12cFWAFWgBXwQAGqzzC7qwOd0fDdXzlOutSDWyi6pC8A4bo35O+PT6Y+dHAi4bUefH1WgBVgBVgBVsAzBbqjYczsiu3/6trAPM9uQr2w94Agy9K1G+XXDo5PHjeR4noLXg8Ivj4rwAqwAqyAdwqEAhLmT+2CjMAJN58gvebdnYDKUnu7ff4P8qxER27vvtGJUCbH3gfe9gZfnRVgBVgBVsBrBeZ0x9ARinz8qydI3/LyXjwHhOs2ym+Jp9JP7x+b9FIHvjYrwAqwAqwAK+ALBWiZYfaUjju+fKx0pZc35DkgXPuG/Mkj44lbRhMpL3Xga7MCrAArwAqwAr5QIBwMYPH07j/fdJy03ssb8gMgfGvv8MTHkpmslzrwtVkBVoAVYAVYAV8oQBPzohndo187PjjNyxvyAyD8ou/Q2Hu4pLOXw4CvzQqwAqwAK+AnBeZO6ZQ7AqEpXz1RmvDqvjwHhE+9lvnN0JGJc7wSgK/LCrACrAArwAr4TYEZHVF0y9GlXztNGvDq3jwHhI/8KfnawXhirVcC8HVZAVaAFWAFWAG/KSAcFSMdR31lnbTNq3vzHBCu+WO8fzSRXuKVAHxdVoAVYAVYAVbAbwrEQkFM6Yisu3Vd5GWv7s1zQLj8d+P7J9PZOV4JwNdlBVgBVoAVYAX8pkA4ICEcDJ1zx5mdL3h1b34AhEOT6exMrwTg67ICrAArwAqwAn5TIBiQEJKlv73r3CnPe3VvngPCJS+MDaeyOU9DObwSn6/LCrACrAArwAqYKRCUJATl3FvvftP0Z7xSyHtAeHFsOJVhQPBqAPB1WQFWgBVgBfynAAFCBLm33Xnu9Ke9ujsGBK+U5+uyAn5XQK6yNgrVrOWNFWAFalKAAQHAJWxBqGkQ8cGsQE0KVAsB1V6U4aFa5fi4NlOAAYEBoc2GPDfXcwXcBgK7BjMw2CnEv29TBRgQAFzMFoQ2Hf7c7IYq4DcQqLSxDA6VKsb7t5gCBAjRdvdBYEBosVHNzfFWgWYHA6N6DArejie+umcKMCCwBcGzwccXbiEFXIYC7XKuz92uX7CFxgg3pekUYEBgQGi6Qcs37DMFGgAH9TplQ+bzhpzUZ33Kt8MKAGBAYEDgB4EVqE6BOs3idTqN4zbUbX6v24kc3zrvyAq4qgADAgOCqwOOL9YiCtQ4q9d4eN1ErMscX5eT1K1JfCJWoG4KMCAwINRtMPGJ2kCBKmb2Kg5RhawySVK+G6pLllTVfF/VQW0wXriJTa0AAwIDQlMPYL55FxWocKavcHcAtQJBOS0qh4Wq5vyqDnKxD/lSrEAFCjAgMCBUMFx417ZUoMKZvrLdGwkFtQNDVfN9VQe15cjiRvtcAQYEBgSfD1G+PU8VqGy2h7PdK4ACZycslaiiSdreulDR6ehuKj7A017mi7MCpgowIDAg8KPBCpgrUOHkbL+7AzCwP0l1veVowi4PCo5Ood1dRTtX1yQ+ihVotAIMCAwIjR5jfP5mVMDhRC2mfNt5v8wOZa5je1oHuppO+baTt41FQQLsbQ5sRXDQPbyLzxVgQFABIZnJTfN5X/HtsQLuKOAQDgQblJ3FKwODsATM7whgTiyISBDIyTLiGRl74zkcSuWQq4IYJDsYKPt7awywO21RR1W0sztdzFdhBZwoQIAQ41oMY8MMCE6GC+/T8go4hIOqwMDyIBlzYwGcMzeKE2aEMDsWQDggCfiYzOawJ57DSwdT+O3+FFJZB5TgYEK2BAfTY+sACg7uqeXHFjew6RRgQGALQtMNWr7hBilQMxxYTN4m55XVn9HUu6Q7iPctjWHdrAi6QlKJ+Z4sByOpHF44kMS9OyYx6QQS9BKVmZxNQcFyf3NQcDz3O96xQf3Lp2UFKlSAAYEBocIhw7u3pAKNgIMyYKBpuLAzgEtXdGD9rAhCgfIr+2kZeHb3JH6yIy6WHqy3MuexmKSdgwJDQkuOf26UqQIMCAwI/Gi0uwI1wYHJRG1xPs1qoMk9JxrA5as6cOacKGzYIN9DyayMJ3cn8EBvHGNEDI42C2AwwEI9lh0cGQkc7eSoYbwTK9BQBRgQGBAaOsD45D5XwAU4MIIBORfMiREcdOLMOREEKpwwJzIynhqaxC8HJnEkmTMNorB2TjSBBSegUIFvgm1zbHfw+Zjh22sbBRgQGBDaZrBzQw0KNBgOzMCApudFXUFc1NOB06uAA60Fo+kcnhpK4LGBSRxO5cp2rTksVAEKDAn8CLWZAgwIDAhtNuS5uUIBB3Bgvov9kkIRGOhOQlPy8u4gPrC8A6dVsKxg1WMECc8MTeLBvkmMpctAgsnEXgoNBmDQHVOyr0NQcGQocLQTj1lWwBsFGBAYELwZeXxV7xTwCA6WqXBwyuwIIk6dDmxUGs/k8NzuBO7dMYFJM8dFo6Gg7HKCNSTQbRSBAkOCd+OXr+yaAgwIDAiuDTa+kA8UaBAcWFkNlBbLWNIZxEUrOnFyHeFAU5McF5/fM4k7to4jnpVRGiip7qmf/52CQrn9GBJ8MKD5FhqpAAMCA0Ijxxef208KuAEHRcsXynIERStcuboLp9dhWcFKzrQs46nBOO7aNiEgQb+VAIOFVaHssoPVkgNDgp9GON9LnRVgQABw4YtjwylOtVznocWn85UCDuCAwgFKPQzK+xxYWw4KcHDZqi6cPbfyaIVK9YtncnhyMI4He+MisZJs/PoXJ9TRgQkoiB8VHaffv/D3SpcblPPatIj9ESrtct6/wQoQIHS0e6plBoQGjzI+vbcKOICDSh0SzSIUlEYWgGJBRwCXruzCGTVEK1QqHDkrEiQ82h/HYX0IZAksWICCpXOiun9FSw6lRGDLALY7VKoI788KVK8AAwJbEKofPXyk/xXwCA6WdQVw/vJOnDE35jgJUr3EHE1l8dTgJB7pm8AwhUAaJ109BJhZFLyGhBIrRr2U4fOwApUpwIBAgPACLzFUNmx47+ZQwHTNoOjWzcs1Wy8ryEXrENr59fvLWN4dwvk9HTh1dtQ2fXKjdCRLwtNDcfxs+zho6UH4IeQ/6A1/V2+ieB/dUoPYvcjDUT2XZlXQ/d50LcEYHWG/2qBczm5NolHq8XlZAUWBYICXGBgQ+GloPQXqZTnQncfc30AHB7KMpd1BXNjTiVNmRxEJejvBERg8PxTHHVvGigo8lfgPOLQoFDsxli45lPdLqGK5gS0JrfdcNlmLhAVByr3tznOnP+3VrXv7FmELglf9ztdtlAIuw4EGDgs7gyCHxFNn2xdealTTjedN52Q8OxjH7VtG1AJPZRwNzUBB29102YEhwa1+5Ot4owADAgOCNyOPr9oYBVyGA2oEAQLVVrhyVRfOnOe+z4GdkAkq8NQ/jvt2jIOyLyqbCShoEKD+mV9WYEiwk5h/36IKMCAwILTo0G7DZrkMB5rlgODgilVdOGseVWX03CBo2vHjFN0wMI5Hdk3gCIVA5vcygIIBEhSU0PkslFgSqgmDrGK5wae6tuFT1lZNZkBgQGirAd+yjfUADmiaW9QZxCUrO3H6XP/CgbByAKDohif7J/Bo37gIgTTLd5D3IzCzJhT5KSr/KPgduLDcwJDQso+vXxvGgMCA4NexyfflVAFX4KDwzU2WA5oOlcJLGhw4vVlv9xtN5fD04AR+sXMM9PcSIFCXHsTPHVoTXIUEhUq8FZGv3jYKMCAwILTNYG/JhnoEB1R46XwRrVC/wktu9c8EVYEcnMA920aF42IpJKgLC0ZA0PsmGPwSGBLc6j2+jpsKMCCogJDMyNPcFJ6vxQrUrIADOKCyziZZDYovXTaUsdRysLgzgItXdOKUOc0HB1rDyXHx+aEJ3L5pRA2BLLUYFHwPin+nLi4U/Bw1cDCmaK6ofkOhS5QUCA6sBE72qXmQ8QnaWQEChE4py2GODAjt/Bg0YdsdwEFJOmSzZjrMc5B3SIwGcNVRnTijgYWX3OqNdC6HpwbiuGMzQYJ61ZJlBanUwtAQS0Jpq0uLR5kow5Dg1nBpy+swILAFoS0HflM32kM4uGxVB87xcbRCpf0aT+fwxMAEHtw5hmG942IRKPgYEhgQKu1y3r8CBRgQGBAqGC68q+cKeAQHCzsCuHhlJ85yoSqj2xpTCOTj/eP4Ve8EDieypc6JYhLWRS2Ui3AoWW6oNLqhCksCQ4LbQ6ZtrseAwIDQNoO96RvqARzQ9La0K4ALeqjwUuNLNnvVR1oI5MO7xjCcMnFczE/CBmsCLzd41WV8XRcUYEBgQHBhmPElalbAFTgodUjsoVBGUXjJP+mTa9bS4gRjqayIbrhXjW4QKZL01oIqIIEupZzDBUuCcrFGycPnbUMFGBAYENpw2DdZkz2AA1KILAcXUbTCrIjnhZfc6jHySXhu9wTu3Fyo3WCePIktCW71CV/HOwUYEBgQvBt9fGV7BVyBA7oNxXqQL7zUEcClqzpxWhtYDoydQAWenhkYx22bRkDhkCWWhPyXunNIYEuC/VDnPfynAAMCA4L/RiXfkaKAR3AwJyqptRVa1+fAbogpBZ7G8LNtY2qBJ6tIBueQUH0ypdK75RBIux7k39dDAQYEBoR6jCM+R70V8BAOLl/VhbPntS8caF05ns7iiX4q8DSOI0kq8NRkkMD+CPV+KtvufAwIDAhtN+h932AP4EApvBRQCi/NYTjQxghFNxAkiBDIJGVTsgp39KklgSHB94+7n2+QAQHABS+MDXMmRT8P0za6NwdwUGn65KL98+dXIxbUf/d0B3B+kxVecmtUECQ8PTCBB3aMYjSt+iRofgi6KAclNXMhWqFoSUFXuyEfZ2AS3VCSZtlmgue0zG6Ngva8TohTLTMgtOfQ92GrHcBB7emTrUMZ1zdh4SW3epGWG54djOOuLcOIi7TM5pYEp5Cg8EWeGpRmVFm7ofhcZRRha4Jbw6VlrkMWhK52r8XAFoSWGc/N2xAP4IDEosJLtKzAcGA/dJJZJbrh9s3Dau0GhgR71XiPZlaAAYGXGJp5/LbGvbsCByRVcSjj3KiEq4/qwuktUHjJrYFAIZBP9dcXEgoWAE6m5FY/8nWcKcCAwIDgbKTwXo1RwCM40EIZOVqh8m6NZ3LCcfEXO0ZFWmaKbshP8kW1GJz5JLi+3MBLDZV3epsewYDAgNCmQ98HzfYIDqjw0iUrOnEWhzJWPQgoLbNS4Gkch9UQSIaEquXkA32qAAMCA4JPh2aL35YHcKAVXqL0yRzKWPv4Ugo8jeMhtcATOy7WrimfwV8KMCAwIPhrRLbD3bgCB9bRCu2YPrlRw2oslcPTg+O4e8sIEjlhQyhZbqDohEqiG9gnoVG9xeetVAEGBAaESscM71+LAh7AAd3ucirZvKIT69uo8FIt3VTJseST8NzgBO7YzCGQlejG+/pfAQYEBgT/j9JWuUNX4IDEKi28dNnKTpw2p/VLNns1VER0A4VAbuIQSK/6gK9bfwUYEBgQ6j+q+IylCngEBxStcNVRXTiT0yc3fFRSngQq8HTvtkLGxfxyQRUZF7UbVhIqcQhkwzuQL1CiAAMCAwI/Fo1WwEM4oMJL53C0QqN7OH/+8TSFQI7hYV2BJyMk5Cd8B2mZ88eKK7gACRwC6dpYaYYLMSAwIDTDOG3ee7SBA7EY4AAgtH1K9tfVVtD/bklnABev7MQZbDlwfeyMpnN4vG/MNAQyn17ZxHFRcWZUQUBXu0H5ke536r+LLQzqv5xM8PlzWUjj5Byuq8oX9EIBBgQVEBIZeZoXHcDXbGEFHEz8tddWEIQhRKRz0byyrDuAC3sIDqII5CsDtbDOPmyaCIEcGMcDO8byBZ7oNgM0+Va53MC1G3zY0S1+SwQI3VyLYWyYAaHFR7rbzXMFDkpDGZd3B3BBjxKtEA643Wi+nl6BiXQOzw5N4M4tI0UFnmqBBMV4wD4JPNLcUYABgS0I7oy0drqKB3BA8tKywiUrOnAKV2X0zWgTBZ4GJ0SBJ30VyFoggS0Jvunelr8RBgQGhJYf5K420BU4KF5WoH9RtMLVq3lZwdW+dngxJQRyAj8yVIFsKkhQTBcOW8y7tYoCDAgMCK0ylr1vh4dwcMWqTpw9N6KscfPmOwWUAk8T+PnO4gJPekioZ3RDYSnC2cResEo4lI7HmUOhmns3BgQGhOYewX65e4/gYGGHhItXMBz4ZRiUu48xim7oH8cvDQWe/AIJRVBRjaDVQIOD50bcSjXnrqYNfEyRAgwIDAj8SNSqgIOXXCOiFZZ2UbRCB0cr1Np/Lh4/msrhiYFxPLxrDEdS5GSqWHwatdxQqSWhZkhwUUvLSzFM1K0XGBAYEOo2mNryRK7AgXm0wvnLO8CFl5pv1JEl4emBCdy9dQSTugJPfoIETdWKlx6apTsYIhz1FAMCA4KjgcI7mSjgARzQXVDhJbIcnMKFl5p2WJJPwvND8bpGNxS+/nV+KLqJsGiyr2CCbFlIKFBQ046jRt84AwIDQqPHWGue3xU4IOmKCy8t6JBAhZdOn82Fl5p9YKVlGU/1NzgEUqGGvFTVQkLLWxQYFkwfJwYEBoRmf8+6f/8ewYEovLSqE2fO5QyJ7nd6Y66YzCrRDfdsG8FYRszm4kK1LDc0ypLQGAWqP2tDLRsVWFiqb4H/j2RAAHD+C5xJ0f9D1Sd36AAOqG5CwWvA4r515ylyYNTVVhBHqv8mOOBQRp+MgTrfBhV4ouiGh3XRDQITdGmZaTIU1RjsCjzlMy1qloP6LjfUuel1O11RcG89J/d6nqturXXvRCFOtcyA4N5wa/IrOYCDekYraHCwmAov9XTgTM5z0OQDyPr2qXbDhv4J/KpvHIeS5Lmolm1yCxI0IGlBhetiaWhTUCALwpR2r8XAFoQWfCvUu0kewEG+8NLyDpzOhZfq3aO+O59S4GkCD+wsLvAkJjh1gjKzJJQsKeSrQhvLQzuwJmiqtPCEWDMwtLA2xoeCAYGXGHz3ovTdDbkCB7pFCfV6ovDS8g6s59oKvhsSjbohWm6gAk93bBnBZFZM/eJSziFBPaYekNDCVoUCVFXZk20CCQwIDAhVPiFtcphHcEDLCpdy4aU2GWTFzVQKPI3jR5uLq0DWDAn5Cd+QjtsqysGofotOilVbFFpUD323MyAwILTlS9hRo12BA7oT1XqgXm+2WnjpTF5WcNRNrbgTFXii6AaqAqlPpuQcEjQTgqKOeXij+ZJDzV/XbnZIHSfpqkChjtd3Uzan12JAYEBwOlbaaz8P4eBKLrzUXmPNorVagacHDAWe9JBAvgnif7rohsIEbwEJRZOatTVBu62qJk4verBOk3XF7a3Tdb2QzO6aDAgMCHZjpP1+7xEcUBKkS1d04iyOVmi/MWfRYq3A0yOGAk/VQkKRdcAKFMpMeJVMno4ieirs6UquX0uBp4quk1+6qbAxTbA7AwIDQhMMUxdv0SM4WMaFl1zs5Oa6FBV4UvIkFBd4cg4JYgZT1xoMSw4lMGBvUfCberaTeZVf+LbnNQpR5XX8pqf+fhgQGBD8PD7dvTdX4MA8WuHC5R04ldMnu9vfTXQ1siQ8RQWetmnRDcqkX7S0oC036L9odeGRRkgosiaYfgUbYMFvelVj6ahiEq8IFKo4v99kZUAw9AjnQfDzEHXp3jyCA7IcXMSFl1zq5Oa+jFbg6UebhxHPaqWiq4QEnVHBHhQMO9dFxnK5RqsAE4uJ2XRyr2ISdwwJVZy7LnI26CRsQWALQoOGVhOd1hU4ID2KoxXI5+DylZ1csrmJhorXt6oVeFIgQbsbMyfFgLKoYOq8aKQD5Twlk6DvJ7syIGG493qAQjtCAgOCCgiTGXma1w8/X98DBTyCA6o48zE4AAAgAElEQVStoEQrcOElD3q9qS9JeRLIJ+GebaMYzWhf4qWQoEU4qLO/RgECBNT0SwUdiiIeTSbeesGCg+et6H4d9VQNoFBBuxwDgh7MHN2/f3ciQJjKqZbHhhkQ/DtIG3ZnDl5WjjyxKyy8RHkOqCrj2Ryt0LCubfUTj6ezeLx/Ag/1juFwUisOVpp10QoSNItBOVAwWhVCEtAVkhALSQjWNAnKeWNaST8pZg/T7qNnkVZW4hkZ8RyQs1ylKO9oWaulxBEoVAAefh6rDAhsQfDz+GzcvXkEB5Qh8aLlMQ5lbFzPts2ZteiGR/rHcThf4EkHCdokrlWCNE7q9HPNiVH5bDe1KAQlYEFnEMdMC2HN1BDmdQQQDVB9iCqlrtL9gIBgMiNjKJ7DppE0to5mRWErcTrTCdk6EZQRfiqxWjgChJoAqkpdG3AYAwIDQgOGlc9P6QEciMJLXQGcv7wDZ86JgN6vvLECtSowms7hif5x/HzXOOjvyqxtDgkKAhgLOCmTqzjKJOQxHACOnxHGeYujOG5aCF1h1beh1huv4XgCgiPJHF46lMbjQ0nsGs8Wl1cvBwt2vgkOv/yV0ts2jXB4rhqkaPihDAgMCA0fZL66gCtwYBLK2EWFl2JceMlXg6E1boYKPD0zOIGfbBvVRTeoOKB3UtRNWCWgUGRJUGCBIJasBles6sKqqSHQEoOfNvLF+MPBNH66axKDqsemeUpp7a5N4Ej9VfnjrFtd1prAgFCX4eL5sKMwR/ZBqEtf+vskHsGBKLzUE8MpXJXR3+Ojie8ukcnhud1x3CYKPGkhkAokiP+agEIeEpQdlNbrJrXp4QD+eU0nzpoXBX1J+nFLZGU80DuJXw4mMSnarTXDannBetmhGkiwXW7wqW5O+5ItCGxBcDpWmns/V+CAJCoOZaRohatW0bICRys09wDy/92LAk8D+gJPGiCYQIIOBkyXHQCcMCOM/1g3DTFyQvDxtmMsg69tnMDARLbYjUI/ORdN1C5CAgNCzSPH89HHFoSa+9DfJ/AIDiha4YqVHTiHoxX8PT5a6O4omRKFQD6wcwwj6eLohiJrgsnkabQoXNTTiYtXddkutXstH1kRbnp9HH85lEb+UbcK28y3u36Q0MrLDGxBYAuC1893Y6/vERzM75Bw2YoOnCUcEj1n4MZqzGf3lQJjKSUE8pE+im7IQhbjTxuDFtYEE4vCp9dOwVsWdviqbWY3k5Vl3Lp5As/uSYowSLNoDPPlg/pAQisvMzAgMCD4/gVQ9Q16BAcUrUAOiUq0AsNB1f3HB1atwEgqK5YbHt5FBZ5yOt8CZ6BAe332hGk4d36s6ntw68CcLOMHWydERAPljSo8cXoAMERpmC056J04LZcnzFvVqlYEBgQGBLeeY3ev4wocFEcr0OtouQoHXHjJ3e7mq5UqoC/wRI6LYro0M7EbHRnV/T534vSmAARKoPT9rRPYMJgoAEI+W6TOokCRiXZ+CVVCAgNC455Azz+x2AehcZ3ryZk9gANqpyjZTKGMsyKI+Nyxy5N+4Yu6rgD5JDw3NIEfbVIKPBVFM4i7KbYoKGyg/OxzJxEg+H+JQQDClvE8ICjNUtpQsOBpURoeQEITWxHZggDgAxzm6PqLq2EXdAUO6O5LCy9dsaKDCy81rGP5xNUqkM4ppaJv2zyMiYwOEiwsCpqz4udOmoE3LWgOQPgeAcIAWRBojaE4ZLPwdV8MCfkvU6fLDTYTfStaEQgQprV7LQYBCGku1lTtC8g3xzmBg+Kca8qtG1O/WtVWMECB5jItaius7MDZ89jnwDdjgW+kSAHKk6AUeBrJF3gqlweBJs/PnTSzeQBh0xgeG5xEtijmQqwpqAaF0jwPhaJVZnkgdJ4M5fwRDPbvIk31PdCkVgQBCIHs2+48d/rTXj1Sni8xMCB41fV1vG5+krdO9K78xvD7Ejgo7KNwgraDZjFQf6ZCxJxoAFeuinHhpTp2JZ+qMQpQxsXH+8bw4C4q8JSDrDglFDv16X72uXVkQehszM3U8ay0xPA9FRCU4pZUY0L5U/w/zwbF/1YMKLrKltoxBdNC/i5Ll2bUXzEg1LEnzU/lA0AYZwtCw7u5gReo2nJgDQvFVRyLlxM0y8GSzgAuWRHDGXPCHK3QwO7lU9dPgdFUFhv6xvFI75godKR+XhcmwvxsCnyeLAgLmwgQBiaFk2KJ1UBAgtGSoDVZKVhVstxg4sxZgARDfxisA6ZWhKa2IGTa3YLAgFC/V5DLZ3IDDvTXUP/e062EMp7BhZdc7nC+XK0KECRQgaf7t4+qBZ5KqyHSZPj5dbOaCBBG8Vh/MSAUQ4FDSChJOW211KDrBSeAoJgrau06149XlhgYENiC4PrQq8MFPYADesSXdavRCrPDiHBZxjp0JJ/CbQXG01k8PTCBO4XjYq60kqMk4fqTZzcPILwxiseEBUGtQ6Gb6IucFJ1YEiwgocQJMR8AUjzxt5IfAgOCiGJgC4LbL6iar+cBHNA9L+mUcMmKDqxnOKi5C/kE3ipAKYqfGxjD9zceUQs8aSsOyoR3/SlzmgoQHh2Iq5kUxee6RTSDwZKg8zcQHgoEB6ZOiYYlCvUShbUZB5DAFoSqBrzndhcGhKr6zbuD3IADap12nbxDooRrVnfwsoJ3Pc9XrrMCosBT3xhu23QElDMhX69BA4RFXXW+Yv1PJ5wU3xjBo/1xZNTTK1/xxZBgtCSU+hTo/BFKrAgKERQnWqpwmYEBoarOZ0CoSrY2PchDOLh8VQzncuGlNh14rdtsAoPHekfxwPYRDKdyIm6HXsqfP2Uu3txUgDBR7KRYDhKkgOhQIyQQWJRELBgcFk0hwYkfAgNCVQ8RA0JVsrXhQR7BwQJReCmGsxgO2nDQtUeTqcDThr5RPLxzFIcSWQEJ1xMgLO72vQBUi+F7G4fxaP9EIQ+C5mugh4Qi/4MySw1aVIMTXwT97NWCkMA+COyD4PsXgLhBj+BASZ8cxRkEB82hFN8lK1CVAhTdIPIk7BjBkWQW16+fhzc1hQUBCiAMTCg+CHoHxXzYpvr00uSvtwjo/63LAWFuRTCJaGBAqGqsVXIQWxAqUasd93UDDixCGc9fFsVps8MIcbRCO468tmvzWDqLJ/vGcPeWI/jUiXPwpiawIJAPwnc3DuOxAWWJQfgflECC+jOjFUFZZ1CdE7Xulgp5TSqxIrAFoSHPiy8AIc6plhvSuTWftAFwoFkj6GNDJmOqAQ5EKGNXABctj2L9rDAXXqq5E/kEzaQA+SQ80z+KeZ1hnDbf/06KYonhdcWCoNViyEOCyVJDcaSCAg6K8UDLuqj7d/7nyjQV0KdyzsOD2rs6QFBjHkq7vcn8EEKcB0EJc2RA8OErrIFwQK0V7lgmloOFHRKuWBFra8sBmWqPJHMYmMxhf0IGebtPC0tY1BHAgo4AYiHLaG8fDiTrW6J2jqRz6I/ncCAhI5mV0R0GFncEsbAjgI4WaWelnUL9TV/mkaD/F9YUQDgifBC0KAZl0i9YDfJRDUUWAzXSocSKYMy6qH7DSlJ5QNBgQuMF8acxF7Pn38MVDQUGBNUHgQGhonHT+J3dgANqhSGUcS4VXloVw1ltmCGRzLNj6RxePJjFM3vS2DKWxWS2uHoFVbGeE5Vw5pwg3jovAsooGQs2FywQFFA7XzqcwZN7MnhjJIfJrLAl5TeaFqkI1+mzgnjL/DBWTwm2LSw0/mGv7QoFQBgvRDHklxJ0vgc6h0UzK4IyvxesCIV/FwChyIpgtCAYAEHBAwaE2nq3BLFqPV3lx7MFoXLNGnqEh3Bw5UoqvNRetRVoYqS8/L8/mMHPB9Loi+ec+IRialjCm+aE8K5FYfR0BxH2+ccmtZOsIi8dzuLBwRS2jeWQs67tlR/i3SEJZ88J4l0Lwzhqasj37Wzos+nDkxMgfPe1w3jMYEGoyIqg901QnRXzgKBN/Oo++WUGBgRXRoPnNhcGBFf62dlFGggHeZ8Dg+WABuDizgAuXRHFGbPbCw7oa3rneBYPDqTw//ZnEM866yZtL9KOsktetCyKc+aGQJOpHzcCgYF4Dg8NpvDM3gzGlLJ/FW2LOyVcuDSKN8/zbzsralCL7KwBwqP944UoBl1GRMUqoOY9MLUiFCwEBQuC+v2vd1LU+TMUEjAWqkUKOe0cFdkHoeJR5/kbhQGh4j5rzAFuwIGJQ6IovLRMq8rYmKb58awkxbaxLO7clcSfDmehFfer5l5nRyR8YFkY5y2IYErY80e6qAmEAgMTWfxkVwovHMyIZZNqt+lhCR9YGsY/Lo74FoaqbVuzHlcMCLpaDCokmPoiFIU3FrIuFidOsk6a5NSKwEsMtY8qz98mDAi1d2LNZ/AUDqJtWVvhQDKH23Yk8dy+DFJq5d9q+5Ee4jkxCRcvi+AdC8KIkrOCT7bRtIzbdiTw5N4MEjXAgdYc8lO5rIfaGUHI58sqPumCht5GARDGFB8ELRui3opgdFjUZ1IUX/VqNEPRsoGJs2KFywzNXvqZnRTZSbGhD6+jk3sAB3RfZBq/tCfWlnBAL9JfDqXwg+3Jmr6o9f1Lr9PlXQH8y1FRrJsZMrpnORoKjdjpiT1pfH1Loq7tPGZqEB9bHcGx00ONuGU+ZwUK5AGhjwCBEiEURzBY+iLk8x9oMKuDhMIaQnHqZQaECnqmPrt6/qnBFoT6dGRVZ2kgHND9KJnlzaMVrllFywoRtGMOpIPJHD7150kMTZY3HXQGJVCq6Y4gMJIC9iRzEDV9ymzktHjNiiimRTx/tEV0wkf+GBeOl1Yb3SXd67yoBDJ87EvKOJwsjmowHkv7XbAsjEuWR0Ea8eadAnlA6B1Vwhz1EQzGZQb19xSwmE+QlD/GHBCUXxcnWirJh6AfAkX5EEzGRhP5IbAFgS0I3j3ZHsLB5Sup8FJ7OSTqO/qB/hRu3ZYsCu3Tfk+vNArx+x8LwjhvYRjzYgExcVJs/K7xHH7al8KLBzOWPgsUBvmFtTGsne69FeFXQyn8381J0zFOYNjTFcD7loRx1uwQpoowDFm068+Hs7irN4mtZSIdVk8J4H8dHcOaqUHvniG+MhRAOIRHCRC0VMuaFSFgCHPMA4MCCEWTv90yg27Jgo4r8kNgQGjYSPQcv9mC0LC+tT5xA+HAKlqBboaSINGyQruFMuo7gib6T/w5js2j5l/VMyPKGvt5Jr4EmsPfbTtT+N3BDNImp6BX8odWRfG+JRFPQwLp3j795wlstGjnos4Arj06ihNmlIIMRT28ciSD72xPYvtY3g5VNJ6jAeCTa2J424IwfBq84cGD7f4lBSC8egi/6hstimIoyqZolTjJuMxQ5Jsg8MEAEQULhaWjIlsQ6joIGBDqKmcTnMwDOKBBtrQrgIup8FKbLitoI2MonsVVf4ibTu60zz8sCuOjq6PosDCdEyT86VAG396WRN+EOWScMzuE69fGLM/hxijdHc/h6j/EkTRJdkDj4UMrI7hgWdRyiYmOe3QojTt3pTCSNg+LfPfiMD64MoouJgQ3utT0GgQI33n1IB7tHUPeB1VM/AUrAQI0nZtkVjRGM5QAggIJRYmV7PwQGBDqOhY8B4T3c6rlunZo2ZM5gAO1QkLxaYzH6d/X6u+UHykpYvObLItvgBUilJELL5EuLxxM499fSZh2EzHBLSd3Yu308mbziYyMmzcn8Pz+jPLVZtiWdwbwzVM7PQ0FpGWQf3tl0rSd5Dfww9M7Rdroctv2saxwcHx9xByE1s8M4vPHdYCsLrx5owABwq0CEJQlBm0yV0IWdVBQFK1A/W6wDqi/L/gbKO0x1nXQliachDq2QhTD9EDmbXeeO/1pb3rXB5kUGRBc6noHcGBqzHUAByoaWBZeIssBF15S+pmSIn1jq/m6fHcIuPesbnTb5DKgLrljZxI/G0iZhg7OigZw++mdnuZEeGQwhZu3mLdzSWdAAELExkOVQiS/uimB3xzIZ/kvelhWdgfwxRM7hJ8Gb94oIADhlQN4VEQxqJM6+R4YlxVKAEGZ/gvVHMvkQxC7GipC5ktJq3Bo4oegxlMUC9NkTooMCGxBaPyT7QEcUKPIA//KFTGcziWb8338s74UvrvdfOKcGgJ+ek637dIAdSc58d3blzINH5wZCeDHZ3gLCD/rT+K721KmY3tZZwA/OL0TYRtAGCdA2JwQWSbNtmWdEr50kr0lovEPWPteoQAIqpOitiRgXFYwWhSssioWLTuoEKGPZNBgQW9dKOymEopqnSitxlCSbdHPPUdRDAwIDAiNHaNuwIEwIRSHNJI3PYUytmPhpXIdumF3Cl/eZA4ItJT+vdM6saK7/BJDKifjls1JPLU3nf9q01+TymV/a723SwyPDqXwVYsIBgrbvPvMLswgT8MyG2VgJCvEX4+YZ1g6dmoAN5zQgTk252nsA9beZ88DghbmaEiUVOR7oEGCBg8lkQvG6AZNW3M/hPy5GRAaNgg9X7zjJYaG9W2xyd/iMjUvK1jAARVeaudQRqte3Ticwcf/PGka4kjHXLA0jKtXxhCxmDsJwzYOZ/H1rQnh4W+2nTM7iOvXdthaIho48vCnw2lc99eEZSjnZ46O4p0LI8b0+flbomgPAqAf7UjhUMrcSfFv54bwyaNjohQ2b94oYAYIYr4ut8xgAATFKKDWbCgKf2RAYAsCWxAa82R7YDmg1zQV1aFQxjPntG+eg3IdOprKiSiGwxaT3tyYhI8fFcXps6hyYfHERwEB+xI5sbxARY/M6jfQEdesCOP8ZVFbE35jBp5y1oOJHK75QxyjFoWZKI/B546JiZLV+Rz86g1lczI2jebwo51JvHwkawoZJM1VPRG8f2lElLzmzRsFCBC+/fJ+PKbLpChcC20AQfnoN1oMdHkTBDDUCgjNXfKZlxgAsAWhAQ+2G3BgiFagVvR0SbiQQhlnt2eGRCc9SZM8ras/vsd8XZ0mvtXdAbxnSRgnTQ+Kr2N6V05mgK1jWTy7LyMSJY2ZH45ZEQnXHxvFSR6nW6Z2/vfGBJ618B+g5ZQzZwXxT4vDYkmlM6QYvCikkaDgqX0ZvHIka7qEQjpTMql/XUPOr6G2zMbpZKy5sY9mQXisdwwZQjktGkEFBMU6oM+cKIHCHhVAMDgmqmGOBcfF2gCBji7KuqjcjBuy1OUaDAgMCHUZSEUn8QoORChjBKfOCtt6p9e/0c11xpePZPDvryYRN4tRBETmRJroKZkQhfDRv4dTMvYkZGFBKFfcaUFMwmePieJ4kwREbqqUyckiV8PDQxYkA4hETgs7AqB7piqUBBW0nDAUz+FgmXTL9Ip/09wgPrwqyhEMbnaqybVKAMEYmaCLZhBWhXL5EMoUbjLLhWDng8CAUPvg8Byn2IJQeyfmz+ARHGjLCqfOCjEcOOhOymPwza1JUeGw3EYPp7bKQJOn+Up88RkIJo6bFsR1R0exsNOb8D+Cg18MpvCT3jQmyjdR/ZIstNOCmYoaOSsq4UMrwnjL/IiAJ968U6AIEESxJuUrPZ8oySzcUbMoVBDJUDdAaCIrAlsQ2IJQvyfbDTiguzWJVvggFV6aTT4H9WtOPc5Ekypl5KNbJpN2OGiaOqUel6roHDTRbxrJ4ktvJDA06WTar+j0YudV3QF86cQYKCeCmxvBwSNDKdy+yxkcVHpv1I9vnR/CR1ZFPc3zUOl9t+r+AhBe3l/IpOgVIIiJX1VZt4xQssTAgFDRUPT8lc4WhIr6y3xnj+BgbpTyHERx1twwgh6v7ZEEVD2QTNQbR7IgM/6ucRmUbIeC5Ch73/wYcMy0IE6ZERLmezJre5Wll0IVn96bxu0708JhsRGYcNzUAP71mCiWdAZdgTfS/8k9adzdlxZLBPXeyFpw/LQgPnZUBCttQkErvTZVyaT7T2RlsfQTzygWGxo3nSEJsaDy95C7vFVpM1zfv1GAoMzjmqOiGuaoTe5apINVsiQGhLqNAwaEuknp0Yk8goN84aU55CTm7TCil/qO8Rx+eyCDX+/PYG+i/IRLcfjrZgRBYXInzQiCEgt50QRaanhiTxoPDqaFf4FJ2YKaBhVZdMjRkeoerJoSbKg5ntryzN40ftqfFvrXe6NIxhNmBHH1igiOqWMFx2RWxu7JHDaP5fD6cBZbRrPYlwCUIBNZhJtSnoVV3RJOnBHCUVMCWNwZ8DSEtN7a1nI+K0AoG8lgXGJQJ/4iH4VaAEFnJWALQi29y6mWa1PP66M9gANReKlTwsU9tKzgPRyMpWU8ty+NDXsyAhIsoupKeoraMSMigXIGUIEk8qT3YokknpHxu0MZPL47g1dHspZFnKodauQIePKMIC5bHhGlkRuxZk/LOE/sTuNn/Qro1HOjfqLQT4p4ePeSsLCG1AtH9ydz+M3+DF44kBURInHzfEz55pCWtHRzzpwQzp4dEqDgxZipp761nqssIGjlnbXCTfnqjbpUzDorQB4QNGDQhToKnwanFgQGhFq7NX98vZ61qm/ofZwHoTrtHMABfUeXvK4d1lawLLzUpUQrnOaD9Mn09Xd3bwob9mZwqEqTNn0hrp0WEFUB10wJemJJIMc8qsz4lyMZvHggi21jWUxYTFa0JEITJrkWDMZlWBQ6LBpT1EayJFAZafr6ruekRgmNfkVw0JfGfod9MDUsYUmnhJ3jOdNU0XTzBDK0hEUWnjNmBXHSjFDdfA7oEdg5kRNj5y9HsmIZqpKtKwSsmx7E+5aEcdz0kGfLVJXcc6P21fIgFFdzLIQ25kMWdbkR8qGQWtSCLj1zaREnjQt0gKABhEIMhdDFFqvHQE6KM9q9WBMBwkRantaoAdyS53UIByVtdwgHAitM8hxQCl8qvHTqzBAijfgUraCzsrICB/cP1O4MRxPm0VMD+PdjY5hvU2GwgluseFcKX9yfyGEwnhOQ0BfPYTgpi4qNsRDVtiBTdxA9XQEEIOOO3jR+f8jms1e9CwILim742GpluaEeGzkkPjSYwj19GQw7nGQJDv55ZQRrpwUxEM+JL3f6cyQFUJ9GgsCCWABUiGnllIBo89RwoG6WD0KBraNZfG1LUgCKk6gJM61IT1pu+OdVUaFrPaGrHn3j1jkKgKCv5lgMCPnCTZRBsVxNBi0MUl97QavFpLcg6CwEdqGOzVzRMcyAADAgVPgoewQHVHjpCnVZIeTx25Be8r87mMZ/vZ4smxOgEmXpPXT27CD+fS2lOfbWsEa+CDRx0YQpkimr+WfI14MmJu32DidzIhLiL0fMUy4b20/HEVz8f8dHMZ8cMWrYyHJAcEChjOMOQhnpUhocvGW+Eg5r2U4ANMbofuvdEwRg//V6QmRqrMxuUCoWzXVrugP4z+NjmNOmFSUrAgRD+GMeHLTcCQwIRYOMAQEMCBW9o92AAzEhmRReWkmFl7z3OaDbo4nxC68msMmiFgHtI8IaA0oWQlmWxdq+nX8CzZmfXhPFW+aH6z4xVdTPFew8lpLx329M4k9HnH8NL+0M4Ia1USzrqm5Jhbz8fzmUxr19aUfmeZrkp0ckXL48jHcsCCPqkfWJnFl/sD2FR/ek6waW1FXnLQjiM0d31M3KUUH3e75rpYBgmiOhHCAIa4Hyn2pyIbAFobYhUm9Ar/hu2ILgUDKP4IDWga9YEfVN4SWSgeLsb9tJX66l34AEBpSdb/3MgFi3pomJgIIqAv75SBZDcesIB3oYTpkZxPXHxsRxzbLtmczh1m1J/Olw1rQ+g1k7jp0axL+sjmB1hY6LpPnjexSfA6siSvrrkYqUFpnW6/9hYViEDHqx0Uj546GMyO5IvhtWG7HL9LAkrB0U0kjLPiMpWdSUsIoyoQiLG0+MYd3MkBdN8/Sa9QcEMxhgQPCqk715WnWtZUBw0PUewQE5kl26nAov+cNyQEqRQ9lXNyXw4qFsyQubTNKnzVSc8dZMIQ/zwvAmlnjlSAY/6U3htWFr8zI5AH5idVRYS5plo+mubzyLO3tTwich4cAtgSbCE6YFcSWFDU4LOnK0o1DGDbvTwu/jgEOHRMp6eP6SMP5+YRhdHsEB9SOBze07U8KhkqxJZhvd36kzg2KpafXUALqDkqgNQXk1fntAAUwrnwWKsvjC2ljbFY6qKyCoUQ+l1gIGBK/eRQwIXinv9LpuwIGJQ+LyLkk4JPqt8BK9rG9WHcyMElL45aePjomJzyyvAU2k28eUDIa9E+ZfkZQQ5/2Lw8Jq4pEl3OnIKNqPvm53jWdxV28KvzuUdWRCp7A90opCII+bXj4EknwOKF/DzyuAgykhCZf1hHHeAm/hgIQiZ0hKb71xxJwOKCrkHxeF8YGlYcw2ZJ8kbak+xD19KTy1N6P4hRg2KqpFmSuPrmOOhqoGgssHMSA0TnD2QWAfhPKjyyM4oBK8F/qw8BJN6U/tTeMHO1IlYY0UBPWexWFhPSDzsNVG53hkMIVvbk2ZvujJCvE3c0P4xFHRsudp3Guh+jPTRNY3kcWPd6aEhcWJhz5JRREFH1wZEZObGVhR1sefD6TwwEAGRyzKVJtNmHTOv5sX8jypEOnymwMZfGNr0vL+KVcEldle2mWaWkc070Aih/+zMYHXTCCDQkmvWRHBB5ZGqu/AJjzSGhDIw1Qt51xSj8Hwc2OBpxJ/A50FQfy1ENpYFMWg7KZsxmyLem29yIpWRd8yIDAgWA8bj+BALCv0xODHwkv0on9gIIWfUJ5/w+xHX/4fWx0VTnB2X/6941lc90rCMh0wmZnJWdHLkMcq3ifiEBo2eyezuGVLEi85jG4gvSgHxLVHR7GsuziXMFkOftaXEhkS7RIJafdMKaw/siqCt8wLi4qNXm+0pPDwYArf25EyhSZq/9U9Ebx3SQRRm+AOSo9946ZkyfIWneOt80K47pioGsrndavdub4VIOjzH1B55/xEblbIyQoQ8jBQPSCoRxaLwYDgeHDwEoNjqVzc0Q040GYT3Z9zosA1Iloh4su4bpK3Y7MAACAASURBVAKEe/tSItc/eaTrN0peQ1/9NCnZRSnSl+AXXpvE1jHzZYYTpwfxqTXk5e+D2a3KYRdPU3SD4qvhdFvSEcBNJxVyQRAc3N9PeQ4qgwPKc/C2+f6AA2o71Vi4tzeFu/rSplIQ0HzqqCj+Zl7INnqFLDT/+tdEiYMmvUhPmxXEDWtjnkVpOO3neu5nBARlTldicfM5D5wAAh1HYY5qngTlWM1aYAII6u/sLAgMCLX1NgNCbfrV/2gP4eCqFTGcPcd+gq1/o52dkQCB0vne3ZcqycBHHucf7IngnxaHRf78cht5339xYxKvDJtPnhTJ8KmjIiIaopm34ZSMb21L4oWDznwSqK2ruwP416OjIlvjE3spfbKzZQV6kcyMSLhwGfkceL+soO83cq4kqKSxY7ZNDQOfPCqKN8+1BwSq2/C5V0qrcFL7188kQIi2laMiva6+TdUc+5RESUWAoGU5FPkNCsmTSkpBK79lQDAMTl5i4CWG4iHhERyIwkvLozjbR9EKZi9ykoe80KmUMHmXG7ezZgfx0VURkX2v3LZjPIv//XoSe0xKLdOL/pw5QTFhUK2GZt9oQrtjVxovHMxYpjXWt5GsL8dMDeDYqQE8tz/rqCqjVi+BfED+fkHI02gFs/4ia9N9A2mhg9lGfhjkL0FOinZwuXk0i8+9msCY4VSkm4hkOC4q8m+0y5avxSAAQWl33oKgAYKhJoM+m2K+xoIBEPLnsaroqOygLF2of1c5oyC9lR8CLzE4Hp6ej2QOc1T7ygM4oM5fStEKyyhawb+WA/1o/v3BDG7dnsKQyeROYWqXLQvhXYvDiFm8pKm4E4UDPjSUMY1rpzXzf1wYEhUQW+FFTxjVP5HDT/vS+I1DSKBxQe9Qp9UlKc/BJcvCeNt8f1kOtHFDpZwf3Z3Gd3akLEMcz5wdxMds4JK0/GmfkoPDiKcUwfnOBSF8fE3UdpnC8du5CXYsFGsahZJQU11aoCUGIyDQv8ukWy4sMejOowOEImioBRD0QOFjjdmCoFoQxtu9FoMDOBDFk4yD2WFtBavCSz1dZBKO4rRZIZHathk2+iL+8qakqSc53T8ldnrXwhDeuSgMCj3TNtKOcv4/0J/GcweyoCqKZhtZDf7nijDetqB5sina9RsNk34RppfGrw9kHIVA2p1T+z0tK1AJ5r+dG/StaZ16msDyG1tTlgWlyIeF8jW8f0nYtB10DioF/d9vJE3hlCIjP746gvMWhp1K1xL7aYDwq14FEPJQYAAEzWqgWBfIwqdEIuStCUUWBN15dL4ISkJFXQRDvthTIWqhiM7yFgQFOIq2JrAiECDM5GJN48NtDQgO4MA0959DOLAqvCTyHCyLYr0PCi9V8qakAkHf35HCL3dbT3TdIWUt/eSZQSzuCCALGbvGZVG5b/t4zvIrkl4hR08J4N+Oi9ouU1Ryz37YlyY4yrj4o50psXRQj21WRIlWoKUpO9N8Pa5XyznIivKtbSmR7MhqowyKb50XxHuWhAVoaom2KMyT6l3ctjOFXePmSbZIi5vXxbCos7n9VirVuMhJ0QEgCCgoBwj5r3sNHsygoPCzkiUGPQvoIKAk5TIDgqOu9vyzkZYY2hYQPIID8jm4oieK05vIcqAfzZQs6f9sTJYtL0wDm5YLNMMIBT2QqblcgR6a5KhewAVL/RnF4eiJLrMTtZ3SBn91UxK/O1wbJFAqajLJnzsn5ItQRjttKNSRqn+SL0KyTG0rWiqYGZVwrKgkKQlrC5WG3j4mi2yMVuPnHfMD+MzRMQSbYOKx06qS39cTEPIWhQoiGfI+DHrdDbkQFGZgC0Il/arty4BQjWr1OMYNOKD7LCm8BFzt82gFO3mpyuGPdqRw36C5H4Hd8Va/p/TMN54Qw9QWcE4sp0EiI+OmzUp0g5NkSvpzabUVrhLLCv63HOjvnbJo3rI1hc11qOSoPy8tT3zrlBiWdtZWIbPacevlcZaAIFYCdAmRdGWezS0IIs5RV5DJaEFQp3l9+KNqbbB0VCxnQchbKrxUr/y1eYmhXX0QPIUDilYgh0TP2bCmJ5NC+L74RhIvD5fWZKjmxPNjEj57TAQnTG+eGgzVtFM7hnJBUEbKFxzWbtAst/NiEi5YGsbb54d863NgpQvB0GO7lWiGIyZRMNXoSb4Hly4P46KlEdMslNWcs5mOKQcI+SgDQ5ijvqJjPt+B8EkoBgRlDld9DhQHBCGNsaqjE0BQ8aJYWp+/AxkQ2hEQPIIDypB4yTKlCFGzw4H2lJPTIeXXf3XE2q/A7mUrIjk6JVGPgFIs+/ydYdccx78nU/ngRE7klPjtwayjEEgBB0vCeLvP8hw4bjQgnFMpJ8JDQ5Rsq5IjS/clOKAxQ4mhprW41clKKSMg5CdiWtsrSbFcSL9cHOoo4mYKgJD/uteVeDYCgraPWahjgSXyKZdNAcHnVgQGhHYDBDfgwFB4iZ4rcki8qIlCGSt5be8cz+LnAxlhLh+ziEywOh/5HBw/PYh3LwqJKn6tENZYiXY0VHZN5PCd7Un89Yh1hUvtnB9cEcF7Fjef5cCoCflhPDiUxi+HMhiu0pJAywrkf3Hh0jAWd1rXb6ikP5pxX1EfpXcE33/9IIZT2QIUWAGCSaijPpLB0g8hH2Vl4bxolQ/BbpnBx5DAgNBOgOABHNDY10IZ/VhboR4vRIrVP5jM4XcHs3hyb0ZEKdhxAkETLSm8ZV5IZM9b2hkAZWJsxy2ZBb69PYnH92TK+iOQZl8/OYbjprXGOjtlVySo/MVgCjvGZNPCXWbjgeYpSkl93oIgzp0bwtwolRVvx5FTaPN4Koun+kdx+xuHEM/KikNgnQBBmb/LLDMYkyHlfRTU+zOYBEucFbVm+NB0yIDQLoDgERzQssJly6NYP4ucyVr7LZbMyTiUkIXp+JHdGctQRnofkEWF0gkv6wygI2T5ymiLtz556d+6LYnHHADCN0+J4ZgWKmdMkQ2D8Sye2ZfBE3uzOGxTqZIY8r2LQ3jHgpAIg43ZVQVrixGkNDKRyeHp/jH84I2DoDogGiAoE7zirFhUmyE/IevzIej20/3eEhDo5Jp/g9GCYLHMYLnU4ENLAgNCOwCCG3BAg9sQrTA7CnxwBRVeao4MifV6lz6+Jy0S4pQLZTthegBfPjHWdksKZhq3MyBoehxMyrh5SxK/tylsFQsA953d6btU0vV6dmo9Tzqbw4beUfzwjUOKT4uakrO4kmM5PwStWJPeEdHoh6BO8fpohnpZEXwGCQwIrQ4IHsEBVWW8ekVrRCtU+tJiQKhMMQYEWqKSccvWpFimKrcRINx/dic6KVkCb6YKxDM5PNY7gvu2jQifBLlSR0WT0s9i3lYtBYqhwBDNYAcIhom/rM3QR0sNDAitDAgewQElQaJlBb8XXmrU+5UBoTJlGRAYECobMfZ7j6ayeKx3FA/vGsUhcnLR1WRQlgsMSw7aBE8/LwEEncVAHGsCCDoAqDrkUd8sn0ACA0KrAoJHcKA5JJ7ZJIWX7F81le/BgFCZZgwIDAiVjRhne48ks9jQN4YHd43gCK33qY6G+vDGIr8E4aOgeQrr/BL0WRWLHBArjGYwWT6w9T7yGBQYEFoRENyAA0MoI419ggMKZWymwkvOXjWV7cWAUJleDAgMCJWNGOd7j6WyeKJ/HD/ZegSTFFqUhwSLDItatkWTZYZ8QiW3rAhaMz2EBAYE8gpupVoMHsCBluegGQsvOX/VON+TAcG5VrQnAwIDQmUjprK9ySfh2cFx/OCNI0oIZMkSg1Z4Sc2iqHg2qvkU9IWadM6K+VUG489U3wRxi4Wqj2YVHvPzv5Pi3B5BAgHCrHav5tgygOABHNAgJ5+DK5dH2t5yoD3wT1AUw7byBXmOn0ZRDFGOYtAAYXsKG5yEOZ4cw9FTWy9hBDkpfn1rCr9zEsVwVgc7KVbGCEjLMp7om8Btm49gQoMEMyuBVuVRN8EX0iqb1WZQQyj1ywd6h0X9xK73K3WaG8FjvwQGhFaxILgBBzRYzQov9bSvQ6LZe8rPgKCvBOgXP3hhQXAMCFEc3UJ5ELTxw4BQ4Yxfxe6UJ+Gx/gncs31EzXhq9DPQFWvSWRGUuV91bCypw6BYCoqWH3SwkA+vzFscdDfeBJDAgNAKgMBwUMXronGH+AkQCAgSWRmjaYhSwZS9j/y1whLQGQKmhCRMCUvoDEqeZeNjQFCWGNiC0LhnUjvzeJogYRwP9Y7hcFItna0lUCpyRrRxVtQgQI1ocAQIRkgwWTbwm9MiA0KzA4L4JLSqEK88FqYV5I3H6U+hA478sTrLAT0TSzokXLI8gjNnt07hpXq9nvwCCCNpGVvGctg0msWW0RyGJhVQIHNrSCIoUJaHjpoSwDFTA+LLfE7UfbsCAwIDQr2ePSfnGUnlsKF/HI/0jeOQGt2gX0YoimzQ+RHkS0SbVHPMWxkMSw0lIY9NBgkMCHlAwDQng8tX+9haDszQQDbwhOHfeVBQj81fQ9lPgoyeroAoEHNGG4cylhsHXgMCpe99bTiLZw9k8OpwDvsSctkaB/StNDMqYe20AN40O4jTZwURdTGFrx8BgR4D8nrfPSljdyKHIymlCiPVy+gOSaCqkos7JMyM1KeGhpcWhKwsYywNUTSKLEzUdkrhPCMsYWpYQrj1XD4wmsrh8YEJ3L9zDKOUljlvRaDoBv2ygc5hUavHoAGCgAfViVG8EDSHRZUCtPOov7N0VDS1JJitSRjeOi44LiqAkH7bnedOf9qruc/9TxZDSxUnxSYDBFs4sLIcGKwNReGKBWHEa8IilJHgoFULL9XjIfASEMhL+8m9WTy2O43euAwqJOV0o/fN3IhSQOq9S0KYTusQLmx+A4TJrIwXD2bx0uEsBuKymDjjGYq2kEHcRDVFpoSBuVFJWF3OnRPAyi7NA746wbwABFp6en0khz8fzqI/LmOElp/URI4EBVNCwKKOACgt+EnTg6KctDsjojoNKz2KlhueGozjzq2jiIs0CVrUgb42gwEQ8hYCHQzoazpYWRfydRrUuzRO7tUsN+itFZU23uH+DAjNaEHwCA6UwkthrJ/Z+oWXHD4/prt5BQgEB48MZfCLwQyOpEwXlhw1i/wR/m5uEFf0hDEj0vgpwS+AkJNlvDacwx29ClyRxaBcVU5SJhqEACnS6/ylYWFdqGZzExAyORkvD+dw/0AaOycUqwFZnYwsSS0hiwmNh2WdEv5hUQjnzm6tkuQESc8OTeAHm8eUEEh9FIO+uFPZ7IrFVgRl3taqPxbGQ2G5oXkggQGh2QDBDTig8WuIVpgbBa5ZQT4H7VV4qZqXvReAkJWB5/dl8N2daQEHtW5kYn7/4hAuWhpq+HKDHwAhnZPx6O4M7uxLCz+NarYTpgXw6TURLO4ga0JlZ3ALEMhR9YGBNB4aymA8U9k9kvXkLXOD+NiqCLpcsi5VdofV7U19/8TABG7bMobJnDbZ660IYsoX6ZmLnRHVnAdalVqdJaE4qZKWG0E3KLS/+tySwIDQTIDgERxQ4aWreiI4Zw47JDp5BbkNCIQDO8dz+NqWlHBKrNdGDowfWRkW+S0a6ZLgNSCQpYBKTf+0PyOWE6rdaJ44bmoA/7wyjNVTghVp1mhAoFbRNX7Wnxb5JspVGrVr/7oZAXxydQSLOgMts+RAY2DDwAQe2DUhxoAyCipcatAtPxRZEXRLAUWLNPWEhEqJ1K6T1d8zIDQLIHgEBwtiwJU9HK3g8HkSu7kNCMmsjJ/0pfGz/oxlPAtN8F0hoCMggZaZx9JKuGO5jd5ffzs3iP+5MoLZDYxu8BIQyLT+mwMZ3L4rjT2J6uFA05EgYf2MAD64IiKceZ2+txsNCOSI99P+NB4eqg0OqJ3UxtNmBvHhlWEs7mwdD0ZKy7xhII6H++M4LJboNP8DdckgH9FgyJ5o4ZyYhwSDM2PDIEG7TiUvK5t9GRAIEH7rdydFY+RBaa+arziXiVjQvQutQhmXd0m4cFmYQxkrfODcBoSBeA6feyWJfcnSCY5eceRHQJMWZSCk9XJaVx+My3h1JIvNYzkkylQYpv2vOyaC9TOCDcuT4BUgkFr9Ezl8Y1tKRHvUjgfKQIkGgHcuCOGSZWHh2OdkazQgbNiTxvd3ZNQEQU7uqPw+HUHgXQtpCSos8mi0ykYhkE8MxPFg7wSOCGuSSTIlU8uCiGEwj2rQLAhqVINim1A1y1sRVIuFJqRuX722jtxEnVKpg04LBziKwd+A4IblwBCtQGNTqcqomJdD2hqbgwHFu7hvQXhoKI1vb0ubTnAUqnbJshDOnRMSoKB1JX0598dzwtz89L6sSKJkttFYeP+SkFhiijToY9ErQKC15wcGMrizNw2rlQVqP1lPVk0JYHZEAoUEUtjo9nEZlGfCapsVkfCZNRGcOtMZWDUSEOjc172SEJEKVhvN8Ys6JKzoDqA7RMm1gIFJWSxdWVmaaP8Pr4yIsNhWekWMpXN4ciCOu3dMCMfFUkhQfQq0yo/6BEvaPJ8v+qRZH/Q1HZReKIEEDSSKiKAUvtyEBGFBCLZ7mKNfLQgewAGNTfJYvoSiFWZxtEI1wOOmBYGGyPWvJvDSEfP1gvOXhHDZsjA6TLzr6dW3bzKHH/em8fz+rKXH/popAdx4YlRkXWzE5hUgHE7m8NlXk9g1YT5xEhDR5PcPC0JY0hlALAiQyrRe/cZIDvcPprFj3Bqs/sf8IP5ldVQcZ7c1ChBkWcZdvWnc2We9/ET9et6CIP5mTgizokreA5oXR9I5vHAwhwcHzX0zaNnqnQso2iWCaS1kRaC+oj5+diiOH20dR5wsbPmIBp0TY35poWAGKDgn6vczhwTTpQafQQIDgrrEMOa3PAhuwAENRkO0wsIOxSGRLQd2r3Tr37sJCBSmdfnvEzhs8jVLIXg/XB/Dgg7rT3+a3v50OItvb0+JZQezjVIy03nmxhpjQvAKEH5/KIv/eD1pmiuCJj+Cg4+tjmCOzvKi6UOhgr85kMUPd6WFRcFsI4vDt06OYrYD3RoFCDTRfeilSexLmo9XgqCLl4bw/iUREbJpRECyLP18MC0sLZMmS1FkafxfayItWR8jnaM8CQn8YAuFQJpDQr7WgqXFQDMpNCckECDMZgvC+LCvAMEjOKBQxqtXRHA2RytUTwcuOykeScq4+A+TIo7duB07NYBb1kURsFmTJFP5jZtSAhTMpjr6ovzGyVGs7nbwKVyFcl4Bwre2pUS4n9lGSZD+7dgIjptm3WZKnPSDHWk8uicjSlYbNzK7f/F4WmYI2arSKED465EMrn0lZXl9irq46USyclhbhyibJGlFiaOM44MAgwDhb+Y2NtLFVsAG7UAATo6L9+yYMGRc1FkNNOdFIyQIH8ciJ4PiMEl91Uft/vXd4IMQSAYEv1kQHMCB+PA3Pqpmx+WtA4Wnx8whkX5LcHDVCg5lrMd7xk0LAuWSv/QPCVNAOHVGAF86MWbbJIKLW7am8My+jOkyAyXL+ca6KI6a0jqAQBkm//XlBF4dMV+aOXt2EF84NmLrf/OXw1ncuDklvN7Nto+uCuO9i8O2fdAoQKDIhR/uNE/sQHPRtUeH8fb55e+PtKLzUBiosiZfvF22PIQLloTLQoatAD7egTIubhiYxIN9WnSDIetiUeplNfIhnyypTBIlYVwokyNB9/u8PNVkXKzBaZEBoQkBod5wQIWXLu+h2gqc56Ae7yk3AWEkJeOi30+afsFSFMq3T47ZJjqid/63t6WwYW/GFDToK/HWU2JY3tU6SwzkoPjBlxKigJXZdtmykFhbt9sOJHO49uUkBi3Oc+mykAgTttsaAQj0fXDL1iQe3WMepkJGg++fGsMyB6GKz+/P4Ls70iKXgnH7+wVKKGy1WSTttPHD70cJEvopBHISh1JyScKk4qUGMbPr9jGp16Cf/H0MCQwIfgIEB9aDesJBPlphaRhnzgm1TNITr18oT+7N4Bvb0mXzDBw/LYAvnxhFrX5/9PV/5R8T2G/y4qalgS8dH8GJ08t/+VPmxZu3pvGHw1nT9XjyyL/1lChmOgzZq1R/Ms9/Z3taAIrJB2rh4wnAN0+Ogpwma93omtf8MYG9JrrRuQkQLl/u7Mv/2lesAcHpeWjS+frWNH53qEzMKRVRCgA/O7NDlOq22+jLn6wbz+23BoTvrSdAsHc+/X8HspaA8NZ5QXx0VUTUbmjljSDhicFJ3L8rjtGMwadAxCSoOop0zVaQoEVAaGGOxX821HGxCksCA4JfAKHRcGASykhfmBTHvH5WUBSg4a0+CjyxJ4NvbrcHhJtOjIAewFo26tb/3JjEC4fMTeVnzAzgE0dFLMs40zo6FXe6qy8jvozMNsqh8IXjIiInfyO2SgDhG+vq4xCXkWV84i8pbBs31+2c2QH82zFRUYug3PbXI1nctDltqd2/rArhnxY5AA0VEMhxstymAEIMnQ7IkmpLfGVzGk9bAAL15nVrwnjr/PIzO4HGfQPKEsOEye2dNz+ID60MNyzKpRFjrtpz0nLD07sncee2uKHAkwoERf4I7kJCI8IfGRD8AAjVwAGNPeNxFfgcLO2UcKkovMRwUO3Lwuo4J4BA+v/v4yJY6sC8a3d/lMvga1vN15kpac+b5wZFqOP8WPEET9aHFw9lcceutDCRm+EB8cs1y0N43+Kw7WRpd59Wv/cCEOhevrgpJcI7zbZ5UQmfJyfFqdaEQPf9Q3JS3GvtpPjfx0dwygx7342DDQAEatf3dqTwwKA1dFD9CHKkLOekuCeRE3k2XjqcE2Gexu2ipUHxodHRIICsdlw16rhENodndyfxwy0TiOfU5QZ9HYZyTouCGQx+Cvmf2fgkeOC0yIDgNSB4AAfkof3BFZrPQaMeo/Y9rxNAIIPNidMD+PiqsIixr2Xbn8jh0y+nTJcZlG8YgIDkHfODOHlGUJinaUni2X0ZPLs/Zxq+pt0PTZT/cVwER9XBrO83QHhkdwbf3GYOVtQ/Z84M4hNHhU2XVuir+tcHMvjhzoxpBktqKy3J3HpyBLOI0my2RgHC0/sywsJhtdEy1CVLg7hgaRghE2sWOSVSiOP9AxkkTOiADBmfPiosSoS3CR8IKcmH5cnBSdxGlgSqAqkvFa0lQTL+TPxb7YkmgQQGBJ8Dgul3XQ2WA4KDK3vCOGcOZT9rjMnY7mXY6r93AgikAb1Qz5gVwJXLwljaFag6Gx19yZKX+b395lEImt7U2zTx0Z/0rqdJrtxGL/93Lwri4mWNNR97ZUGgTJKfeTmJEYv5kxIcUfXCf1qoJBCi/iLJqArinw9n8cBgRjg5Wsn4tnlBfGI1fZ3bj/hGAcLehIwP/ylhujSg3RVl27xgSVAUYyN4JJwhXxBKNfzU3qwI47Sq/Li4g/IghEU4aLu9TeLkuDg4iQf6JjFMy3P1ggTde7lhdRscvvsZELwEhGqsB1ZwQE+7sb5CSRIkCVcsp9oKDAf2r+zq96BwwVu2pcvWONDOTpMwhdRduDSEFTVAAk125Bj52kjOduJ30jICiaOnUGXCEI6Z2tiXv1eAQIl/bt2exBN7reswEBRQSuFV3RKmhiUks8CuiZzIvmhX7Oq9i0O4fFkIXQ78BRoFCBTH/7lXU9g4Wr4yF9VWIJ8kimggoBlPQ1QGJQCyOpLGCEHQ1T3mVhYn46zZ96G0zBQC+chAouCHoqVeztdbUOo5aOYDxdpgY0kwg4QKciTUyx+BAcHHgGBrPShyPCw8asZcB5IsC09l+hJUQhmb/bH09/1vHMnhC68nMWaeg6fk5mkSopz9Vy4PYWW3vTnarPWZHPDHw1nc3ptB30RthYdoeCzokIQn/5vnhETq3UZuXgECWVBeHs7ia1vSlssEtbSbvswpzPHvF1A9k/JnagQgJHMyfr2fsj1mLPM01NI+skZ+qCeEN81t73eKKPA0RHkSEkq5cKM/Aomssy4UpWMWv1MGR+Hnuhc0pXjW22asIKFB+REYEHwKCBXBgc56YAYHVIDlgqUhUaKVCy/V8kp0duxERsaXN6fwokVkgdlZCBLIJ+FDK8JYVSUkTGYUp0NaaiCLQrXVCcmZkdLvvmlO0NHXrzNVrPfyChDojqjs9S8GM/jFUNY0CVCtbSM/BAKt8xaUX6OvNyAQHDy7LysiD3bXoYy1UQfKjfHWuUGxXElFwNp9I0vCU0MJ3LVDF92gTPtqlUd9OGODciQ0ABIYELwCBJvlhYoAQZ0JzLIkktmQLAccreDuK6x3PIebt6awacx6jdp4R2TZOWZqAB9dGa7aKZCq8L0xmsU9fRm8YpEl0EoJeoXR9S9fHhLe++U82+upppeAQI/OnkkZd/SmRW2FMgUaq27ynKiEq3tC+LsyX9r1BAQKXX12vwoHZXwkqm2QMk4kfHJ1BD3dgbbzPbDSLZ6h6IYEbldDIIuWFRxFNqhAoU30hj9Nqz9q1gn9n7obtF1qsPFFYEDwISBUAwdFyZdV+FgUA67oCbPloNo3YQ3H0cRzIJHDPf0ZbNhrnoDI7PQECUd1B0ApemmyrmYj0/loWsaT+zJ4cDALmnzsNios9J5FQbx9QQhTQ4Wy0HbH1eP3XgIC3T+pQ2vtVFeBkkWVS9ZUTXtpQl3YIQl/jjNmmSckqxcgUNXu3x7I4LZdGVFEyr7nK28RteX6YwhiG+ubUvmdeX9EWpbx9FACP9yqRDdokFCY3Av+CKVLDYqfQj2XGhgQ6jAm3vtbl4s11WI9KHFSVAQwWg9E4aWeMM5in4M6jJDqT3EkpUDCY3uypumQzc5Mr4ljpwXwzyvCImtgLT4juydzohATWTKsNlpS+MxRYZw0w5sXvteAoOkylpFxb19a9NVkzj7Ko9JRsbpbEn16/HRyEi4+uh6AQHDwh0MZfHt7BgcsMkRWes/a/nS75ItCjqufWRPGojIVQqu9RqscR46hlHHxnp2TGBUpKNTsiZoVHL++ZQAAIABJREFUQfzICAMVpmM2ruroLQEGq0AtkMAWBADv8REgVGM9KIUDCVctD3Eoo0/eOPsTMu4dSIs1YVE21sFGz/jJ0wMiwdHRUwNVx5hTEaEbNyXx12FrQKBaHNceHanaYuGgOWV38Qsg0E1mZVlEgjy6O4PtE7IIX6NoB71Vgd7NtAZP0QnTwxQOCFC6aruNjls3PYCrekLi61sPCbUCggIHWZGyep9DOOgMKqG2FMJodfd0j7QfQeS5s4P4h4UhEc3BW3kFRIGnwQQe6ldKscv6VMw2+RGKrA15mFDLTVfhsFgLIFBujLntXu65VQCBohUoLplyyFN8Pec58M9rjNa5KV3tM/uzZRMT6e9YJFOaFhCe8PTVWc1rmQGhujFAX4E7JnLYPJrDQFwWuRIoOQ692yljIPkVrOySsHpKAK+P5HB3v2LSt9toQj5tZkBY9/TFr2oBBPI5ePFgFt/f6dxyMD0sgYosTQ0Bm8dkYXEgCwqFcdIWCUKkTp4bk7CmWxLZICmhl100hl372+n3osDTYEIXAqmLSCgb1WDm2FhblsWykFDGD4EBwW0LQqXLC4YaCvkHzOCYSHDQ0yXhQiq8NKvUhNlOD6Zf20pJawgSyITtdJ1bLDdMDeCanhDWVgEJDAi1jQbKAZDJKVYESk1N/UE5A6JBJXESbRRi+tuDGdy+y1nEAB139qwAPryqUCOjWkCgXAzP7c/g7r4MaHw52Sjq4L2LgvjHhSHhiEpRNwQIFKI3SQNTlkQuhOkRBYSoSmMty1xO7qlV9yFIeHIogft6E6LAkzAIWNVr0OVGMLUiVJIbodKIBgtIYEDwESDYVmq0qLVA42oFwcGSENbPDHDhJR+/bahc7n2DaTw85NxxkfqX4O/DK8NY5yCvv775DAjuDAaaV184kMGPezMYsCj9rL8Typ101uwgPrZKSTJUDSCQlePpfVncP5gRkRhO8ICuRc6olJuBlwrcGRvjGRlP707gzh2TYokxDwj55QPVR0FLoKRO1qWOje5bERgQmhgQtFcCrSFTrPWpDAfuPPE1XoVi78kk/dBQ+fLGxstQyOqHesI4dZbz5QYGhBo7q4LDyZeCnAQpgoCiIuw2goQ3zwniY6vDIisjlXt2Ws0xGICAg3v7MqKuhv3VIIDgfYuCeNfCEKawH4Fd99T19wRzz+xO4LbtCaV2g4Oqj/W2IlTji8CA4CYglFleqNZ6oGUzO4OXFer6QDf6ZONpGT/uS+OXu51bEuieKCPmR1aGcPJM83A5430zIDS6J4vPT5aEX+/PiOyFNHHbbeTs+M4FZO4P43s7nQHC3WfE8Ocj5JCYEfUSnGy0ZPDeRSGRAIuWR3hzXwHqqqcGJ/HDbQkRJZPPuGiWhtknVgQGhCYGhFkR4JqeIM7h2gruP+11uOKhpIx7+9N4qpLoBgCrpki4enkIJ023z4zZHIAgi8luw97yFhWa1r6xLoKjpzqoflSH/qn2FOSzQM6oml+A3RROzoBvnhtAf1zGq8PlayZQYUjKkXFHr/P0yQQH71kYwiXLGA6q7dN6HRfPyNgwlMD9vVQkTF/gSaw3qFUh1avp0yznnRr14ZDqcoVyqLIZfQkqCXk08UNgQGgGQDCpudAZlHHN8hDeOo8dEuv18HpxHnIOo6qABAlWFfOM90XvgqOnSOKFT+Wby9UCEoCwOYWXy4Q5UuTLtWuqT8xUq24izHFHGo/vLe+8Se3++kkECNUlkKr1Pis5nhwXn96fwT39WUfOg+T4SCBBmTDLbaQBOQ1SxIGTjZJekYXi4qVBthw4EcyFfchxkQDhsaGUYknIT+w1+CI4rNFQaTQDA4IfAcFBxca3zJXwsZVUSIfNhS480w29BEHCzwczeGxv1naC0G5EOKZ2S6Ja4OkzrSGRAaGhXVf25AQJzx/I4id9GexxGGFQz7ulaIV/WhDE+xYzHNRT13qca9d4FrduieON4SxkvXWgQiuCafrlMkmTVDuFdRMMVgQGBLcAoVr/AxPrASUx+49jQ1g7zf9fUvV4mNrhHLTc8IvdSmpkhx+Hwqq4pFNJimUV2sqA4O3oob783cEsftTrzHGxXndLlSQpWoGsB+yQWC9V63ceyqlx984EHh5MFcqG67Mr2oU85q0OJssMut+VLDloYZZWTWFAKFXGlURJdQSERR3AjWvDIk6Zt9ZRgOonUFXB+wYyjiGBWr+IoliWBvHmuaUVAxkQvB8flD+BohOoFPegg+iGWu94VkSJVnj7/CCHMtYqZgOP//W+tLAi0HNvWQ5a76xYSRGnalMvMyA0NyBQtMNRXRL+z9oIOkMNHL18ak8UmMgA9w1m8MBAxnFlQcLEeTEJVy4rhQQGBE+6seSiBAl/PJwVIZCNhIQpIeCCJSH848Kga9U4/aFw893FXw+l8dU34kqabt0ygySplmGjFcESEJSFg6JUq9UuMzAg+AsQKq29QPv3dEr40towujmWufneCg7ueDQj42cDGRECaee0pj/dopiEq3qCOHMW+aYov2FAcCC4S7tQlc3fHlQsCbsdJjaq5NaoZsL5i4P4wBL2TapEN6/2/cOBNG7ZPIGRVGnIo6joaIhMKM2dYJI4ycxZsZKsigwIHgBCHZcXCBCmhYAbjw+L3Oi8taYCh5I53D+YxZMVRDeQEks7FcdFqsURCUgMCD4bHiJPwoEM7uzLOkqm5PT2yXLw/sVBvH8xw4FTzbzcj2Dx4f4E7tqVUGqzFFkHSsMdFRuBVirauL+NH4I4uHg52mk0AzspuuGkWGdAoK6+YllQJD7hIAYvH/PGXpsS7VB0wxN7nVeBpDuizJqXqD4JFGvNYY6N7adKz65Bwh29WeyuQ3QD+Ry8e2EQ710c5KimSjvDo/0PJ3O4dXMcvzuUhiyrk7eugBNN6OKn9B8P/RAYEFRAGE1jWsPGSp0Bge5zYRS4bk1YVJPjzTsFqGsnsjKoxoK+4l9nUAIlsiJHUvqSr3ajEMhfDGVE7Qan0Q10rQUxCZcuC4pkSl/ZwnkQqtW/UccRJFB5Zqrd0Bt3ltPA7F6omBI5JJ63ICiqTPLmfwWo+uZze1L4ya5J8d4osg6YZVVULQD1tSBo9GGil87aQIAwj8s9jw97AQiO/Q907w9xjEy5vIGTpgdERr2e7kBVpYD9/yj59w7pBb9rIoc/HMph63hOmPLJVEg/p76hFLoUXkZ+ASdNl3DSjCCmhW2zoZs2mJyYCBJ+XkEIJJ1odoRK+gbwlyM5vD5qPQlxoiRvxhmZmclxkUIgeycqhwSyHHxgsRKtQMmTePO/AhTe+JdDady1cxI7xrPIqW/u4slf+egz+iHUVLypSj8EBgQPLQhlAcEk/wENGg0Q6O9ByFjVTfHOIZwyU/mC4NdEY18S9BqnynmP7M7g94dyIhd+IieYzXSj93ZXiKptBkRc+ikzyAxc+T1SdMPPhzL4aX9lIZDkuEbQQsWArDYGhMr7o15HUHQD1VX40a7KLAmU5+D8JUG8Y34QXQwH9eqOhp1HWBozMp7dk8Qj/ZPYk8ghq7cWFPkXOAAE1aqgkoTin6BtdXRUZEBoYkDQZqWwRJENAZwwPYAFHVJhAtImLYvZSy75uXpAEZwUz3wKoGgj0TArml5HsXYcMyOGhd0Rs7wdDXso631i+uJ7dTgrCvFsG3dWQU9/D5RH/6KlQVywJIxqrMHxDPDTgTQeqNCSYKcDA4KdQo39PY0rSqb0g10ZRz4JlJb5oiUh4ZQYqmH5qrGtcvfs9C57Zf8E9tNDYtyKvpqUf+jfXMoyv+YHYDbLqj8r+QrXpUYuuWbhOsmsjP6JLP50MI3dZGbUfA3cBAQ9UGjNsfqc5CWG4t6kREm+WGKwmphNlhiUUV6Y0PPTVf5n6mMgViTUz0fxuzw1QACC9jPxY7nwM5nOqAMG9bx0LmVX7Vjl73lwED/XLB3KOSkd9KfWzcHblk5t2hcarf+/dCiL7+109hK3ej3StwFlt7tyeXUld2m5gRIpbajQcbHc65oBwd3JzOxqZOV5Ym8GP+7NYrhMhUaadi5bRpDJ0Qp6HXM5Gf/14gCeHxj5/9s7DzBJjvLu/7tnZvPu7eUcdUFZYCEhQCQlkyxACSGCTTZIBGMM/mxjwGRjMGCSQSYIIfAJkEQGSaBgspBQPF2+093t3l7cvc27M93f81aH6e7pUN0zPfFtP1i3M9U11W9Vd/36jY6PjVBBdzpih0Ogpd53RhDYm6Nn8ycQs/qyvAct50FFNV983FEGrrBER7+G6cBqa/5OkAZBbOyGo6Jv+Wdz44/UIDAgJL/JUwWECjoomlu4CwwsUPADBFtD4ACE4nuvucHT5m6P0ftZERA0GzyKsFHs3wQP6z8OcGkGQKDLIs3BZ7ZXJskN3e/09keld5Ooh8mx6eaYBZ4YEJI/H6p15sMjGj65jd4yg/0RSAt101PbOX2yZ1IIED7423341RMWIDhV7k4ocGgLrDdoByDYmgTHd7YvQAkYODZ5sw/VkfCoWJ3RAQ52rQUGBNn7quZm86YHBNOx0X7Tt5RsphagBBDovV+zjNYGNFAbW3Ng9ucGBEurYGkUihqOXAZ4x5MaV4NwZFrDR7bMhjr6yS52q11/Dnj92hwuXJxJZG6gEMjvU4GnwYLwgSjnYA1COdKr3LkygNChAt85rx1d7HfgEnwgIHgyCvoBgOjI1gaI13Wjb+dnjnBD+23e/szY7G1TRUkkggcGWIMQ66ZhQLDEVWETg59mwNZCOKBBfGabGhxmC6dJQtchtAiez4pmCqNn2AqGogmikQGB7MPf3DuLbz9BHsf+By3g3hywqF0BJbekcEfawMPCEkljedYcFdeuz2JVwoRXVODploE8bj1QAJVMTnq0OiDQHFM+/H2TGvZN6Dg2Yzh10tv63JxR62J1twqCuuIGk1TawecxICSXqRsQ3Bu80/HJFxBccCDIwAcOzM9NcLDNBAZJiPZCe2CDhWk6UK20yQZ4FH0dJDUI1u7IJobki6PcM5tVg1Cy8Vt+BEIXUDQnuNoZf9haA9tnwdIieM0RFlw4wcEDCbmMgnc8aUFD+iAcmNTxjw/PYCggoQ1t9JcszuA5i1TMb1OFNmCyoGPXmIYfDBSEM2PQIbLfrczgwkXJi2qM5oEfDRg+CbTRJTlaGRAIsu46nMcfj+tijsfyuoAt8gmguSVIoJwWC9uNsOKLF2exqD0dUGBASLJ6jXOKgHCi2Ilrww43LRj7ult7YG/mdtSRqSnw9OsChEBfAwMkin1anXp8C6LyINgA4s6myD4IyddO5JkNDwhik3Y6IhZ9EX01A7bzoY8/gdMc4YEBgRVBWgQLLKy+HZBAYX0ECBet6gWFzTTSQfkHvrbH/w2dNpBXrMzg8hVZdGTctVJogzkyo+MLO2bx+2P+EQ8kifYMbULlyYRiqycoXWvCgwDhXRtzOKWvvHEk/HmxIX9p5yx+NqSJjTnooNF95kk5bKpAcjCCqV8fLeCbewsYnNJB4YZhfEW/nVWBeZR7YLmKSxZnxdxV8niEfBC2G3Uagg4yMXz7vDYBLXwUJUDazQ8KJ8VR48NAODA26uDvPdoDai72cq9WwX61N8wLdubDImT4OiMGmResMZuAUBJVwRqE2i33hgUEe1N2RhJYJgJDnqGAEKZFMH0Q7PPN3xK+CKFaBNHQZWogDcLbz5qPi1f2NlQUA228H308j98e03zfzp88R8WHTs8GXhPNBGkSPrEtj90JEuFU644gFfq7NmZxal+CBA0VGGQcQPj0WTmcXOY4x2Z13LQvj1sHwoEk6NJIq3DhIhUvX5UFZTKs1FZNGoRPyQDCU6mSa6V+tQITWAddWBoEFyA4XkbcpgWzEFKUacEJB+YG7jIReBwZnb9hayNs+Jc1L3hNEaZwGRBqt8qaChAsaLBdCRyhjY7QROOd1hOqGBjNYG76JnCU+B3YIZAeHwVTi0BvXo0ICJTm+N+2zGLbaOkbHT2f/2FTFs9ZGP4aSWHP392fx037kpsA0r4z+rJU2yOLixZTieC0f620/2oCwtEZHTfuzeMXQ1qs1NXeUVOmzOcsVEUkypKOykACA0LytecCBBnTgjQcFLUHbjhwf24EOEhoD7yaAp9ICrevQkQtBgtcohIl2eMryjhw1XIeBPdCbDhA8GgOTFWBO29BcU8P0SL45TkoBQqvxiDI1GBrLDz+CGRiIEC4qME0CPT2/9GteTzhkyuf0iZ//PQc1vaEv8mRKO45UsB/7ciD/AXq9VjcbhR4umBRskyP5VxXtQCB/Au+f6CAWwcKoMyU5R6kSaAiSZTRsBKpjhkQks+IAQj7cdd+t4khLGrB5XCqeLIX2rd1GaYFBzSEOid6oMH4M6Tcs3Ozt0CHASH54ok6s24AwW/jd2z0xj8dm7pPe3dyI+PKvWYCK8GSrUWw+gkwH1hhji6HxQB/BD9IyCkK3n4mAUJPQ5kYHj9hmAf2+9iE5+Wo5HYbVndHq3opJfNnd+RBb6/1fFAUxmXLMnjBsoxwzqvWUQ1AEMWRjhVw/a4CDlSggqIlG0p5/Nb1GTxjQfmqFwaE5CvOBQh+2gG/TdXWNCSDA+oyMO+BAw6KG74nH4JTe+B1bhQnmfKIMC8YTR3PIecjyRPm6ZQwaxAk11tdAoJz83dAQgkgODb3EoBwmRnMTvyyL/qaGkpBpMQfQRISKJPi289oPEDYNa4JHwQ/DQKpmP/1lCzOmRe+MZAz3F2HC/jcjjzGy3AklFzKZTfryyoiidOLl2dADnHVOKoBCGQu+tqePO46HO13QGZjMyGo1OWfOUfBh07Lob1Mx0EGBClx+zaKBARfs0NQOKO5O7vyILidEuXgwNy6ncmTnGaIEmdJMzQySHtgQYfPpu/OFlkEC1tYPs7hDAiS6y1VQPBu9I4xSVdz9AMEZ7+uzIUeLYNwCyimVxY/XwIJ0TBgnZcEEoSJgTQIKxpLg0AZCz/w2Cy2BYQqXrJYxTs35ELrS5Ba+6YnCkK1Xd/6g+LC7M8puGx5RhSXIhBK+0gbEGi5U0VLihAI0uLQ3n5an4KnzVOxpFPBZB545ISG3x2jSp3hEiB/lPeemsV5EbAYJUcGhCgJBX8vAOF3B2wTg8u0IAMHYse3+g83K5QHByY0+ERSWCqDuOYFq0cxekntgescr1jZB8EtkZfUSy0GL0x40zTbAQqeDd06z5XnwAkCxX/71lewHBa98OBJiuSEBD9TR4kpw9QwUPKgt585Dxc3GCDkNR0feXwWvz1GSaJKH060qbx7YwbPXpjxTaBDpzw6ouHjW/MicVIjHaRJuHplBn+1LH1ISBsQpgoQqam/9YQ/pPVkgcuXZ3DpMrcvAc35jjEN1+/J4+ER/zVgzenT56l432m5sqaYASG5+FyA4FDXuzMkOsIfzQ06KNeB2ECdb/6+SY7MbdYMczQ26KKmwXW+c0yimTOBkrNeRIDvgbPvkjwM3noTphxDzAtxAGFJZvbiG57Zf0fy2SnvzGgjbnn9R55dK0AQ+7Hfe2VERkXXOU7tgeM8P18Et++Bu+CSnz+CwQsep0UTIozUy3KaB3rDevsZcxsOEOjSfziYx/W7C4Hlksnr/w1rs3jafFU4qtG1klSmC8DecU0Ud3o8QANBC582pyT1GCIXtU+DibyOsQKkEyrNa4Pw0r9wUQZUNjqtI21AoOJHn9pm5KPwHqQh+cvFKv6aimcFhA7uHtfw2e15bBkNruDZkwFuPLcNnWWEHzIgJF9hYYAQFn0gflEiEZLfZi9SHJWYD4rQ4M21YGsILO2B18HQ3vg9kQuWWFzA4tPGu5Mm8T9wQQ5E3hoGhBppECoOCObmXdKv06Dqp2XwZli0+nGGL4pFWhoWaTxyw8MlhQ/C6XNx0YruhnJSpCsbmNLxzw/PhpbhJYe+M+eoIFv0vHZFJP7ZM67j10c0kSwp6JiTg1Dln18BB7eoRyuNYtsJTZg6do7Ll6qe36aIEtUXLcqAygyncaQNCAdpDh+Z9XU2pRwQ79iQFfMXdJDsfnnIiEShsFW/g57NX/iLHNZ1J7fJMCAkX102IBwYMzuJjj6oKRyYG3FphUZr+KY/gq8jYxBAOOSXVHvAgFC6CBtGg2DuxcYVOB7yHh8EX02B89xYkGD+lp8fg7OIk6c0tNPvQZgYzpiLi5Y3HiCQmvk7+/K4YW+0DwFtDWR2oPQPYRkBSaLU7ux+FW8+KYtlndVRoglP/qMF3PBEIVbipvltEOWFn78kHXND2oBA9RXe9dBsSRllkjpB3ftPo8yE4ZvTyKzRh5/DqnXmx87I4sn9ySmKAaFSgOCTDdFyDrTe2s3yzcYvBqdQTkVzkAQOnBu3Y/OPdE70bPiWhEMzd3h8EFiDUEMNgmerN/d+z1uny+RQvIkCIxpEp9a7vdcMYJ4f+L3DdBCy6RuM4qn0GNBeOCme3t+QgECXeWyGMirO4qGRyvkRLGhXcO1JGeHYVmam5VhPVYKEB4c1fHl3vOyOFM532XIVL16erXgIZNqA8MS4hr9/OC8KMjkPArrz5qv411PCHU3pnIKm472P5vGn4eCqWB8+LYunlOGoyIAQaym7GhsahAHcZWkQSvwCPNAQalbwy3pogIRIhWSp+kv8CrwpnB1aAK+jZEmCJPNyAs0OzjBGj3bBZBxbIN6IhTgRDB6gYBMDgNQ1CI4N2+8WKFH4ep0Tned72SEoL0IdQYIBCKRB6Go4E4M1X4+ZefL9ciLEfayRmfp1a7J44dJMxfP5y4yFtCKPntDwhZ157IqRAtowiWTxkgqHQKYNCAcmNbzn4Two1NF50GP2rH4FHzi1LTKDJAHCPz+SxwMjwYDw6SdlcUovaxBk1mCl2whA+P0A7to/5qnEWMxuaNVMMHZ5c1f1AYnSpEYx4MALDX51HyLgwP41PzOBFyAsQTpyJrgXeal2MjLvJ2sQ3Muz7gDBDyiSaBHCIEF8JxPdYDX0ODV6nRdDzA0ECG87jTQIjQsI9OZ933ENX9iRx8EyIhLItPCa1ZRnIFuVEMKgBzFBAhUHIkjY7ZMpMug8CoEUeRIqGN2QNiBQaOMHH5sVTobewyhUlcUpEfUdqI93PDiDQ1P+kiFnx2+c0yaKOSU9WIOQVHJmNUcHIJTUTCgxLfiZFZx5CLxJjQDFVbq5+NoeqFFICQ6KuGLKKyi0UTSMCQie9qxBqAMNgrEFh5gVrPumQSGBfBDedtqchgYEmgKCBHqI37A3L3IjUAVA2YPAYEEb8KrVFBWgFmvHy3aQQjuChAeGNXxlVx57JuQdF/tzwMtXZvCXS7IVcVxMGxAoF8X1u6kkdumEGVEMGfzNmuB0yQVdx20DhcCqnjQ1J/co+PST2kJzYkRNIQNClISCvzc0CIO2iaHoO+BnWgh2YPTb7A2zgmpoHYLMCn6aAwEIftEG5qbt89Yv3u6DHAzjag8YEJIvKOeZtdYg+AJCDC2C6/zAEMkEPglePwWPj4ExREcSJtMngT6n8qtWamYBCKcSIHQ2rInBZjQAg5M6fj5UwB+OaSK/AZVa9suTQPc/hUHObVNwep+CFy7JYEOvKhwU6+WwUhDfuLcgNAl+1+E3VnJcvGplFhcvUssO00wbEPI6cPtQAV/cmfcNV6X5uWyZKsI56d9OnxDKoUAJk768y8io6eeFQu2vXZfBi5Zly5pWBoTk4hPlnn9nAIILDsxN0k4+5DUt+OUtcH4W4HMQZIZwvd07whKjohXs85LCgR8MxNUe+PTBGoR61SD4AYL3M8fTyjc3Qkn75JDghhgzrNEVBulwhvSYG2wNwrLGBwTrEUYb655xDQ8M69g5rokMfRN5CK0CbRgUEkibzepOBWf2K9jYq6KrnsjA8Syma/nd0QJufKIQyyeBNAlUqIjAp6OMa0sbEOhSKeERpbv2MzPQ91TRkhwWz5mrYnGHAQlU0InOu/OQJjQsQfBEZopPnJkry7xAY2BAKAcQYPsgyGgPvCaIYM2B+UbvBQlrM43rc+BjDiiBB+9G7Re1YBBF8ZBwTHTBS5Co2cRQKpmqaBCCNnzHcCKTJvn1US4kOPu0lQE+IBGkTdAMta2fJsFIpgQIH4RT+3BREwGCNW10fZSA6NisjrFZiBwItFd2ZyE2DEqeVMbemfyJGfNM4WNxTMPX9saLbujLAZcvM2o3dCa80GoAwmTBMBNs3h9cyZGet+SISUWr6FLG8sDhGR2kRQg6yETx2jWUlro87QH1/+CIhv/clsdgSDEpqo/x7ae2oauMhEwxl0ZDNCd4IxPD3RTF4Ny0LSdEp3nA/szwViwNZTSjFXx8DoIdGC2zgcN84SqgVJoh0bVhR2gOSjZ3rxZSAhDiOCdak84ahGppECQAQTSJyqxYCUgw+/DPyGgujchcCcZoxeGChFJNQtYBCAn3kIZ4SDX6IAkSto7qIvvj1oDsj37XSNkgL12awZUrkiVTIq3Ll3bl8bOh8EJK9Ez89Fk5bOpNZqOhCBTKivnH49EFm2TmkkZx/nwFb1yXxcL2ZGOyfocKeX1vf0FATFhRLwKEm56aq1ttlIzc0mhDrykfEoAwbgJCsO+BU8PgV4bZYIkAzYErXNETbpjEpCB2fsfa8YRDWrIKrNboPd/vb7MTBoSEK69eNAjSgJAUErznJcmVkECTQC87bz21BxeSBsHHLpZw2vi0FCQgMi6OavjirgIe9/H6D/rJXhMSLl8RPy0zaRAISuQAIYtNvcmyFVrhnXRtu2Nkk/S7Znqkn9yr4A1rMzi5l5xOk08GaTd+clDDdw9oGJ4JdxalrJ03npsLTAudfBSNfabQIPxhEPcMTNjboTussfiGXwIIno29onAga1JwbuyeZ2QsOAgAhEg4CDiPNQjV1CD4bew+96WUFqFks3d3FOiT4DwvqHaDQSrGUQFNAgHCdaf04KJlHQwIDfAcpqnfIvIkFLAjRp7BYy+GAAAgAElEQVQEMqtcaVaBpI1M9qgWIFjL+vFRDR/ekseRiCqNYeNf3w2hOTi9rzw4IO3JL4YK+NpeDRRtEXXQvfTls7NYVq1a3FEDqpPvCRA+9IeDuHtg3AYEOyxRrEVvWKPqb1pwmR+M8/y0DOY3xm/F0BxE+ht4NupQOPDb1ANewCIBIeA8BoRGAYQguAgIfTQehmEZGT0ZFr3tY9VvMB+9jigGZ5GnLHQGhDp5kMoOgx64lHHxa3sNSJCNbiCfhJetyOB5i+WjG6oJCBYkDExq+MpuTUQokHOpTMQqvQySpuTJ/SquXqlibRl1F2gcMwUdvzxC4wj2i/DO1+ouw8yS1N9Ddv4brZ0bEEzVP/kQyPgeiM3Rz+/A7MfP3OBTI8E3UiHQwdDhs+AUdlB7k3Fc8yLhd+ACmbBJZUAIlk7VTAxBm7xnaKFKRm+WxZK/S6+zLG1CXE2CI/2yMRIdFMVw3cnduJA1CA313CWfhPuPa7hxXwHbx+QhQUQ3ECQskYvcqDYgWJMwntdx7xENdx3WRF4LClcNOujNnUJVL1io4hkL5OEnqD8yK/zykIav79UwKqE5oH4Wtil40zoVz5hP5cUbaimlPtgSQLA0AV7tgQUDjrd+Q5gUueL0O0gJDgJ8DJwT6vu2n8ApURoOREP/BcUahGprEMqFBL80zH59BqVktm5Vv3wJQSYHaUgodVC0AeGUbly4lE0MqT8pK/wD9OAlSKACT7SJyh4UDXDF8gxetFSNfNutFSDQtdD1PTZKeQ7Cr29uG/Cx03NY1UkqZ1kp+LcjU8LPhzTctE9ec7C0Q8GVy1UBXWIj48MlgSIgTBRTLdsFmRzmBS8gOP52RTM4oxscUREuLYH5ubTmIC04CNngI00LIefSVwwIJiCMzGJO1e65oE3eM4BATUJCSLDZwFu/wQsNjuRHYkuw/o5IzWzmbi6GPJr5ECjM8a0ndzEgVG2BVfaHrLTM1++JBwmkjn/JMlXUbwgrFV1LQCBJkcPiF3bl8XBIMS4KffzMWTkQKJRzEBz85GABtxzQcdxTPCqo32UdCq5aoeI5C9Wy8k2UM+56P1cAwh+HcNeBcUcEgvFm7HU6FJumHcJoOMt4tQdOWDB8ECwoK2oZrBgG0YHQPphSot80PiyKzQ8OwswJntPt3/CbCB9gLPn9sAkMAU4ChKWZ2YtveGb/HbVaAzXHYTIxVBUQnJtuhNRjmRuC+vV58YtMrBQW4RDouOjIn2C10TRQmCMBwkWsQajVPVb279IDeNuYhi/tLODxGJoEgoS/igiBbBVAIJPGjw9quG1AExVCZfQxi9sV4e/w7IVy5pqyJ7pBOxBRDH8cEmGOYkN3aA/cgOAFBm8eBMN5UWxKpsmh+BbuDn10axOKcGDs7R44cG7CccHAGot3bkI2dinNQVC/jt9hQKiFBiEGIIimYY8SWW2C0ZHrSAQJkeYGR7lo0x9BRDEIQGjnKIYGfQDTsOkhvJVCIHcXsC1mCOSLlmZEkadun2KHrQAI5N/w40EjUdNoXm4RzM0Br1yVwUWLVLRzApFQoQUBgqih4Njs7agEoUHw8zMwgMGlQbDKPzr8FsLMCqXf+WgSvBDhpzEI28ArAQcMCHI3Yk00CLWCBA8oVAwSHBEMBtKY6ZjJjkVRDLYGQW5OuFV9SsBpbogT3UBgcNlyVVSBpOySzqPZAWFaA356sIBv7C1gMsQR0ikT0rwQHJAPR4Z9DiJvBgsQ7DwIQoNQal4QgCCiG8zIBY+zIgGFM6zRT3tQcTgI0qEHzXuV4ICEzhqEWmkQYgJCpCYhrD8/LUNQimZnP7bvgV/qZfOedZobbEhwmxpyMDQIFwoNQuS9zg3qXALCcXFYwzf3FrA9RggkZVy8YrmKFy7NuBL9NDMgkOaA8hx8fU8BUzKxlABIc3DNygxewHAgfSe4AMHyBygBhBDzgjArBPgrWBUWnU6Jtk9BWLVGCc2B3/MwARgYCoiYD1cJ8GRAqCUgVBMSgn4rqpaDJCQ4NQaGU2PR1JAjDcImBgTpp10DNLRCIL8ZM7qBiiK9dHkGL15WtKk3KyCcmNVFdsjv7CuEhlA6p5t8DsghkfJIZMpJz9gAa6iSQywBBDO8Mdj/wJsoSTUMCY76C2ZmhGIIoAkRYtwOCHFtzl5nxCB/gzhgIGEKSAMOWINgrtCamRisO0QyqsF5Q0W6OIX1GaJR8K/P4E6q5IYBT7ZFHy0CA0IlH4X105eVTIkg4bEYPglG7QYjuoH+3YyAMDKr40eDGm4ZKIiiTzLH8k4FV1DZ6cUq2hgOZERmt7GiGO6mVMvCSZH+Y5kSxM5v7utWBIO/NsHte+D2XwhySgx0SPSDg1qDgQRsOAXPGoRaaxDKgAShFJDxhZZ1ZLQ4wNmnU4MQEdlgj8UBCfSZMDFs6mQTQ6xHXmM0pgfzzjENX95dwMMnZPzyjevqygAvXKLiZSszYjOsRi2GIIlWOszxRF7HDwc0/HCwgOFZuXmkktEvW6ni/PnReSPkemytVjYgDE4aF+4EBK+/QcDfzlDHQO2BJ5yxRHvgE85YBAvPnCQ0JVi9xNYaxIQD1iDUiwahTEgoCxQCMjEGahJ8QxwNLUIpIBgjyyo6rtvIgNCsj2zCAoKE/94VDxKodsPzFmeEX8KNTxRSL9ZUDUCgPAc/HNRw64ECTuRLAod8h7CkXcGrVqs4f0EGcWpYNOt6SnJdcQHB1i6YsCCYQmgeyNRQmvPA2FstjYI5whKTQ6nPQSw4kPAJcAFJXEFJ9u/sljUI9aJBqBYk+P1OFCR4sy56YcDggCIkuPwWCBCA6zZ2sAYh7g3dQO1p+neYVSDjmBtIk/D8JSqOTgP3HpUp95y8mmPagEBOiD8ZLIBMLrLRCuST8ca1GVywKFNWRcgGWiqpDNUFCJH+B2ReMM0PJiCUpT0I8DuQhgPJjTuRxsBWN8R0YDTPY0CoN0CoJiiUgIHLY1GMxKUVEB9Q+KL1jTO1cpAWgQEhlSdiHXZKS+PREaPAEyVTIkdGmYMKE5LJnTbVsFPoEffps+oTECiU8WcHC/h6jFDGOVngtWszuJjhQGaZhLYxAOEQ7h6cEOYF+n+KGeponGj5HBhg4HVeNADBEeLoilwwIhysdAhWru2iGcJRy8AZ6WD8bPHwgkAdg4E1aAYEAQjj1c+kKHNLJHBe9HYb20fBqy1w5lcK8kdwfW5CheMzw8RAGoQ2DnOUmfcGbkMP6odGNGEyIE2CbBVImUuuV0Ags8LtQxpuIDiQDGUks8IrV6msOZCZeIk2BiAcxt2D4wZtBuU7sPwPPNEKFjAYZgRzVzdzJBThwPG5FVboyaNgv7B739xjwkFZ2oIytQZOcRuAMNPqqZbrFBCsN3aJG0SuSQgu+ICBVYPBfqvzhDz6+h3Y2gVL22D5ILQmIJDIxJu0AlAyvGSKPrnZrZdW9LB+eEQTiYHimBuixl+PgHB8hmoraPjuAXmzAjkkXr2C4IALL0XNuez3iQAhlnmhmHrZ1Ee4wh8NJYWnAoITCnycF73XVhEocIxDVnZh7RgQ6lmD4DdzFdAqCO7wU+Z6AcABKL6Q4JskyVA52KGQumViaMeFS3Jik2zmg+R0bAbYPaFj34QuvNinNV2AQVdGwcJ2YFWXgjVdivDkb9aD5LD1hI7/2VvAIzGiG8LkQTL8TzIx9FR2Ee2ZoGJNhdBiTTRvnz0rByplbR3HZ4FbBzSRJVE2fTJVg6Q8B+cvUNkhsYKLnxQ3H/7jEdx9kMIczS3cL2OiU4MQBQguJ0Sf2gzOTV8GDnw273qEAtYgeBZm3ZoYom6gMmFBChIcv+Gu7Fj0P7D70Uz9qg8gXLuxDRcuaV4TA0nj4JSOuw7rIsvg4Wkd4wUjxp/ebuiZRZrPjgxEquHlncCz5qt46jxV5AJoxkNEN4zq+MqeAh6qACQIQDgzg029pjd5hYRGMPdFGUA4M4d+s5oj5Tm4RcCBJqIVZA6qynjNShXPmE9VGWXO4DayEqB77MP3HcHdQxPmKQEplWUAwYpssADBDmow0zdb/gnODd+u4Gj9vNscIT71mBnKhgNJHwZZGfq1Yw1Co2kQgmY7ISyUQEKUFsHHzEBDcmoMbA2C+MIwMVy7oXkBYVbT8btjOr69T8OBKR2zWnR4m4AFFTijT8E1q1Ss7yZ1czm3cn2eS8tl17iOL+0uX5NQL4BAPgekOfj+gCYdrbCgDfib1Rk8a4EKKn9ejwdtsjOiRLvh59cm/PkaY1HKA4Ijg6KvBsGZXMnpnOiAAw8YJDEtJIaDKs8HA0KzAIL3iRMDGMqCBD8zgzPhUpMDwkwBuHWwgO/sl98svFNFNunXr1Fx9ly1KZ04aYlsNTUJFN2Q1HGxHgChPQP8YLAgYJAiF2QOCmV8/doMLlxYXxBIIDua10WCq/uPa9g1DpBmpAAFKnQsbFdwSq+Cs+cqOKlbEZqvejURugEhrOaCCQhmNUc7vNHc9OnKrTLP4iM7eiEcEFwYFRD2aK2V2HBQZShwrmkGhGYFhJjAEJpi2dQEGJqCYmply4nRdla0Mii2CCBQIZ5bDhhwkJcM6QvaUOhhfN06FU+ZW1+biMwGKNOGlgY5Lt6wT8Pjo/IhkM6+aw0IHz0ti/87qsWCA9IcvMos2VwvGiICg4FJHb8+puGOQzoOThtag6CDNAkbexRcvEjFk/sVLGiPvcXJLJGy2gQDgpli2Y5aCAAE29/AAAERCmlHMwT4HzhAwAYECcfEUOnVEAbYxBCwBBvWByHpLeXzNIjUItiaAvNHLRhwwoNu+SAYuRIss0NOAd4iTAy5pnlDJiD4+ZCRPXC2TDiwppE0Cf+wQcXGCtvYky6TSp9nhEDquGlfvIyLxTev2vkgzMkZPiM/P6QJvxKZg3wOXr5SxQULFSNLXx0cVBfivuMafjCoYWtMbQ5leTx3noIXLVFxal99abt8AcHUEvgWbPJqEIIAIa7/QVLtQZ2sD+8SZQ0CgBfXax6ENB8oUZAg44vgaaOHAILhg9A8gLBlVMdndhSwd6JCdGDO9VPnKfj7DVn01thxka5qRtNFoSFSpdNzsjMDdGcVEPAlPehBTuaGbzxRwIMj8WRXSw0Cvf2TX6EMDNI4KVKFohWeOV9Brk5UB+Q7cechHbcNasKhNp70izO+rlvBVctVPGNB/UCCBQh3DU2YZoHSokyGP4WpITBTKjvhwVV/wcdB0XU+icPWNDjuhhBA8NUc1CkYWFdEgLCs1fMgtCQgON78nQ/7ksyJznYixbJDg2B9Z2kXWgQQaMO8fndBvE2SujbsoEcS2W1JbjKZBSn08dp1lHq3Np5seU3HtnHgoWFdwM9w3nC6pIPeIEllTvboM+eoWN6VDBZIFnvHdVy/p4D7h+U3qloCQhwgohDWq1eqeOrc+olWoDm8+4gm0kAfmo5zNaVtaR7oGl+9WsW5dWISE3kQ7CgG0wfBR4Ng+BQ4ai5YiY4U8j4wsimKwwkIVgij4zs7IsEZveCX68ABACWAUOdwQGJgQGhVDUIVAEH8hKjmaEUxNIcGYduYjv/aUcCO8eB3MHqIntqr4LmLFCzrVMQmu22U3uA0HAx5QNPL5jlzFbx7Y0bkTajWQQ9Yyldw60ABdH3kX2GFaFpXacEOgQLlAzhnnoqXLFOxuD3+OJ2Q8KdhuXfZ1ABh3AxzrEAoJpkV/ma1Eb5Ktvt6Oahi5ce25rFvMjrCRmbMtE6fNEcRdSRWd8Wff5nfiNOmooBg5zSw0isb11cs1mRChg0S5khDAKERtQcMCOa8sgaheCsm0iCYsOE1MdiAQGGO65vDxEBb2Y8HjTexoPh32kBftUrFi5dlXD4Xuq5jJA/85/YC/nA8eFOkHAnv2pDByVXyRSDV83f3a/jBwfiRGPNywLUnZXDevGTOlZSk6Eu75MwNqQGCRB4Emc1qbpuh/Xn6PPMNVuakKrShlfbJbQXceThc3UX7W18GWNKhCLMSOS9OFYIHSOGalBHy8uW1r0JZNUDwMSGUOCj6OCo2ovaAAYEBoeTuD41mCDIxWIAgPBOt/xldCw1CEwECPThveKKAHwz4Ry4QHFAynJcsywS+QU4WdHx8qwEJfphAb+evWZ3BJYvTfQW1kjt9Z58m1M+yYXveRZOla16h4tKlqvBRiHPQcqHQxy/vLgjfhDBdQj0DAvllvH4t+RxkvPlw4ogjlbZD0zre/XA+0LmSpoxMBi9cqgjNR2/G8DkhTdfthzT86pCGIzOAH15QVsvrTspgfYWzW8YVROqAYJscPAmQJE0MDAhxZ7TYPt4TJfnvBJ7JGgQfDYK56Ru7fPGxTW/Brs8cf3uTJTUjIFCcOG1mvzzsv5U9pV8Rb9T0FhZ2kJPjhx/P4+hMaStyBrx8WUYkUErz5jgyo4PggDYBWc/8oGvqzgBXrlCFh3tcSKDf/m/y6RiKLvdcq0yKUY8d2lRP7au/8D8a96EZI1mV30GmAkrW9derVKGx8prFCRoptPNbT2gYnCrtg8wob16XwUWLauuwyIAQtUKTfc8+COyD4Fo5UfkQpAHBoIOm0yBQCmXazH59tPRhSW9ilmmBNAlhx8gs8Pmdedzr0w89dC9dmsFrVidT28s8CmhTthL+kL9BJY6lHUa2QEolHMd9ohkAoRLyq0Ufc3MQ/i5n9QfD6ERBx41PaKIolZ+WiTRdb1iTqWnKcAaEdFYPAwIDAgNCjHsrDBDozf8tFIEgkTGPNmXKB/C9A6WK22oAwvYx0mAUQOrnSh2Wg+XrV2ewIobjWs0BoYJOipWSZbX6ee4CBe/cmI3MT/K7Yxq+sMuoMeI9KInSe0/JYEFbmvqucIkwIKSzYhgQGBAYEGLcW8OmieFXPiYGKsDzt2sNdWvUGzQVciJHx9sGSgGB+iETwytWlqp8Yww1sClZhT67wwjTDMMDAhV6w+zMKCIlL1UvjEqT3J2FeJu8MIbKudaAsGPMqOZIZp9WO/5uvYpLFkdXjiKg/PdtBeyfLJXR/DbgY6dnQYm+anUwIKQjeQYEBgQGhBj3Fnl1f/2JAn40WGovJ/vt5ctUXL0iA9oow46j08DHt+VFHnzvQbn7X706gxcuScdJkXwP3nh/PrDQEMENhWhesVwVzmdkOqEwzS1jRrQDhUGGbaXPWagISJgn+UZZS0A4kddx8/4CfjioJ3bSjLF86qopbefvOyUjHBOjjsdHNfzH9gIOTJa2pKReBAiUQKlWBwNCOpJnQCBAuGd8eCSPOemIuJ57NVIiOw9fHwTDmUActg+C/Zn5nYhwMCMYrO+cPghNkkmR3r5/OFjAjfs0jPqU+aW3KApR3Ngb7LBGorzrcAGf2u4fCbGsA3jH+gzOmBP94E6yun56sIDP7gwOeXvaPBVvW6+i3ydl4qEpIwviPUf0wPoT5KD5z5vkPdtrBQjjeV2YeDYfCHeOTCLjRjnnrSepeMGScA0CrdfbhzR8bW8Bw7OlV0Zapo+dnsGqrnTWq4wsbUAYnBB11Y0MiUbhJXEnimyWziJOAVUdrWJNIu+BI2LBL4pBfG3e5+a/xVjt84zvHa2Kl9IASZJosFmVMym2LiAkSLec2EmxSQCBbppHT+j4/M4CdgekWab0uq9cpWJlZ6mJgDbD7WMaPrnd3yucHidnzlHwTydn0BczZFDmQUrzR2ByR0BMPGkvPnFGVqQK9jtos9gzruMrewr4c0AWRDJN/OOmjMgkKJNluBaAcGLWKNn83YHobJgycm3UNk+fp+Ldm8LzGBybMeb73iP+RbZWdSr44KkZLIqI3ElTRiWAIKDAAQjOAkxRmRT9EiW1apgjA0ILaxAYEBI9s8ir+8u7KPGM/1s0vUdR1bvnLVaxulsRdRUozfLxGQMuqFDOgE/IGA2GziVAoIQ7lMq40krbggb8wyP5QHv7RYsUvHN9NjSWn67lR4MFfCtAi0JjfvM6Fc9f4k4UFSTsagMCbXi3DGjC/0OmtkKiRdIgJ5Ep7E1rjeROfuGpBFI/G9IETJEPit9x/nzKhZAFFbSq1cGAkI7kWYPQyiYGBoTEd9WfhzV8ZmcBB6eCuyDV69puBf1tCmhjPjStgzIHTkaEFVI0xDPnq7hihSocvyoJCXkNeOuDeTEOv4PMI+RgGHU8MqLjc7uCi1VRuuHLlmekCjtVExCOTBtwQCF7UxJVGUn2PVmgg9TWUUKp0+8nzKJbfsOja1rUDhF5c958BaQNaFcVzOo6KD0zheHee0QLrN9A/ip/s0rFpSGJwaohFgaEdKTMgMCA4FpZqeVBaCITAwmMNrXbBgv42p7wSABqSw/huP7xBAnnzyeHRxVLKwgJBAhvfygfmDjn/23K4FkLogGBAINSRpPDot/x+jWlqaZrrUEgOPjegIY7DmmiSmXUQfNGhakoQ+TSGqrPo8YZ9T2lTKaolSBtCV0nFQmja1zUAfRmFIwVdAG/pOkKA9rlHQreJvxlagtQDAhRqyDZ9wwIDAhVA4QLFkfHWydbxrU5i0IVv77XeBuNCwAyI6ZkS0+dq+ANazOgULJKHPQg/ZfHCvhzQKnly5apoM096qCQwM/t1Hz9MMjvgMLnnrMgOtzTgi3KTvnzQ/42bmsstJF96owMNvXGf5cn57rvHtCEulwmMRT9Avlh0NvxX/RTyeYoidTv9xSBQiGKvz4WvUrpumn+aJ1EtaZ2z1+s4pUr1ZqaF0jyotzzn47ibstJkX0QKrIgGRAYEBgQyriVyB7/5d0afjykReYISPIz9MCmQkjv2aigTcbjL+JHyEnxK3s03Dro//inOhBfenK4gySd+bODGm7Yp4EyQnoPUsm/92QVp/fJpYombUyagEBAsHl/Ad8fCI688F4DAdlb16misqbtzZ5kAuvkHNL0fGBLIdCPIMkwV3cZ/gtU1bHWBwNCOjPAgMCAwIBQ5r1FKliqZ/DjgxqGpg3zg8wRx/Rw3jwFb1mnYn5b+arc3x/T8G+PB2s9XrhYxatXKejJlf4WXdrecR1f3avh/oAohtP7FLzjpAyWdcpIwZBXWoAwngduGShg8wF5OFjQBlzXRHBAs0Apkn86pOGmfXLmlaiZI5C8crmKv1pa2xoM1jgZEKJmLNn3DAgMCAwIye4d11mkxqWCOJQfgBIKkb2b8iTQ5xYvkEMXmQ0ofHFBO4Rtl2z5pIWIOggmnkHhkysNx8VylAlU3vkdDxUwEOBgSf4Pf7lIxQWLFCxtV0CZHekgpz4KcSSTyv8d08W1eQ+KzLxyuSJKAJNdW+ZICxCOzhh5Dn485D9W79hIxiu7FLxulYqnzHXEwctcRAO0OT6j47ZBXWTQPDEbbUIIuqQ5WeAvFyu4YkUGPZJznLZ4GBDSkTADAgMCA0IF7y3aNMmxizzAB6cBqv5IzmG0+ZAnPEU2LOtUsKaLohqA7+zX8MgJOUigvEWk8r56pYp1XckhgYJXbhmkxDfBCYIolwE56J3SC1trcXgGoOiFXSFQQ2rnN69VRZInWcVzpQGBeIsSOlGOg58NycnWckh8xUoF585NJ8V1BZdZ4q4ImqgS6S8O6RiYDM+I6QdQFOVwyWIFFy9Sa1qcyTs2BoTESyL0RAYEExCGWzGTok+Yo1F/0Ty8pZ3pY/Mz/4RJupFp0T6vWM3xug1taDYnxbA7i2RID628XqxfQBoEesO23v7pO8qLQPkEyOlPRpNAGoiz5yq4ZoUqQihlN2HvWKnoDiVresgn1bOzrTVm+oxAJ6wWA2kMLl2qiHTTcUo+VxoQDk4Z0Qq0EUaFlNJ1kQwppfTVKxRQue5cOeqZdJ7TFe11vKDjsROGtuv3x/XIiA6Sz9w2glMVz56v4LS++nPatADhrsEJKGbWREqUZPiPUFZFy5fE/DclUTI/t74Td5OdfdFcGeJ08xyrvfjKzJDozIjozLxozZhIsGStMsc0NkgmRboXlmVmLr7hmf13VHQRxugs6TMuxk+EN6VUywwIhoyiwhxp8xcA4YUHZ6plByCQpTun6HhriwGC7OIkSNg6quN/9mrivxLWBtDb/dn9CijXQNI8CfRA/dOwUbo6yNQgew3UjkCCxvTGtSqWxQwJrCQgUK6Jzfs13HVEl45WINB65UpFRCtUwhE0jtxq1ZbmnxxMn5jUxDogzRCtA4rMIVCl+STzAa0vStxF/1vdpYhohZo/sH2EJgMIdtrlgEyKTkCgnxA6sAhAMPo0jwBAMPDAIzUGBOmlX/P1xoBQnKsoQIibapkBIfo+oIfbvkkdH99WwJ6J6PbWhnxGn4K/26BioWRRJG/PtDHffUTDN57QcGxG7neDWp3UDbxzvYo13fKmBauvSgHC8Azw7f1GuKSso+jSDsMTn+AghczW5Qm1CmcTkJJZbLoAkfuA8kPQ31nylckRJBA0QYR51vxBHSIPBoR0FgtrENjE4FpZDAjp3GgyvQ5O6fjQ45SdsOjYGHXeKT0K/t8mFfPbk5kbaDOgt+3/3a+BEupElXP2joc2jk3dCt6+XsXyhOV+KwEItLERHPxgUM5UQ9dB0QqU0vpcEcoYJWn+vp4lwICQzuwwIDAgMCCkc28l6vWJCUphrOHxUfmwPNIk/O06VaiAk+TzoYcr+ULcNqjh8TFdVOyLAoUOFaI4z7PmK3jJMgVdpJNOeJQLCMMzOm4+oOG2g3KAQyMlzQGZQ87pb16HxITT0ZCnMSCkM20MCAwIDAjp3FuJeiWVLyW1IcfFh0bkVOXkk/XkOQpesUrFhm5F2I+THCfyOv50nPIGaNgxHuwNQar4p81T8NJlKsi0UK5TXzmAQM6WViijjJMniYZ8Dl69iuCg+UIZk8x7M5zDgJDOLDIgMCAwIKRzbyXulTa6neO6CIEkBzK/fAMlqn4FIh8+1W44pTc5JFC/lBny1sHgbE+UJ+F1q6laY3x/Az+hJAEEwpchM1rhdkmfA4IDks1VKxSc3S+XBjrxJNF+dQ0AACAASURBVPKJVZUAA0I64mZAYEBgQEjn3iqrV4IESrz0zX0aHhiWs6tTngQKQaO34409yfMkfGW3JvIkBB0UzkiA8LwaAsLQtC5qK/zqsHy0AsnkFStVnDWn/sL0ylosfLJdiyEszJGjGOIvFAYEBgQGhPj3TVXOoLei/VM6Pr+zgIdPyP0kmRdO7lFw7Ukq1nQlszXUOyDMb4dwqrzzsI6piNLZJDXLrEBQQ/4a5KHPR3NJgDUI6cwnAwIDAgNCOvdWxXql7HcfftxwIJQ9KNPi+05RsbA9PiTUMyD826kq7juu40cH5bQqJK9FbcA7Nxhw0AyFl2TXQCu1Y0BIZ7YZEBgQGBDSubcq2iulbP6P7RoeHJGPbljRAbx7UwZru+L5JNQrIJBAyRmTsj/KOiQuagfefhKZFThaoaILss46Y0BIZ0IYEBgQGBDSubcq3ivVePjqHsNxkarzyRwbeoDXr8ng1BiOi/UMCDLX7DQrvHENaQ44WkFWbo3ajgEhnZljQGBAYEBI596qeK9kYKDqj5RKmHLoy9jfhU9CL3DNygyoDDM5MkYdjQ4IdImbehW8coWKJ/dzEqSo+W6G7xkQ0plFBgQGBAaEdO6tVHq10jJvPqDhN0flNAmUt4A8+KkK5JPmRKcUbmRAsEIZqfDSk+ao7JCYyiqsv04ZENKZEwYEBgQGhHTurdR6JU0CmRtu2KvhN8fk7PGkSVjbBbxhTUaEQoYVLGxUQBBVGUUSJKO4ULkJnFKbQO644hJgQKi4SEWHDAgMCAwI6dxbqfZKkHB8Vsdndmj443G56AbaQJd3Av+wMSMyLgYdjQoIKzuBN6/NiIRRSbNJpjpp3HlqEmBASEe0DAgMCAwI6dxbVel1vKDjk9sNSJDx7KdBkWf/v5ycAYVC+mkSGhEQ6Jr+br2KMzmUsSrrrt5+hAEhnRlhQGBAqCIgZJDlsnkVv5MpBPJ/9mj4v6M6piSjG5a0A29ZZ4T/UUVG5/GV3QXcMhislah8qmVdpHemMs2ykGONl/QgK0hzQNfSx6GMFV9cDdIhA0I6E8WAwICQPiBAx3Ub2nDBYgKEdBZyq/c6NG1kF7z3qHzq4dVdwCtXqji7X0GbAxKu30OpliUAYXFlJpNqMXxlT3xAIO3Hph4Fr1pp+BxUZjStvpIa8/oNQDiGuw9OQBFqMQVQCRjNf9N/FVojxn/Fd9a/Xd+pxvcARKURcbrnXPrSetERfZqH4zNbiuZnJauzQV6UGBAYEBgQGvOZ6Jk3w3Hx+wM67jkiBwn0HF3XBVHgyQkJUoCwimoxVGZTTgIINPbTexW8fIUinC7Z56AJFnEZl8CAUIbwQk5lQGBAYEBI596qeq/FCoe6qFMgk0yJNto1BAnLVZw71yhiVO+AQMoOgoJrVigiARTXVqj6Uqu7H2RASGdKGBAYEBgQ0rm3Qnud0XQMzwJjBUOL2Z0B5rbJJTIK65ggYXhWx437dPxsSC66gTZccvL727Uqzpmr1DUgkKw29Ch43WoFJxMcsF2hBqu3/n6SASGdOWFAYEBgQEjn3irpdUrT8eAIRIniR07oGM3DdsrLKDp6sgpO61Xw3IUQJYm7ytCbz2rAf+3UcOcROUigwfZlgX/apOL3x/RoH4QamRhWdxq1FSjxU4OYccteXboOULTKwBRweAaYygPtGWBBO7CsQ0Fv1oDMVj4YENKZfQYEBgQGhHTuLdErBRWMzur40zBEBcKd49HFluitmHwDXrREwVPmKujLJbP1k5biv3fruIuiGyTKIluQQJtOWOVIEcVQA0BY0AZ86gwV89qSySPFaa541xTNcWwGeGxUF9EpW0YNoMw7eI80P3054JQeBecvUIRPRn8bWlKrwoBQ8SUoOmRAYEBgQEjn3gI9tHZN6PjxQeMhPyG5SVvD6coAz5qvCFBY051sUxyZBb47oOH2Q8YGU4mjVoCwqlPBF5/kicmsxAXVWR9jeeDPIxp+NgQ8MqqDtEFRB/mSECj85WKj4iWZq1pJq8CAELVCkn3PgMCAYK8c4+XE8YpCuk3xUfEz3fuZ+Td9Tv8n2tptqDcdWeh4awuGOW4b03HDPh0PjcSP77cmhawM9MB/zSoDEpIcR2Z03DYI3HFIw4kKQAIDQpJZkDvn8DTwkyENPx/SMZJgrubkgGfPV/CCJQpWdLYOJAQBgiu00RPmSIYZEQYZEOZohEG6wxyNsEl3mKP40+czVzsjqLJ4NIh9jAEBwKX3jA8P5zFH7hZuolaOjd+6KrHJ239UBhByZh6EC1soD8LBKR2f3qmLN0AfMcdaRPRgoSJLbztJwaL2+JBAs3hkBvjhIDkuahiPqcnwDpYBIdb0STcmkPvf/Tp+eVg+4ZVf5zQ/T5tLxbkULO+Iv16kB1xHDQkQPlThPAiygNDseRCWZ2YuvuGZ/XfUarprvoIZEBxMwIBQ9n1Atv/P7zIe9BLaYanfIxXy8xYpeOOa5EWIjs8Ctw2SNkED5R5IejAgJJVc8HmTBeB7Axp+MKiXDXD0Kx0qcMkiBdesJCfGmj9iKy8wT48MCOmImDQIDAisQSgqDRgQyr7TfndMx6d2lP+m7h3IvDbgbeuMUMSkBzkrbh7QsXm/5pzpWN0xIMQSV2Rj0vBQ5Mj1ezUMTkU2l27QkQHeeZKKZ8xPvl6kf6zGDRkQ0pkABgQ2MbhWFpsYyrvRpgo6Pr5dw33DEE6Kfgf5FVDeA8o9QG93Y3kdh6bpzVFxeal7z6XznjFPwWvXqGgr45lPHvLf2m/YueWDIIujaVZAsGRRhmgTLZ6jM8DX92r4ZUhIKs09AeI5/YooaU1j3TYGPDii4/BMsI/LSV3AJ85Q0R5W3zvRqOvrJAaEdOaDAYEBgQGhgvcW5Tf49M7gN0GKTHjqXOAly1Ss6qSQNAMKKE0yRRrcfUQHmQKCDqqZMCeLslMLz5phdAwIAKn3D07rODJthKVSXoFqHrvHdWw+oAs/Eb+D1szT5im4YpmCleR4aBIMbYr7JnV8b8CIkvHLnElc8K71Kp69oNrYU00JGjDOPgiVlzkDAgMCA0KF7it6SJF9/zsHdFComvcgU/BfLVHwylUKOnze6Aq6jjsO6fjmvnBIqNBwE3fTTBoECj2l2hU/PKjhwKQRw1Ptl21aN878Bs6JISCkqATyJQhyUCWg/PwuDb895o97lHTrg6dQvYrmhQQGhMS3c+iJDAgMCAwIFbq3yPGP6hhQ2WK/B/6mHuDv16tY3hn8oKZsi996Qsetg5VzcKzQ5dndkAPcX69SRX6GSmymssWaKp0HgX6XgIycAw9OV1pKlemP6mS8cY0aWa3y8VEd735U8y2XTfP1lb9QMS/HgBCnmiNHMRiJkthJkZ0U7acZ+yAkf7CP54HP7TJKLnvf5ejRfNVyBVcuV0Fv4EEHnffoCR0f36bhWIipIfkoyz+TUhWdOQd4zWoVJyVM4OQcRS0AQdN1/HQIuPmAJtIX1+NB8EXagzetVSPNHpRM6U1/1jA07a9F+OhpKs7sY0BgQIi30hkQWIPAGoR490xga8pUSPUPfu2j6iXzwrXrFFy4UI30HyBV93/u0LBlLImHQIUuJqIbup7T+xS8ZV35sfbVBgRSR/9kiEw5mq8pqDoSjP6VdhW4dImCV62KXjO0Ut72YAG7Jvz7ffeG5vZDYBND9HpK0oIBgQGBASHJneNzDvkdWBoE79fkhW4BQlRYOoW6fXanhodO1C8gWNd3cg/wgVNUUWgq6VFNQKCN5KdDOr66V8NUGbkgkl5rnPPI/4B8VsicE1W3a0bX8br7NVG/we/4u/UqLlqYfI7ijLsWbRkQ0pE6AwIDAgNChe4t2uj+Zy/l0Pf3Qbh0qYJXrlRFiGPYsWOMQiWpel/9AwJdxym9Ct6x3tAkJNmCqgUIlAPizsM6vr1fC40UqdByKLsbkiXlMHjLWhWUQjnsuH9Yx3u3BBPPezepOG9ektkp+zKq0gEDQjpiZkBgQGBAqNC9Rds5ZSqkDcgvimFZB/DO9arYUIMOcm786ZCG6/dEV32s0LAr0g2lgn7tagVru+I7LlYDECi99D2Hddw8QHb6ilxyVToh6HrNagXnzqUoBP+fPDQNfGanhj+P+AMl+TJ87kwVq7sYENgHId6yZUBgQGBAiHfPhLZ+dFTHZ3ZoOBCQEY/e4khlvLLTLPDi6M1yUPzSbg27A2zJPVmIN/UyNPrSV2vUcDDi84OSPlmd0XioqNTVKxRs7IkHCWkDAmkOfnlYw/cHgcEG0cpYciUoIPi6YrkiqjXmHMUsKeHV/kldpGcmzQjltvA7lnYAnz8zg/YIzZX0wqjDhqxBSGdSGBAYEBgQKnhvUVw9vc395pjuu6nSA/+MPkXYgyk+vb/N+PGRWR0PDAM/OqiDqkD6PetpE6ZMii9ZRoBQnbdBSsRD5aJ3j7vqfPpKjGzmZ/UZMfvrCRIk5ZomINDGQSYfugZZzUGXCpy/QCkrW6XkpYtmR2epvLMuEjb5HTTva7sVnD0HOLVPEYmyaJ3tGtdFxs4to+HFna5YpgotRDMfDAjpzC4DAgMCA0KF7637juv4xHYNYwEPfHpUz80BC9uBOTnDbk+AcGgGOD4TvBEvaDOy4p0xp3oPe3orpbBL0mrsm4wWFIXaWyGQa7rkfBLSAgQKZaRohe/sl0881Z1R8IY1ikhpnJElnGixhLagyp9UFpz8CMIOCo/ty1JsOkS+AzJjkekkTLvTlwP+43S16as6MiCUuQgDTmdAYEBgQKjwvZXXIDbUnx6KdjK0tvrolsDVy1Xxdh7l0V7hyxEb0J5JHR/ZKldMiGzep/UqeNcGBQskikakAQgWHHx1r38KYj8ZkfPo69eouHBhdWVMm/3thzR8Y5+OExXMfUFr66VLVbx2jRyoVXrdVLM/BoR0pM2AwIDAgJDCvTVW0PG+xwxzQbnRdAQET+lX8A8bFXRWInVhwuslSPj4VkOTIAM0FAL5no0qFraHb1CVBgQrQ+IN+zRQboqogzZSqr/wqpUKLlqkgkwl1T5Ic0QRMJRkKyjtcpwx0TVt6Fbw7o0qyAeh2Q8GhHRmmAGBASEWIEA37eO6uUWY/9XF5zroe/E/Ouif0JGDjus2tOHCxZmqONelc6vE75Xs91/YpeHxMYA2rSQHqZX/Yg5w3ToVfTVOlUuXsOWELjayHeOGmjvqIEj427VGxsUgtqkkIJDKndInf/eAXCZK2kjntwEvXabgkkUqqDBSrY7tYxD5GR4Z9fdfkR0X8Q1FzFDVTwLLamucZMdZyXYECB++/xjuGpyAIhaaAqgqFOGro0BUuFIIVI3P7X+bnxf/dnxHAxSnF881+jM/M/9rG/y83znalSBylXyIypUxAwIDAgNCuXdRwPm0f+6d0EXoI/klUFEdiT1V9EbPuIVtRhw85U9YKKGqT+kyXN3S2y0lcLppnybKDUdBAl3H6b0Q2QA39fhvVpUCBPL5uPOQJupYUOifzEFw8JKlBhxQhEgtDyuKhcJkHzkRXMApbIwEA6s7CXhUPH0+FQWr5RVV77dtQDg4UYQCP0BQTABwggMBg2ABAgEGBOesMSAwICQDBDrLoS1gDYL/w5Ae+sdmCBCA3x/Xhcf5iRC1N72NzGsz0hhTiV8Kcat2+eGoxzpBwoMjRr6HrWNyIZBn9AFXrzByQHjfaCsBCNOajp8eBG49qOGwJBxQ8iGqj3HxQhXdNYYDS+YCKsd1/Pywjt8cDS4B7TdHHRnDFHXJIkWsH0rV3CqHBQh3D1metAEaBC8gmNoEX0CwVAOsQbj4hmf231GrtVQ9l+yAK7yUizXZkokq1mSbGDyAYHyug0DB18SwPidMDK2g7vRbZrSp0sZFGoVt48DOceDQtC7C1egGIO95shWf1ANs7FawqguYl0Pdyouu57FR4Pq9GnaNRz86yDpyWp8i7Pwbe9w5IChS4it7dFEFM0wjQbkjvnhW6a5Hpo8fDEJUZSQtjcxBpgQK/aNiSLU0KwSNlXwntoxBQMIDI7pIoRykfaLxE3idP98IoV3UDukQUxlZNUIbks2H7z8OAxAcJgVLU2BpCWxAMDQF9v/8NAjlAoLDjMAmhuSriAEhuezKO9PyFXD0kiYgXNBiPgh+k0NvOtMaRB0AqsBHGy3dABRSR1YEegukN7+a3xQSK4s2850TECGdVD8i6iA4JJ+EN69VQWWMrcPQIOj4xeFwQFjRCXzJAwg0hu8PUJ4DXYT8yRwUrfDG1SrOX2DIul4PWit0TUdnIJxdyaRzcIpyIOgi6RFFiKzrhkigtLjDcLSsRgKtepQXAcKH7j+Ge4ZoIToBoQgCdhZF8kUwQcHlm+AwO9ilnoVqQcIHwelT4OOLwICQfNXU/FnYshoESwsQBQjOdpaTouczlwbB+s5yUlR0XLc+hwsWtZaTYvJborHOpKyR739cDhLoytZ1GQWeKBcEHUkBgeCA/A1u2i8fykhv269bTYWL6lc7Ezb7tBFamgTT/a6xFktKoyUtEjkpOgFBEVoDj4OitdkzIEjNBPsgtLIPAgOC1E3CjaIlsH3cKHW9ZzLaJ8GChL/foGJlh6FFiatBINPMLw7p2Hwg3KfDGjltpv22z4EiNDV8NI8EUgMEUxtA0Qu2BsKhVRD/tP62F5sn0sEyXzjFzVEM0ouPNQjSokqhocfM4GtiYA1CCoJvri7pbZ4872/cLxfdQFd/ai/w2tUq1nRSDgB5EwNlEKTaA7cMyjnx0QOGslC+eKmCixcpkdU0m2tmWuNqioBgeqjShl4JDQIDApZnZthJcTiPOa1xK3mustKAYMGEcFY08yCwiaEllpYVAvnt/Ya9PCoEUtSl6AUuX6bg3qPAnUeifRA+dbqK2w/puO2gfCgjwcEVyxQ8Z4FS81DGllgINbhIAoSP3H8Md1PBDduMEDcHghnmaDssFvMduDQIHh8D1iCkO+GsQUhXvuG9hzkqOr9zJEayvalLkiVphn3UimQwG2YVjX0QajnHVfxtgoSHSZNg5kmIyvtA0Q0U1UBOm1TBMqyuACX/ef5iReSVoAqTMgfVLnj1SgMO2KwgI7HGbBMICM68Bs6kSH4JlMT3qmFKsGwHfhqEMEDwc1ZkE0NZi4oBoSzxlXlymoAgYIE8qxkQypylhjqdIGHrKPD53RqekCjwRJoEeghEpRimFMiU+Ccsj4RTUAQHb1qj4rx59R2t0FCTW6eDNQCBwhynHBoE/wgGkTXR4aRYBIIAQBD+B1YiJdPpUQCEsXW5NAg+gOCbaJx9EKRXEgOCtKhSaJgAEMx935HvwHhP1HWPBoEBIYUJa4wu6YFNcPBhyQJPlb4qggMKp3z6vMaMVqi0PJq9PxsQKIWm/dYfAxBsrYCpQSjJgUDdmjGxMTUIDAjlrT4GhPLkV97ZFQQEMi0IRHCaHliDUN78NPjZZDb45HZDk5CwHEUsCVjRCn+9ykiCRKWR+Wh+CXgBwbcGg9M3watBSJgDgTUI6a8tBoT0ZRz8C+UAgqE2cAGBPyBQHoQs50Go5TzX6LdJt0QhkP+zx0jLHGVGKGeY9CBZ2G44JF6wsHXqEJQjs2Y51xcQvP4HdLFUn8GRG8FVtMn83E6SFBbBIMjAoRuIU6jJPLcRZM95EDgPQsk6Dc2maFVvtM5yaQv8NQg5Vce1J1GiJLVlM701wsMgrTFSNMOWUYiERo+NVqacsXesFhxcttSAg3pMn5yWfLlfQzv1kQeGcfehaf8Kjk4HRauio73JW34FjoqPwunA9DFw5kDwMy84N3z2Qaj4cmQNQsVFGqPDuOmWZQDBqVkQJgYdbzkpi4s41XKMiWmupqQ5cEJCVAhk3KunrIzXrFDw7AUMB3Fl1wztCRA+eP8w/u9wDEDwJj8i3YLtZ+BMsSzpoOjVDNhOjD5bHDspSi87BgRpUaXQUBYQPOYE31BHsy+vmUHVdbx6dRYvXp6p69z3KUiXu3RIgKCAzAxf3avh8bHKiaYvq4uES+e3UHnjykmvOXqiap7v+cNxPGaHuJjVHIPMCY76CoamwNIWOAqh2G0YELiaIydKsp8UodkUIzQI1EmpH4KO8+eruHZ9FnMo8J2PlpUA5TnYOwn8x3YdeyejsiREi6kvp+DNq4Hz5rFDYrS0mrfFnrEC3nPfcRynwh4B9Rdc/gZ+gGBrFEw5xQUE2RwIXk1DHU8L+yCwD0LJ8pQBBKFQsM60tBCa4aduBju6Eib1ZHS87/Q2nNbLgFDHz4OqDY0SHb1viyZgIelh5TmgMsetWkY8qeya6Tx6Dt2wbQybn5jErMi0ZfoSWJEK1obsNClYzor2Zu3vf0BQQW6N4rD8GBwbfFQOBNHUrzYrmxikl2DNdwyu5lg6VzYkBGRTjAsI1N/Z/QreuTGHuW2+t4z0guGGzSGBXRPAF3ZpIsohjk8CPTDmtwFXL1fw3IUKm62aYzkkugrybfnz0Wl8/vExHKAKXpb2QPgTFCs52toD+hWq0eDyPygCgCuCwdzEBSD4wIGx+RedGS2nRhsmzCtiQEg0tfZJDAjlya+8s318EIzN39QPxAEEM+SRzvVLuazAMDVctTKDFV0qP9jLm7mGP5te9sgn4YZ9mnBglAmBpIfF4nbgpRTKuEBBJ1dlbPh1kOQC6Pkykdfx8LEZ/O+eCWwZmYWmu9/0XYmNvJEIXkBIal5gQEgyfbHOYUCIJa4UGlciF4KgimJOBL98CIQNKnSc3KPgGQsyWN+jCJ+ErJXMpsQk7flAymQt0SiwicS5KYi/lbskKHhsFPjREDAwrYpwNR2Ekg4TlkNAvRkNF8/X8cwFQBcnQWqwpRPwqJfaAYxG9AzJa8DhqQIeGZ7Fbw5NY99EwazhUXzT9+Y6MPZxM7Oi9W97cy/DvMCAkPoalFoeaY6ipU0M1sbuEbCMH0JQ0SY7o6ITGszKjuJ+0nV0ZXQsbAN6cgoyigkWhtrB3BmKsCHG4kzIZGk4XO2tcy3thbMv89/WNQZoTWwRWP2muei4b1sCBAlDMyqG8wQGRTigfxtqYlo0qtDgtmt5rG7Ps/apUdaPjK3d1cahBRAPCyuCwPzDrNkxPK3h8IyGabJNObIgukwJ3twHfn/bJgnH7zjMCZH+B36A4LieQGOqjFzqYI7ZSbHVnRSTAILjHBckeCo+ujZ2y2Jhp2I2Nn27jQMm3OfZBgsHJOjQPZUkjfTOZk0IZ0lAD1g430vtPrw3IisS6uDRZA3BBATxp2Jm7eQJqqMJih6KbxoA74eOv532fsGG1nc+hZI8cGCsEh/fA2eCoyDzgsUgXkDwnFtEFfPSPeN1+iIwIEQvj6gWrEGIklDa38fNhSABCNTEjmYwoxsM5YDTt8EDCY7NnAo/OWs6lGoRwiFBDNECBT8/CiFT90YTCAxpy5/7Zwm0gASM+gjOw/O3N0uhDQbmluz93gkHogltx56IAx/fA6Mp2ac8zon0hfWb3ugFs39XBUfrM+d/Pf9mQCh/YTMglC/D8nqoBCBY0OD1QxCkYL7dx9EiWBoBJzRYG7oFHJbGwJPu2RCG/WOGtsF7ja6/+Y20vAXEZ7ME4kjAoy2wTjUBoKgxMMHAuznboOFxSgyDA0cftoYhDfOCDCA0iHmBLoVNDGxiKN08nVEM1sZv3cRe1b43H4Lne9tZ0f7c1CLYG7S/FsHP9GBs+15/BNOs4AsJPqDgvR6/v13POoaHOI9+bssSMCQQ5JDoa28wzrD8TbznO1T4RS2EJBw44cLUONiVHs3viloHd64DO7zRAyiuq/NoNcwLsRdBI4c4MiCY08hOiqWboMtJ0bmJ+qjrfZ0VA9IuF1/srbd6CV8E6/ftLI7mL4ZpEko2fg9IWOzg57AY5cTIewBLgCUgLwG/N2YPDBSb+GgXLM2CU3Pg2JhdZgUaFeU58PoiOGHAY5oIzH1ggYEHEOwR+sGB85wGT5LEgMCAYEggysSQBBDMc0pyIpgbc6QvguN8e4x+5oYAJ8QSJ8YAYPC4IZgaCvlnH7dkCbAEoiVQ4n9Q3GWLJztBwg8KrJZOjYLTrOAHB47NvWhaMPChmCzJ7NjsVwTNOMwPttOhNSbnODxA4EqWxIAQvTAkWrAPgoSQUm0SBxACYMFOjGQN1Ny4De8Dhw+Ar6mh6LhYYkKwIh2s33VFSjgdHp2gU9SI+IJCABQ5/RZSlTd3zhJoNQkYKQdLr9qrXSgBA8d53ugGH58Do3WAo6K9mTvgwOreo5EwhusNufQYDCLMC66xOK+cfRBirX4GhFjiSqFxgEq9bDODuRGHahE8vgjiFK+fQQgk2O0DwMUOfQx1UjRlyqaFFBYXd8kSMCUQZGpwCKjEx8Bnoy4xKQRpFGyNgHOjN/7tKuts/YaIeIipPfADCef1yEBRHS8QdlJkJ0VjecbRIgSEDfpqEZyQ4HVwtMIe/SCBwhw9m35J+mdPf4HfGx25bkPfkEYGhDp+VPHQGl4CPoAQGvroeUMvAQPHxi7+GaZR8Pgv2H4Hng3eDpSU1R6EAEKjOyjSpTEgMCDEBwQvUNjOg+YjrAQEDB2CCyCsc1xt3SYDkQvBAwnGVu9nsjCdEJ0gEAAyfkl8OQdCw28/fAENIIFSIDC2dvvw8UNw1UP03bhLTQGiP1dCJPN3XLkS3GaERNoDBoTUVx2bGFIXscQPyGgQfDZr5wZeEs1gtXdGNHj78Eue5GgTCgmR43FoDSJNDBzOKLFKuAlLoEwJRPghOAAhUGPg2JR9zQ1Gfma3o6EJIb6mBbM/V1ijz8ZfEr3gbOP9dxM4KNIlsQaBNQjGDR/XD8F7jpQWIdhhUXzjNDU4IUFGY+CjtXA+yQJrS7gaMSSU+fTn01kCwRIIcs7zg4KgzdeOJIjQGrjO92RMtHZ6ScdE0ZXzqpI6J/pARL0vFwYEBoTiGpXRIgSp7R2f++ZFMDf8sKgG0cQJA55/+5konHATWmDKey8ltQAAE6JJREFUdSdaBaHcCGH8Ph8sAZZAGhIw3QPdXftFN/iaGTw+BlYvkX4KxfoNSfwO7J/x/l4QwJjtGj3FsnW5DAgMCKGAYG/aVqswVb1Xi2BCgUs7ISISwjQJPpBg9ePM8OgHKi5IiWNeMC+OnRTT2Be4T5aAIQEJDYJfu0SmBr86Cwk0B2LYMeHAOEcipLMB1gUDAgNCPEBwbNb2iV71vvdNnL73bOiJIMH8bSlNQRAsBIGO82ZlUGiARxcPsWEkEBb37xfZEOm06IYNdwIkx5budUh0Qor5nW9WRJfJwyHlAM2GVHKkMECq44lkQGBAqBwgeOAhzNRgaCYifBJKNnNPYqSgmhERDokl+R0YDur4EcVDaxoJBIBCydt2QPIkr3bBylrgeMV3aSpcNRZk4cCzkUdqD3w2/mYxL9ClMSAwIEQCgrGZe6zzQZuwny+CExxKchcEQIJJECW5DcRoJUEhSFsQoSEIBYimeVrzhbAEqiOBwA3T+vkwICjZsP1CIks/qygceODCJbUoDYizcQNlULSGzYDAgOB+SiSJZvBoDpzmBBdWBEQalGgSXEDhgRPX+Pz9DKRhJuz5yGaG6uwe/CvNLQGZTTEiw2KwhsE/f4LLGbFczYFXQxBkZjBnMRSGZGRRZ6uBAYEBQQoQYmkRPMAQCglmWxsS/LQNTqVBqCYjQsvhpwnx3pAMBnX2iOLhNIUEIjZHOae+gIRKriyKDml5NnM7S6KfRiCu34EXHKIAoQHhgC6JAYEBITkgeDUHSTUJYZDg0SY4Bxue28AnYDFk82ezQlNsQ3wRDSCBeG/ZnmiAwJwJwWAg9nIrrsBPAyADB2GahCg4CICJBpgqBgSapEvvGR8ezmNOI0xYVcYYdyMNyo2QQJNgKQt8fQ9cv+PhmqAUy3azkAwHrDWoyrLiH2EJCAmEvk1Hhwe6AMPZ3Gfz99Ua+GkQgpIhWVPWYqYF67JZg8CAUPrUKgcQIrQKMuYGAxI87/ShEFK8hEBNQOA1cWok3rZYAtWVQEh2felIh3CNgUtrEPT2n0RzEAA48bQi1ZV2Ob/GgMCAEAsQrM275KSI0MJIx0UvWNhJl5KBgjU+Dmks5/HA57IEUpaALBAYO777CMy4GJB1sVzNQRI4iNSYpCzfMrtnQGBA8F9CcbUIEZoD8SNRIZABkGBBia/2wSYBP5+DgEvjhMplPjb4dJZA5SQQ/vYdAgWezdeuxmidEuFvUMIcMcItnaNqVu0BXSMDAgNCbECwNmzfEyuhSYgABeP3zSMIZAI/r9yDjXtiCbAEKiSBIKtDRHpmO3tyUPZFJ0R4+vItwOQHFx4QkYaDkPMqJLXUu2FAYEBIBAhlQYIHAGJpBmzTg3PYAYYEGedDmTap34b8AyyBFpRAVOifRBIi30yH3o05DhgEbeoSY/GdwahrrPNpZ0BgQAheohKbp7RToF9fQSYHrwbB7++Az7Qo84HENdX5PcvDYwk0nwRCNtIS00HQW77f5p4SHIif8ivI5J0ZBoSy12qIS2vZfUt1wGGOAWKS3EylIUFi4y/xJIgyWbgUCf4RCSUREVKrwmwkKYM4XXJblkDTSyDhxugKS/QTUkTWRfuUMDCQ1RKEQovEtpVQBvW0NliDwBqE8PUosUHGjhSQ2PQjQcEaddj4JMYumKW00kQ93aM8FpZA00ggUBsgCwNh2gOfjd93G49yRgwCCPO3pTQHEX00yoQyIDAglA0I1iYb2FGEecE+z9MuMENBXMdECS1Do9ywPE6WQNNKIOqNO8Jh0SkXKTCQ1SQ4Om4lOKDLZkBgQIh+3sR4E48FCYIsousnGAAScESNLer76KvnFiwBlkC1JZAUFnzSJYihy2gNWHNQMssMCAwI0bd+zE02tsnBDxSsUYXmY4geegmASJzCTVgCLIEaSyAKEIJAwBp2DG2DL0B4Lr/VNAfW5TMgMCDIPwligEJk8aMkZoKI3y8raXKMa5MXGLdkCbAEXBKQ2PiDJBbpFhjWd1xgMAchDQYR2odGXQUMCAwI8dZujI00MSSEaRQkNAveCyoLHOJJh1uzBFgCZUogEgS8/ScBA4kNPRYcSPRXplhqcjoDAgNCvIUXAxDsvbzc3ASyvynbLuSKGSbiLQduzRKQlUDsjd+vY1kNRFS7ckMY40CKrIDqsB0DAgNC/GWZYCOO1CbIaA1k2yTQMsQXAp/BEmAJpCqBqE0+7iYt0V9srUGTag4s0TIgMCAku8fTgoQ4EJBgDIEXW8m+kkmUz2IJNL8EJDZpaSHI9iXZjuGgVPIECIv1mYtvem7/HdLzUuGGFdE8lTOmS+8dPzY8i7nl9NGS5ybcVKW0CU6BJvmdJOe05CTyRbME6lgCkpt7yRXEOC8RGFCa5ZrvXOnPmwAEFC646Tm9v0r/1/x/oeZivvTe8cPDs1hQKwE0/O+WuRnHBgZLYGX+bsPLnS+AJdDKEogBAU4xJQMCRw8Jf7cRp6o9o2DO7NSzvnvRvHtrNf7aA8I9YweG88qyWgmgKX63Qpt1YljwCrFC42mKueGLYAk0qgQqtBmXDQWW/Co0nkaZjp6cCpw4fs5PXrjsvlqNufaAcNfItmEtu6FWAmiq363gxlwxWAgTcAXH21TzyBfDEkhTAlXYaCsGBSSHKow3TXEn7bu/TcWegcGTH7pq3dakfZR7Xs0B4cV3jfz2uJY9r9wL4fMdEkhp460KNPBEsgRYAg0lgYrCgPPKWxQMLBH05xRsP3RwzZbL1+2t1YKoOSC86M6jPx5VOl7AMfApLYGUYMEaLUNDSvPG3bIE6lQCqQFBC2sL/Ka6T5nF3oGReQ+/YvXxWi2FmgPCs340cH1nb//rJguMCKkugpRBQWbsDBMyUuI2LIHqSiDVDV/mUlpcU+AnItqYu7Xpye5jc3tvvkopyIgxjTY1B4Szbt71LysXL/7giXwal8d9SkmgDuBBapzciCXAEmhsCTAMSM0fhThicmzrnc9fdLLUCSk1qj0gfGfnZcsXLfjeGLIpXSJ3G1sCDAyxRcYnsARYAh4JMAwkXhK9OQVDh47cet/lq16auJMKnFhzQDjle7tWL+vu2aO39yDPG1MFpjTFLnh+UhQud80SaEAJMASkMmk9SgH7jhz614evXP/BVH5AstOaAwKN89zbDgwumDd3ydgs+yFIzlvjNmPIaNy545E3nwR4g6+7OSXrQnZmEodGxi586Ko1v6zlAOsCEM75/r7vze/vu2yCzQy1XAv82ywBlgBLgCVQYwn0ZBUcPXp0Qp3Fgt9etXKylsOpC0B4yvf3XNvb2fU5tbMHsxprEWq5IPi3WQIsAZYAS6A2EqANuUOfxdGRE7ffd9mqS2oziuKv1gUgnPXdPU/uacv9sqd3Tv+kXhdDqvW88O+zBFgCLAGWQItJoF0FpifGMDY58Xf3X77207W+/LrYjU+/bdfiTj379b6u7uehrQOzWq3Fwr/PEmAJsARYAiyB6kmANuN2FHDixIljk5OTFz348g0PVO/X/X+pLgBh/U+2t/dOtL2pp6P9P9u7utUZqLWWC/8+S4AlwBJgCbAEqiaBNhUoTE1gZHz8Fr0w+6YHrtpwuGo/HvBDdQEINLYnfXvH07O57Ffn9c/ZlM+0Ic+uCLVeG/z7LAGWAEuAJVAFCdBGnEMBk6OjhfHpmdf3L1xz413PVWqePrBuAOG0zfvmZTH7gf6urrfkWItQhSXJP8ESYAmwBFgC9SCBnAIos5M4MjL2m7yivfmRK9Y9VA/jqhtAEFqEm3e/GAo+vbh/zprZTDtrEephhfAYWAIsAZYASyA1CdAm3IkCjo+MTE5NzX40e6Ljk39607KJ1H4wRsd1BQhn3zSwIJ+d/kRHLnvN/Ln9beOaCrY0xJhNbsoSYAmwBFgCDSWBDhWYmRjTj49N/EHRtLf++eqT/lgvF1BXgEBCOes7uy7RM8oX+zs71nX39mG8ZnWs6mWKeBwsAZYAS4Al0IwSaFcVKDOTOHxidLhQwCcmeld/cscLlOl6uda6A4Snbd7XOa4WPqDq+tvn9Xa3tXX2YIJLQdfLeuFxsARYAiwBlkAFJJBVFJEU6dDxEW1WK9yjqvrfPHD5ur0V6LpiXdQdINCVnbb50SVZdP0ik1HPmN/bA7R3YpohoWKTzh2xBFgCLAGWQO0kQPUWehQNQ8ePYzqfH9UL6sseftnqn0FR6sqqXpeAQNN2xre2nJ3Jdfw2l83k5vf1YTbbxmmYa7ee+ZdZAiwBlgBLoAISoE23N6Pj6PAIJmZmoGj46J9ftvafKtB1xbuoW0CgKz1z8863K4r6kc5crmtObw9m1RxHNlR8CXCHLAGWAEuAJVANCYiIBVXD+NgoRqdmCpqm355bt+bSPz1Fma3G78f9jboGBPJHmMDsv0NRX9PVlu3u7e5BIZMDV4WOO83cniXAEmAJsARqKQEyK1Aq5amJCYxMTGm6rv1Wh/qqh65as7uW4wr77boGBBr4qZt3rsqpmQ9B16/ozOU6e7u7obS1Y4p9Eup1TfG4WAIsAZYAS8AhgawCtOl5TExO4MTklK5r+KMGvPvhK9fcC0Wp2+pDdQ8IeL+uPvnUHSdrSvZ9AF7clsm093Z1oqOrGxN5HXUrWb49WAIsAZYAS6DlJdCZpUQHUxidmMD49IwOHQ9A0d433q3dvuMFG+ompNFvouofEGjU79fVM0/dvUGB+mFAu1RV1VxPRzv6enowiQzyWl05frb8DcECYAmwBFgCrS4B2ly7M8A0aQ0mJjFTKOiKrj+sKOo/Hh/Tf7XnNWun6l1GjQEIJEVdV9bfvGNBl579jKLi5aI0ZjaLub090HJtmC6Asy7W+2rj8bEEWAIsgRaQQJuqoAN5DI+OkdYAmq5D0bFFK+A1mzJr7rv5KqUhUgA2DiCYi+o57/9V9vjJaz6IjH4doHRTjYv+rg70dPeAUjOTyYH1CS1wB/IlsgRYAiyBOpIAbaaKQlEKOgozUzg2Oo7ZgtiRZhRd+Z2O7DUPXrXyQB0NOXIoDQcI1hWdtXn3ywC8RwdOoYRUWVXFvJ4uZNraMaOr0BUFZHlgWIhcA9yAJcASYAmwBBJKgKITqGpQBhoyhTxOjE9gfGYWCpSCrusDioJv94/hfXc1gEnBK4KGBYQrN+uZbereM6Hrb4SuvxBQlkOBmsuo6O3sRCabAzIZQM2AAh446CHh6ufTWAIsAZYAS8AlAdIU5BQFiq5B1/LQ87OYnJoWYCAOHSM6lF8rwPUj4/pPG8HfwG+KGxYQrIs5+6atC/LZtgsB5UpAfx4UdNN3pFHoaMshm80im8lCFf/LQFMUkZGR/Rr5jmcJsARYAiwBGQnQRplVFVC4ol4ooCD+N4tCvoDp2RnM5AuWtroAXf8TFHWzomR+8OfLV+ys5zDGqGtveECgC7xy8+bMVpy7SoF+rqLgGh24CEAXfScmNpNBNqNCUVTx71w2i0wmA5UqaSkqFFU15aSwSSJqxfD3LAGWAEugSSVAO4AC+v86dJ1s1Bq0ggZN0zBbyGM2XxD/Nv4uCOdDQ2Egto6HFU2/QVGUOzuR3frbq1ZONrqYmgIQrEkgs8PW7NB8ZXbqNCj6qwH9RVCUBc5JUhQFZDOiRSA8SkzHEqMNA0KjL2geP0uAJcASSCoB1w5g+bDphAsUSEeaZ69Xm0IQ8BsN+FpW1f5vzgllqBF9DYLk1VSA4L3Ic7+xZf5UV/sLFV15JYALoCCTdOHweSwBlgBLgCXAEhCvkjq26MDNUNXNDz6yagveX7/ZEMuZsaYGBKdgnnrj0b6p3Imnaap+jgrlDF3DeiiYoyjIAkoGuq4KewQfLAGWAEuAJdDqEiBdQUEBCtCVcQX6PijKo4pSuH9KUX6z5fJ1e1tBQK27Jb5fV087dX8/pqfnZXLZvow2265nFMsZoRXmnq+RJcASYAmwBLwSULM6eSDmkRkrzE4Mq+360UevOm2mFQXVuoDQirPN18wSYAmwBFgCLAFJCTAgSAqKm7EEWAIsAZYAS6CVJMCA0EqzzdfKEmAJsARYAiwBSQkwIEgKipuxBFgCLAGWAEuglSTAgNBKs83XyhJgCbAEWAIsAUkJMCBICoqbsQRYAiwBlgBLoJUkwIDQSrPN18oSYAmwBFgCLAFJCTAgSAqKm7EEWAIsAZYAS6CVJMCA0EqzzdfKEmAJsARYAiwBSQkwIEgKipuxBFgCLAGWAEuglSTAgNBKs83XyhJgCbAEWAIsAUkJMCBICoqbsQRYAiwBlgBLoJUkwIDQSrPN18oSYAmwBFgCLAFJCTAgSAqKm7EEWAIsAZYAS6CVJMCA0EqzzdfKEmAJsARYAiwBSQkwIEgKipuxBFgCLAGWAEuglSTAgNBKs83XyhJgCbAEWAIsAUkJMCBICoqbsQRYAiwBlgBLoJUkwIDQSrPN18oSYAmwBFgCLAFJCTAgSAqKm7EEWAIsAZYAS6CVJMCA0EqzzdfKEmAJsARYAiwBSQkwIEgKipuxBFgCLAGWAEuglSTAgNBKs83XyhJgCbAEWAIsAUkJMCBICoqbsQRYAiwBlgBLoJUkwIDQSrPN18oSYAmwBFgCLAFJCTAgSAqKm7EEWAIsAZYAS6CVJMCA0EqzzdfKEmAJsARYAiwBSQkwIEgKipuxBFgCLAGWAEuglSTAgNBKs83XyhJgCbAEWAIsAUkJMCBICoqbsQRYAiwBlgBLoJUk8P8BpP6livbw0qIAAAAASUVORK5CYII=;" parent="1" vertex="1">
          <mxGeometry x="290" y="440" width="50" height="50" as="geometry" />
        </mxCell>
        <object placeholders="1" c4Name="Docker containers" c4Type="SystemScopeBoundary" c4Application="Software System" label="&lt;font style=&quot;font-size: 16px&quot;&gt;&lt;b&gt;&lt;div style=&quot;text-align: left&quot;&gt;%c4Name%&lt;/div&gt;&lt;/b&gt;&lt;/font&gt;&lt;div style=&quot;text-align: left&quot;&gt;[%c4Application%]&lt;/div&gt;" id="Xf5m1xSMGF0W4rr0xWPQ-5">
          <mxCell style="rounded=1;fontSize=11;whiteSpace=wrap;html=1;dashed=1;arcSize=20;fillColor=none;strokeColor=#666666;fontColor=#333333;labelBackgroundColor=none;align=left;verticalAlign=bottom;labelBorderColor=none;spacingTop=0;spacing=10;dashPattern=8 4;metaEdit=1;rotatable=0;perimeter=rectanglePerimeter;noLabel=0;labelPadding=0;allowArrows=0;connectable=0;expand=0;recursiveResize=0;editable=1;pointerEvents=0;absoluteArcSize=1;points=[[0.25,0,0],[0.5,0,0],[0.75,0,0],[1,0.25,0],[1,0.5,0],[1,0.75,0],[0.75,1,0],[0.5,1,0],[0.25,1,0],[0,0.75,0],[0,0.5,0],[0,0.25,0]];" parent="1" vertex="1">
            <mxGeometry x="260" y="370" width="300" height="254" as="geometry" />
          </mxCell>
        </object>
        <mxCell id="Xf5m1xSMGF0W4rr0xWPQ-27" style="edgeStyle=none;rounded=0;orthogonalLoop=1;jettySize=auto;html=1;entryX=0;entryY=0;entryDx=0;entryDy=0;" parent="1" source="Xf5m1xSMGF0W4rr0xWPQ-1" target="Xf5m1xSMGF0W4rr0xWPQ-4" edge="1">
          <mxGeometry relative="1" as="geometry" />
        </mxCell>
        <mxCell id="Xf5m1xSMGF0W4rr0xWPQ-1" value="" style="sketch=0;aspect=fixed;html=1;points=[];align=center;image;fontSize=12;image=img/lib/mscae/Docker.svg;" parent="1" vertex="1">
          <mxGeometry x="240" y="350" width="50" height="41" as="geometry" />
        </mxCell>
        <mxCell id="Xf5m1xSMGF0W4rr0xWPQ-17" style="rounded=0;orthogonalLoop=1;jettySize=auto;html=1;" parent="1" source="Xf5m1xSMGF0W4rr0xWPQ-6" target="Xf5m1xSMGF0W4rr0xWPQ-14" edge="1">
          <mxGeometry relative="1" as="geometry" />
        </mxCell>
        <mxCell id="Xf5m1xSMGF0W4rr0xWPQ-19" style="edgeStyle=none;rounded=0;orthogonalLoop=1;jettySize=auto;html=1;" parent="1" source="Xf5m1xSMGF0W4rr0xWPQ-6" target="Xf5m1xSMGF0W4rr0xWPQ-13" edge="1">
          <mxGeometry relative="1" as="geometry" />
        </mxCell>
        <mxCell id="Xf5m1xSMGF0W4rr0xWPQ-6" value="Actor" style="shape=umlActor;verticalLabelPosition=bottom;verticalAlign=top;html=1;outlineConnect=0;strokeWidth=2;" parent="1" vertex="1">
          <mxGeometry x="510" y="82" width="40" height="68" as="geometry" />
        </mxCell>
        <object placeholders="1" c4Name="Server / RPI" c4Type="SystemScopeBoundary" c4Application="Software System" label="&lt;font style=&quot;font-size: 16px&quot;&gt;&lt;b&gt;&lt;div style=&quot;text-align: left&quot;&gt;%c4Name%&lt;/div&gt;&lt;/b&gt;&lt;/font&gt;&lt;div style=&quot;text-align: left&quot;&gt;[%c4Application%]&lt;/div&gt;" id="Xf5m1xSMGF0W4rr0xWPQ-7">
          <mxCell style="rounded=1;fontSize=11;whiteSpace=wrap;html=1;dashed=1;arcSize=20;fillColor=none;strokeColor=#666666;fontColor=#333333;labelBackgroundColor=none;align=left;verticalAlign=bottom;labelBorderColor=none;spacingTop=0;spacing=10;dashPattern=8 4;metaEdit=1;rotatable=0;perimeter=rectanglePerimeter;noLabel=0;labelPadding=0;allowArrows=0;connectable=0;expand=0;recursiveResize=0;editable=1;pointerEvents=0;absoluteArcSize=1;points=[[0.25,0,0],[0.5,0,0],[0.75,0,0],[1,0.25,0],[1,0.5,0],[1,0.75,0],[0.75,1,0],[0.5,1,0],[0.25,1,0],[0,0.75,0],[0,0.5,0],[0,0.25,0]];" parent="1" vertex="1">
            <mxGeometry x="170" y="290" width="440" height="400" as="geometry" />
          </mxCell>
        </object>
        <mxCell id="Xf5m1xSMGF0W4rr0xWPQ-26" style="edgeStyle=none;rounded=0;orthogonalLoop=1;jettySize=auto;html=1;" parent="1" source="Xf5m1xSMGF0W4rr0xWPQ-3" target="Xf5m1xSMGF0W4rr0xWPQ-1" edge="1">
          <mxGeometry relative="1" as="geometry" />
        </mxCell>
        <mxCell id="Xf5m1xSMGF0W4rr0xWPQ-3" value="" style="points=[];aspect=fixed;html=1;align=center;shadow=0;dashed=0;image;image=img/lib/allied_telesis/computer_and_terminals/Server_Desktop.svg;" parent="1" vertex="1">
          <mxGeometry x="150" y="260" width="42.599999999999994" height="54" as="geometry" />
        </mxCell>
        <mxCell id="Xf5m1xSMGF0W4rr0xWPQ-20" style="edgeStyle=none;rounded=0;orthogonalLoop=1;jettySize=auto;html=1;" parent="1" source="Xf5m1xSMGF0W4rr0xWPQ-13" target="Xf5m1xSMGF0W4rr0xWPQ-16" edge="1">
          <mxGeometry relative="1" as="geometry" />
        </mxCell>
        <mxCell id="Xf5m1xSMGF0W4rr0xWPQ-13" value="" style="fontColor=#0066CC;verticalAlign=top;verticalLabelPosition=bottom;labelPosition=center;align=center;html=1;outlineConnect=0;fillColor=#CCCCCC;strokeColor=#6881B3;gradientColor=none;gradientDirection=north;strokeWidth=2;shape=mxgraph.networks.pc;" parent="1" vertex="1">
          <mxGeometry x="300" y="150" width="100" height="70" as="geometry" />
        </mxCell>
        <mxCell id="Xf5m1xSMGF0W4rr0xWPQ-18" style="edgeStyle=none;rounded=0;orthogonalLoop=1;jettySize=auto;html=1;dashed=1;" parent="1" source="Xf5m1xSMGF0W4rr0xWPQ-14" target="Xf5m1xSMGF0W4rr0xWPQ-16" edge="1">
          <mxGeometry relative="1" as="geometry" />
        </mxCell>
        <mxCell id="Xf5m1xSMGF0W4rr0xWPQ-14" value="" style="sketch=0;pointerEvents=1;shadow=0;dashed=0;html=1;strokeColor=none;fillColor=#505050;labelPosition=center;verticalLabelPosition=bottom;verticalAlign=top;outlineConnect=0;align=center;shape=mxgraph.office.devices.cell_phone_android_standalone;" parent="1" vertex="1">
          <mxGeometry x="340" y="-10" width="40" height="62" as="geometry" />
        </mxCell>
        <mxCell id="Xf5m1xSMGF0W4rr0xWPQ-21" style="edgeStyle=none;rounded=0;orthogonalLoop=1;jettySize=auto;html=1;entryX=0.55;entryY=0.95;entryDx=0;entryDy=0;entryPerimeter=0;" parent="1" source="Xf5m1xSMGF0W4rr0xWPQ-16" target="Xf5m1xSMGF0W4rr0xWPQ-2" edge="1">
          <mxGeometry relative="1" as="geometry" />
        </mxCell>
        <mxCell id="Xf5m1xSMGF0W4rr0xWPQ-22" style="edgeStyle=none;rounded=0;orthogonalLoop=1;jettySize=auto;html=1;" parent="1" source="Xf5m1xSMGF0W4rr0xWPQ-16" target="Xf5m1xSMGF0W4rr0xWPQ-3" edge="1">
          <mxGeometry relative="1" as="geometry" />
        </mxCell>
        <mxCell id="Xf5m1xSMGF0W4rr0xWPQ-16" value="" style="image;html=1;image=img/lib/clip_art/networking/Wireless_Router_128x128.png;strokeWidth=2;" parent="1" vertex="1">
          <mxGeometry x="131.3" y="52" width="80" height="80" as="geometry" />
        </mxCell>
        <mxCell id="Xf5m1xSMGF0W4rr0xWPQ-25" style="edgeStyle=none;rounded=0;orthogonalLoop=1;jettySize=auto;html=1;startArrow=classic;startFill=1;" parent="1" source="Xf5m1xSMGF0W4rr0xWPQ-23" target="Xf5m1xSMGF0W4rr0xWPQ-4" edge="1">
          <mxGeometry relative="1" as="geometry" />
        </mxCell>
        <mxCell id="Xf5m1xSMGF0W4rr0xWPQ-23" value="AA&amp;nbsp;&lt;br&gt;Application" style="rounded=1;whiteSpace=wrap;html=1;absoluteArcSize=1;arcSize=14;strokeWidth=2;" parent="1" vertex="1">
          <mxGeometry x="430" y="415" width="100" height="100" as="geometry" />
        </mxCell>
      </root>
    </mxGraphModel>
  </diagram>
  <diagram id="vZtE06ttJa8jd8aQ_Q_d" name="v2">
    <mxGraphModel dx="1003" dy="1070" grid="1" gridSize="10" guides="1" tooltips="1" connect="1" arrows="1" fold="1" page="1" pageScale="1" pageWidth="850" pageHeight="1100" math="0" shadow="0">
      <root>
        <mxCell id="0" />
        <mxCell id="1" parent="0" />
        <mxCell id="Blm7-tKkqha4oM_iVl1n-1" value="Home Assistant" style="shape=image;verticalLabelPosition=bottom;labelBackgroundColor=default;verticalAlign=top;aspect=fixed;imageAspect=0;image=data:image/png,iVBORw0KGgoAAAANSUhEUgAAAggAAAIICAYAAAAL/BZjAAAAAXNSR0IArs4c6QAAIABJREFUeF7svQe8JGWZ7/+rzidMznnOBIYwhIEhg+6u4cq67hrJGb1rWONdUNl1L7v/6wrqFUwYEUGCAkpQGDJcFQwYSMPkmRMnhxP7dK7/53mrqru6uqqrOlVVdz/lR2bmnErv732r3m897xMk8MYKsAKsACvACrACrIBBAYkVYQVYAVaAFWAFWAFWwKgAAwKPCVaAFWAFWAFWgBUoUYABgQcFK8AKsAKsACvACjAg8BhgBVgBVoAVYAVYAXsF2IJgrxHvwQqwAqwAK8AKtJ0CDAht1+XcYFaAFWAFWAFWwF4BBgR7jXgPVoAVYAVYAVag7RRgQGi7LucGswKsACvACrAC9gowINhrxHuwAqwAK8AKsAJtpwADQtt1OTeYFWAFWAFWgBWwV4ABwV4j3oMVYAVYAVaAFWg7BRgQ2q7LucGsACvACrACrIC9AgwI9hrxHqwAK8AKsAKsQNspwIDQdl3ODWYFWAFWgBVgBewVYECw14j3YAVYAVaAFWAF2k4BBoS263JuMCvACrACrAArYK8AA4K9RrwHK8AKsAKsACvQdgowILRdl3ODWQFWgBVgBVgBewUYEOw14j1YAVaAFWAFWIG2U4ABoe26nBvMCrACrAArwArYK8CAYK8R78EKsAKsACvACrSdAgwIbdfl3GBWgBVgBVgBVsBeAQYEe414D1aAFWAFWAFWoO0UYEBouy7nBrMCrAArwAqwAvYKMCDYa8R7sAKsACvACrACbacAA0LbdTk3mBVgBVgBVoAVsFeAAcFeI96DFWAFWAFWgBVoOwUYENquy7nBrAArwAqwAqyAvQIMCPYa8R6sACvACrACrEDbKcCA0HZdzg1mBVgBVoAVYAXsFWBAsNeI92AFWAFWgBVgBdpOgfYCBFmWPv0GZkSBk7ISjpdkrJIlLJJkzJaATgARAIG2GwXcYFaAFWAFWAFIgCzLSMsSErKEI5CxV5KwMwC8kQb+0v86Bu8/X8q2i1QtCwg3PCeHRuZiaiiHGcEgTsjJeIcEnA0ZayAh1C4dzO1kBVgBVoAVqIsCsiRhd1bGHwE8BwkvhGMY2t2HkR//LZKAJNflKj46ScsBwse3ydEpaazOZnFSLoC3BIC/A7C4nGWAkJE3VoAVYAVYAVagoIAEqcwMKQGjsoTf54DHAlm8lApg883HSYdbScGWAYQPbJQjKwJYDxl/J8l4uwycDKBL31kEAln6f05GLpcTf6ef5RgQWmlMc1tYAVaAFahZAQkSApKEQED5f1CSEAwExM+K5xVkJQlbZRnPSRKezITwwv9dIx2s+QZ8cIKmBwRZlqVrN+G4kIyLZQlvh4wTAIQ1bWnyT2WzSGWySGdzyORyyBEgqHAggyABYBuCD0Yj3wIrwAqwAj5QQJsYJQIECZCkAIIqJIQCAURCQYRDQdDfDZNoLyT8OhfAvSPj+PX310txHzSn6ltoakD4+O/lqbFunB+Q8CHIWAtJOBqKyT6dzWIylUYinc1DAVkLGASqHit8ICvACrACba+AAg1kTZAQDQXREQkhFgqBfq5uaQD9MvCQJOMbN62V+ptVtKYFhOtfk+dlg/gyZLxPBjoJ8qgTyFowNplCIp1WlxCatWv4vlkBVoAVYAX8rICYdCQJ0WAAUzqi6AgXgUIKwGvI4RM3HS+96Od2WN1b0wHCDbIcGn8dxwYDuA/AGmExkBUwGE+kMJFKiX/zxgqwAqwAK8AKuKkAWRSmxqKIRUJ5XwUZmATwqfRU/OTmJRL9vWm2pgKEz/5JnibH8G4pgK9DxjRaMsjkZMSTKYwlUsJiwBsrwAqwAqwAK+CVArTU0BkOoTsWEb4KqlOjLAHfDkbx5S+uxCCk5giJbBpA+NdX5LlSEFdLEq6VgJnkZEg+BuPJNJLpDPsWePU08HVZAVaAFWAFShQIBQPojkbQFQmD/g5KvpTDg6EA/jtyH9644QYp53fZmgIQCA4CIXxEAj4KYC5FIpDFYCKZFg6IvLECrAArwAqwAn5TgKwHsXAIUzsiwpERtNwg4zHk8J83HY/X/W5J8D0gqMsKH5YkfIbggMIVj8QTSGaynL/Ab08D3w8rwAqwAqxAiQKRYABTO6LoikbIm578EH4lpXDdjeukXj/L5WtAIIfE+EZcAglfAzCTlhI0OPCzqHxvrAArwAqwAqyAXgHKmUCWhCmxKEFCEsDdHTPw8RsW+jdXgq8B4TMvy+vCETxHDomJdAaHJiZFsiPeWAFWgBVgBViBZlOAcidM74iiOxoVaZxzMj7/lbXSjX5th28B4dqN8vwA8DyFMiYyGRyZUJYVeGMFWAFWgBVgBZpVAbIkTO+MCudFSZLSyOE9HT/HBj86LfoSED6+TZ7amcK3AVyq+RxMpjPNOh74vlkBVoAVYAVYgbwCFNUwoyOGzkgIUkDaChnvvek4aaPfJPIdINxwgxyYfD+ugYSbszm563B8UkQr8MYKsAKsACvACrSKAuS4OLOrg6IbMjngrmAOn7nxBOmIn9rnO0D47Cb5eOTwQ1mWTx2eTEijibSouMgbK8AKsAKsACvQSgpQ6OPsKR1U9GmPLOGzXz4Gd/kp9NFXgHDDRjkyCfwnZHxiIpXuJKdELsXcSo8Dt4UVYAVYAVZAr8CUaIQsCdlAABuyWXzqK8dLO/yikK8A4bOvyWchiG+kM7lT9o1NIJNly4FfBgrfByvACrACrED9FaBkSrO6yB8hPCwHcO2Xj8Ftkk9SMfsGED6+TY52pHEdZHzh8PhkeIz9Duo/EvmMrAArwAqwAr5TgPwR5kzppJTMD+Uy+MxXT5R2+eEmfQMI178hr83I8ncS6ew5B8cTnELZD6OD74EVYAVYAVag4QqQFYGSKE3viByWIF3dcSx+eYPkfa0GXwACZUycfAMXZnPydw/HE10UtcCLCw0fk3wBVoAVYAVYAZ8oQKWiaakhEgzemkrj325ZJw17fWu+AIRPb5RnhmTcnEinLz8cT3K2RK9HBV+fFWAFWAFWwFUFqEz09BilYo7sygakt998nLTd1RswuZhfAGFVMCc/PzyZXERVGtl64PWw4OuzAqwAK8AKuK1ALBzErM6ObCQUuPym46R73L6+8Xq+AIRrX5MvyMjZew6MTQZSXGvB6zHB12cFWAFWgBXwQAGqzzC7qwOd0fDdXzlOutSDWyi6pC8A4bo35O+PT6Y+dHAi4bUefH1WgBVgBVgBVsAzBbqjYczsiu3/6trAPM9uQr2w94Agy9K1G+XXDo5PHjeR4noLXg8Ivj4rwAqwAqyAdwqEAhLmT+2CjMAJN58gvebdnYDKUnu7ff4P8qxER27vvtGJUCbH3gfe9gZfnRVgBVgBVsBrBeZ0x9ARinz8qydI3/LyXjwHhOs2ym+Jp9JP7x+b9FIHvjYrwAqwAqwAK+ALBWiZYfaUjju+fKx0pZc35DkgXPuG/Mkj44lbRhMpL3Xga7MCrAArwAqwAr5QIBwMYPH07j/fdJy03ssb8gMgfGvv8MTHkpmslzrwtVkBVoAVYAVYAV8oQBPzohndo187PjjNyxvyAyD8ou/Q2Hu4pLOXw4CvzQqwAqwAK+AnBeZO6ZQ7AqEpXz1RmvDqvjwHhE+9lvnN0JGJc7wSgK/LCrACrAArwAr4TYEZHVF0y9GlXztNGvDq3jwHhI/8KfnawXhirVcC8HVZAVaAFWAFWAG/KSAcFSMdR31lnbTNq3vzHBCu+WO8fzSRXuKVAHxdVoAVYAVYAVbAbwrEQkFM6Yisu3Vd5GWv7s1zQLj8d+P7J9PZOV4JwNdlBVgBVoAVYAX8pkA4ICEcDJ1zx5mdL3h1b34AhEOT6exMrwTg67ICrAArwAqwAn5TIBiQEJKlv73r3CnPe3VvngPCJS+MDaeyOU9DObwSn6/LCrACrAArwAqYKRCUJATl3FvvftP0Z7xSyHtAeHFsOJVhQPBqAPB1WQFWgBVgBfynAAFCBLm33Xnu9Ke9ujsGBK+U5+uyAn5XQK6yNgrVrOWNFWAFalKAAQHAJWxBqGkQ8cGsQE0KVAsB1V6U4aFa5fi4NlOAAYEBoc2GPDfXcwXcBgK7BjMw2CnEv29TBRgQAFzMFoQ2Hf7c7IYq4DcQqLSxDA6VKsb7t5gCBAjRdvdBYEBosVHNzfFWgWYHA6N6DArejie+umcKMCCwBcGzwccXbiEFXIYC7XKuz92uX7CFxgg3pekUYEBgQGi6Qcs37DMFGgAH9TplQ+bzhpzUZ33Kt8MKAGBAYEDgB4EVqE6BOs3idTqN4zbUbX6v24kc3zrvyAq4qgADAgOCqwOOL9YiCtQ4q9d4eN1ErMscX5eT1K1JfCJWoG4KMCAwINRtMPGJ2kCBKmb2Kg5RhawySVK+G6pLllTVfF/VQW0wXriJTa0AAwIDQlMPYL55FxWocKavcHcAtQJBOS0qh4Wq5vyqDnKxD/lSrEAFCjAgMCBUMFx417ZUoMKZvrLdGwkFtQNDVfN9VQe15cjiRvtcAQYEBgSfD1G+PU8VqGy2h7PdK4ACZycslaiiSdreulDR6ehuKj7A017mi7MCpgowIDAg8KPBCpgrUOHkbL+7AzCwP0l1veVowi4PCo5Ood1dRTtX1yQ+ihVotAIMCAwIjR5jfP5mVMDhRC2mfNt5v8wOZa5je1oHuppO+baTt41FQQLsbQ5sRXDQPbyLzxVgQFABIZnJTfN5X/HtsQLuKOAQDgQblJ3FKwODsATM7whgTiyISBDIyTLiGRl74zkcSuWQq4IYJDsYKPt7awywO21RR1W0sztdzFdhBZwoQIAQ41oMY8MMCE6GC+/T8go4hIOqwMDyIBlzYwGcMzeKE2aEMDsWQDggCfiYzOawJ57DSwdT+O3+FFJZB5TgYEK2BAfTY+sACg7uqeXHFjew6RRgQGALQtMNWr7hBilQMxxYTN4m55XVn9HUu6Q7iPctjWHdrAi6QlKJ+Z4sByOpHF44kMS9OyYx6QQS9BKVmZxNQcFyf3NQcDz3O96xQf3Lp2UFKlSAAYEBocIhw7u3pAKNgIMyYKBpuLAzgEtXdGD9rAhCgfIr+2kZeHb3JH6yIy6WHqy3MuexmKSdgwJDQkuOf26UqQIMCAwI/Gi0uwI1wYHJRG1xPs1qoMk9JxrA5as6cOacKGzYIN9DyayMJ3cn8EBvHGNEDI42C2AwwEI9lh0cGQkc7eSoYbwTK9BQBRgQGBAaOsD45D5XwAU4MIIBORfMiREcdOLMOREEKpwwJzIynhqaxC8HJnEkmTMNorB2TjSBBSegUIFvgm1zbHfw+Zjh22sbBRgQGBDaZrBzQw0KNBgOzMCApudFXUFc1NOB06uAA60Fo+kcnhpK4LGBSRxO5cp2rTksVAEKDAn8CLWZAgwIDAhtNuS5uUIBB3Bgvov9kkIRGOhOQlPy8u4gPrC8A6dVsKxg1WMECc8MTeLBvkmMpctAgsnEXgoNBmDQHVOyr0NQcGQocLQTj1lWwBsFGBAYELwZeXxV7xTwCA6WqXBwyuwIIk6dDmxUGs/k8NzuBO7dMYFJM8dFo6Gg7HKCNSTQbRSBAkOCd+OXr+yaAgwIDAiuDTa+kA8UaBAcWFkNlBbLWNIZxEUrOnFyHeFAU5McF5/fM4k7to4jnpVRGiip7qmf/52CQrn9GBJ8MKD5FhqpAAMCA0Ijxxef208KuAEHRcsXynIERStcuboLp9dhWcFKzrQs46nBOO7aNiEgQb+VAIOFVaHssoPVkgNDgp9GON9LnRVgQABw4YtjwylOtVznocWn85UCDuCAwgFKPQzK+xxYWw4KcHDZqi6cPbfyaIVK9YtncnhyMI4He+MisZJs/PoXJ9TRgQkoiB8VHaffv/D3SpcblPPatIj9ESrtct6/wQoQIHS0e6plBoQGjzI+vbcKOICDSh0SzSIUlEYWgGJBRwCXruzCGTVEK1QqHDkrEiQ82h/HYX0IZAksWICCpXOiun9FSw6lRGDLALY7VKoI788KVK8AAwJbEKofPXyk/xXwCA6WdQVw/vJOnDE35jgJUr3EHE1l8dTgJB7pm8AwhUAaJ109BJhZFLyGhBIrRr2U4fOwApUpwIBAgPACLzFUNmx47+ZQwHTNoOjWzcs1Wy8ryEXrENr59fvLWN4dwvk9HTh1dtQ2fXKjdCRLwtNDcfxs+zho6UH4IeQ/6A1/V2+ieB/dUoPYvcjDUT2XZlXQ/d50LcEYHWG/2qBczm5NolHq8XlZAUWBYICXGBgQ+GloPQXqZTnQncfc30AHB7KMpd1BXNjTiVNmRxEJejvBERg8PxTHHVvGigo8lfgPOLQoFDsxli45lPdLqGK5gS0JrfdcNlmLhAVByr3tznOnP+3VrXv7FmELglf9ztdtlAIuw4EGDgs7gyCHxFNn2xdealTTjedN52Q8OxjH7VtG1AJPZRwNzUBB29102YEhwa1+5Ot4owADAgOCNyOPr9oYBVyGA2oEAQLVVrhyVRfOnOe+z4GdkAkq8NQ/jvt2jIOyLyqbCShoEKD+mV9WYEiwk5h/36IKMCAwILTo0G7DZrkMB5rlgODgilVdOGseVWX03CBo2vHjFN0wMI5Hdk3gCIVA5vcygIIBEhSU0PkslFgSqgmDrGK5wae6tuFT1lZNZkBgQGirAd+yjfUADmiaW9QZxCUrO3H6XP/CgbByAKDohif7J/Bo37gIgTTLd5D3IzCzJhT5KSr/KPgduLDcwJDQso+vXxvGgMCA4NexyfflVAFX4KDwzU2WA5oOlcJLGhw4vVlv9xtN5fD04AR+sXMM9PcSIFCXHsTPHVoTXIUEhUq8FZGv3jYKMCAwILTNYG/JhnoEB1R46XwRrVC/wktu9c8EVYEcnMA920aF42IpJKgLC0ZA0PsmGPwSGBLc6j2+jpsKMCCogJDMyNPcFJ6vxQrUrIADOKCyziZZDYovXTaUsdRysLgzgItXdOKUOc0HB1rDyXHx+aEJ3L5pRA2BLLUYFHwPin+nLi4U/Bw1cDCmaK6ofkOhS5QUCA6sBE72qXmQ8QnaWQEChE4py2GODAjt/Bg0YdsdwEFJOmSzZjrMc5B3SIwGcNVRnTijgYWX3OqNdC6HpwbiuGMzQYJ61ZJlBanUwtAQS0Jpq0uLR5kow5Dg1nBpy+swILAFoS0HflM32kM4uGxVB87xcbRCpf0aT+fwxMAEHtw5hmG942IRKPgYEhgQKu1y3r8CBRgQGBAqGC68q+cKeAQHCzsCuHhlJ85yoSqj2xpTCOTj/eP4Ve8EDieypc6JYhLWRS2Ui3AoWW6oNLqhCksCQ4LbQ6ZtrseAwIDQNoO96RvqARzQ9La0K4ALeqjwUuNLNnvVR1oI5MO7xjCcMnFczE/CBmsCLzd41WV8XRcUYEBgQHBhmPElalbAFTgodUjsoVBGUXjJP+mTa9bS4gRjqayIbrhXjW4QKZL01oIqIIEupZzDBUuCcrFGycPnbUMFGBAYENpw2DdZkz2AA1KILAcXUbTCrIjnhZfc6jHySXhu9wTu3Fyo3WCePIktCW71CV/HOwUYEBgQvBt9fGV7BVyBA7oNxXqQL7zUEcClqzpxWhtYDoydQAWenhkYx22bRkDhkCWWhPyXunNIYEuC/VDnPfynAAMCA4L/RiXfkaKAR3AwJyqptRVa1+fAbogpBZ7G8LNtY2qBJ6tIBueQUH0ypdK75RBIux7k39dDAQYEBoR6jCM+R70V8BAOLl/VhbPntS8caF05ns7iiX4q8DSOI0kq8NRkkMD+CPV+KtvufAwIDAhtN+h932AP4EApvBRQCi/NYTjQxghFNxAkiBDIJGVTsgp39KklgSHB94+7n2+QAQHABS+MDXMmRT8P0za6NwdwUGn65KL98+dXIxbUf/d0B3B+kxVecmtUECQ8PTCBB3aMYjSt+iRofgi6KAclNXMhWqFoSUFXuyEfZ2AS3VCSZtlmgue0zG6Ngva8TohTLTMgtOfQ92GrHcBB7emTrUMZ1zdh4SW3epGWG54djOOuLcOIi7TM5pYEp5Cg8EWeGpRmVFm7ofhcZRRha4Jbw6VlrkMWhK52r8XAFoSWGc/N2xAP4IDEosJLtKzAcGA/dJJZJbrh9s3Dau0GhgR71XiPZlaAAYGXGJp5/LbGvbsCByRVcSjj3KiEq4/qwuktUHjJrYFAIZBP9dcXEgoWAE6m5FY/8nWcKcCAwIDgbKTwXo1RwCM40EIZOVqh8m6NZ3LCcfEXO0ZFWmaKbshP8kW1GJz5JLi+3MBLDZV3epsewYDAgNCmQ98HzfYIDqjw0iUrOnEWhzJWPQgoLbNS4Gkch9UQSIaEquXkA32qAAMCA4JPh2aL35YHcKAVXqL0yRzKWPv4Ugo8jeMhtcATOy7WrimfwV8KMCAwIPhrRLbD3bgCB9bRCu2YPrlRw2oslcPTg+O4e8sIEjlhQyhZbqDohEqiG9gnoVG9xeetVAEGBAaESscM71+LAh7AAd3ucirZvKIT69uo8FIt3VTJseST8NzgBO7YzCGQlejG+/pfAQYEBgT/j9JWuUNX4IDEKi28dNnKTpw2p/VLNns1VER0A4VAbuIQSK/6gK9bfwUYEBgQ6j+q+IylCngEBxStcNVRXTiT0yc3fFRSngQq8HTvtkLGxfxyQRUZF7UbVhIqcQhkwzuQL1CiAAMCAwI/Fo1WwEM4oMJL53C0QqN7OH/+8TSFQI7hYV2BJyMk5Cd8B2mZ88eKK7gACRwC6dpYaYYLMSAwIDTDOG3ee7SBA7EY4AAgtH1K9tfVVtD/bklnABev7MQZbDlwfeyMpnN4vG/MNAQyn17ZxHFRcWZUQUBXu0H5ke536r+LLQzqv5xM8PlzWUjj5Byuq8oX9EIBBgQVEBIZeZoXHcDXbGEFHEz8tddWEIQhRKRz0byyrDuAC3sIDqII5CsDtbDOPmyaCIEcGMcDO8byBZ7oNgM0+Va53MC1G3zY0S1+SwQI3VyLYWyYAaHFR7rbzXMFDkpDGZd3B3BBjxKtEA643Wi+nl6BiXQOzw5N4M4tI0UFnmqBBMV4wD4JPNLcUYABgS0I7oy0drqKB3BA8tKywiUrOnAKV2X0zWgTBZ4GJ0SBJ30VyFoggS0Jvunelr8RBgQGhJYf5K420BU4KF5WoH9RtMLVq3lZwdW+dngxJQRyAj8yVIFsKkhQTBcOW8y7tYoCDAgMCK0ylr1vh4dwcMWqTpw9N6KscfPmOwWUAk8T+PnO4gJPekioZ3RDYSnC2cResEo4lI7HmUOhmns3BgQGhOYewX65e4/gYGGHhItXMBz4ZRiUu48xim7oH8cvDQWe/AIJRVBRjaDVQIOD50bcSjXnrqYNfEyRAgwIDAj8SNSqgIOXXCOiFZZ2UbRCB0cr1Np/Lh4/msrhiYFxPLxrDEdS5GSqWHwatdxQqSWhZkhwUUvLSzFM1K0XGBAYEOo2mNryRK7AgXm0wvnLO8CFl5pv1JEl4emBCdy9dQSTugJPfoIETdWKlx6apTsYIhz1FAMCA4KjgcI7mSjgARzQXVDhJbIcnMKFl5p2WJJPwvND8bpGNxS+/nV+KLqJsGiyr2CCbFlIKFBQ046jRt84AwIDQqPHWGue3xU4IOmKCy8t6JBAhZdOn82Fl5p9YKVlGU/1NzgEUqGGvFTVQkLLWxQYFkwfJwYEBoRmf8+6f/8ewYEovLSqE2fO5QyJ7nd6Y66YzCrRDfdsG8FYRszm4kK1LDc0ypLQGAWqP2tDLRsVWFiqb4H/j2RAAHD+C5xJ0f9D1Sd36AAOqG5CwWvA4r515ylyYNTVVhBHqv8mOOBQRp+MgTrfBhV4ouiGh3XRDQITdGmZaTIU1RjsCjzlMy1qloP6LjfUuel1O11RcG89J/d6nqturXXvRCFOtcyA4N5wa/IrOYCDekYraHCwmAov9XTgTM5z0OQDyPr2qXbDhv4J/KpvHIeS5Lmolm1yCxI0IGlBhetiaWhTUCALwpR2r8XAFoQWfCvUu0kewEG+8NLyDpzOhZfq3aO+O59S4GkCD+wsLvAkJjh1gjKzJJQsKeSrQhvLQzuwJmiqtPCEWDMwtLA2xoeCAYGXGHz3ovTdDbkCB7pFCfV6ovDS8g6s59oKvhsSjbohWm6gAk93bBnBZFZM/eJSziFBPaYekNDCVoUCVFXZk20CCQwIDAhVPiFtcphHcEDLCpdy4aU2GWTFzVQKPI3jR5uLq0DWDAn5Cd+QjtsqysGofotOilVbFFpUD323MyAwILTlS9hRo12BA7oT1XqgXm+2WnjpTF5WcNRNrbgTFXii6AaqAqlPpuQcEjQTgqKOeXij+ZJDzV/XbnZIHSfpqkChjtd3Uzan12JAYEBwOlbaaz8P4eBKLrzUXmPNorVagacHDAWe9JBAvgnif7rohsIEbwEJRZOatTVBu62qJk4verBOk3XF7a3Tdb2QzO6aDAgMCHZjpP1+7xEcUBKkS1d04iyOVmi/MWfRYq3A0yOGAk/VQkKRdcAKFMpMeJVMno4ieirs6UquX0uBp4quk1+6qbAxTbA7AwIDQhMMUxdv0SM4WMaFl1zs5Oa6FBV4UvIkFBd4cg4JYgZT1xoMSw4lMGBvUfCberaTeZVf+LbnNQpR5XX8pqf+fhgQGBD8PD7dvTdX4MA8WuHC5R04ldMnu9vfTXQ1siQ8RQWetmnRDcqkX7S0oC036L9odeGRRkgosiaYfgUbYMFvelVj6ahiEq8IFKo4v99kZUAw9AjnQfDzEHXp3jyCA7IcXMSFl1zq5Oa+jFbg6UebhxHPaqWiq4QEnVHBHhQMO9dFxnK5RqsAE4uJ2XRyr2ISdwwJVZy7LnI26CRsQWALQoOGVhOd1hU4ID2KoxXI5+DylZ1csrmJhorXt6oVeFIgQbsbMyfFgLKoYOq8aKQD5Twlk6DvJ7syIGG493qAQjtCAgOCCgiTGXma1w8/X98DBTyCA6o48zE4AAAgAElEQVStoEQrcOElD3q9qS9JeRLIJ+GebaMYzWhf4qWQoEU4qLO/RgECBNT0SwUdiiIeTSbeesGCg+et6H4d9VQNoFBBuxwDgh7MHN2/f3ciQJjKqZbHhhkQ/DtIG3ZnDl5WjjyxKyy8RHkOqCrj2Ryt0LCubfUTj6ezeLx/Ag/1juFwUisOVpp10QoSNItBOVAwWhVCEtAVkhALSQjWNAnKeWNaST8pZg/T7qNnkVZW4hkZ8RyQs1ylKO9oWaulxBEoVAAefh6rDAhsQfDz+GzcvXkEB5Qh8aLlMQ5lbFzPts2ZteiGR/rHcThf4EkHCdokrlWCNE7q9HPNiVH5bDe1KAQlYEFnEMdMC2HN1BDmdQQQDVB9iCqlrtL9gIBgMiNjKJ7DppE0to5mRWErcTrTCdk6EZQRfiqxWjgChJoAqkpdG3AYAwIDQgOGlc9P6QEciMJLXQGcv7wDZ86JgN6vvLECtSowms7hif5x/HzXOOjvyqxtDgkKAhgLOCmTqzjKJOQxHACOnxHGeYujOG5aCF1h1beh1huv4XgCgiPJHF46lMbjQ0nsGs8Wl1cvBwt2vgkOv/yV0ts2jXB4rhqkaPihDAgMCA0fZL66gCtwYBLK2EWFl2JceMlXg6E1boYKPD0zOIGfbBvVRTeoOKB3UtRNWCWgUGRJUGCBIJasBles6sKqqSHQEoOfNvLF+MPBNH66axKDqsemeUpp7a5N4Ej9VfnjrFtd1prAgFCX4eL5sKMwR/ZBqEtf+vskHsGBKLzUE8MpXJXR3+Ojie8ukcnhud1x3CYKPGkhkAokiP+agEIeEpQdlNbrJrXp4QD+eU0nzpoXBX1J+nFLZGU80DuJXw4mMSnarTXDannBetmhGkiwXW7wqW5O+5ItCGxBcDpWmns/V+CAJCoOZaRohatW0bICRys09wDy/92LAk8D+gJPGiCYQIIOBkyXHQCcMCOM/1g3DTFyQvDxtmMsg69tnMDARLbYjUI/ORdN1C5CAgNCzSPH89HHFoSa+9DfJ/AIDiha4YqVHTiHoxX8PT5a6O4omRKFQD6wcwwj6eLohiJrgsnkabQoXNTTiYtXddkutXstH1kRbnp9HH85lEb+UbcK28y3u36Q0MrLDGxBYAuC1893Y6/vERzM75Bw2YoOnCUcEj1n4MZqzGf3lQJjKSUE8pE+im7IQhbjTxuDFtYEE4vCp9dOwVsWdviqbWY3k5Vl3Lp5As/uSYowSLNoDPPlg/pAQisvMzAgMCD4/gVQ9Q16BAcUrUAOiUq0AsNB1f3HB1atwEgqK5YbHt5FBZ5yOt8CZ6BAe332hGk4d36s6ntw68CcLOMHWydERAPljSo8cXoAMERpmC056J04LZcnzFvVqlYEBgQGBLeeY3ev4wocFEcr0OtouQoHXHjJ3e7mq5UqoC/wRI6LYro0M7EbHRnV/T534vSmAARKoPT9rRPYMJgoAEI+W6TOokCRiXZ+CVVCAgNC455Azz+x2AehcZ3ryZk9gANqpyjZTKGMsyKI+Nyxy5N+4Yu6rgD5JDw3NIEfbVIKPBVFM4i7KbYoKGyg/OxzJxEg+H+JQQDClvE8ICjNUtpQsOBpURoeQEITWxHZggDgAxzm6PqLq2EXdAUO6O5LCy9dsaKDCy81rGP5xNUqkM4ppaJv2zyMiYwOEiwsCpqz4udOmoE3LWgOQPgeAcIAWRBojaE4ZLPwdV8MCfkvU6fLDTYTfStaEQgQprV7LQYBCGku1lTtC8g3xzmBg+Kca8qtG1O/WtVWMECB5jItaius7MDZ89jnwDdjgW+kSAHKk6AUeBrJF3gqlweBJs/PnTSzeQBh0xgeG5xEtijmQqwpqAaF0jwPhaJVZnkgdJ4M5fwRDPbvIk31PdCkVgQBCIHs2+48d/rTXj1Sni8xMCB41fV1vG5+krdO9K78xvD7Ejgo7KNwgraDZjFQf6ZCxJxoAFeuinHhpTp2JZ+qMQpQxsXH+8bw4C4q8JSDrDglFDv16X72uXVkQehszM3U8ay0xPA9FRCU4pZUY0L5U/w/zwbF/1YMKLrKltoxBdNC/i5Ll2bUXzEg1LEnzU/lA0AYZwtCw7u5gReo2nJgDQvFVRyLlxM0y8GSzgAuWRHDGXPCHK3QwO7lU9dPgdFUFhv6xvFI75godKR+XhcmwvxsCnyeLAgLmwgQBiaFk2KJ1UBAgtGSoDVZKVhVstxg4sxZgARDfxisA6ZWhKa2IGTa3YLAgFC/V5DLZ3IDDvTXUP/e062EMp7BhZdc7nC+XK0KECRQgaf7t4+qBZ5KqyHSZPj5dbOaCBBG8Vh/MSAUQ4FDSChJOW211KDrBSeAoJgrau06149XlhgYENiC4PrQq8MFPYADesSXdavRCrPDiHBZxjp0JJ/CbQXG01k8PTCBO4XjYq60kqMk4fqTZzcPILwxiseEBUGtQ6Gb6IucFJ1YEiwgocQJMR8AUjzxt5IfAgOCiGJgC4LbL6iar+cBHNA9L+mUcMmKDqxnOKi5C/kE3ipAKYqfGxjD9zceUQs8aSsOyoR3/SlzmgoQHh2Iq5kUxee6RTSDwZKg8zcQHgoEB6ZOiYYlCvUShbUZB5DAFoSqBrzndhcGhKr6zbuD3IADap12nbxDooRrVnfwsoJ3Pc9XrrMCosBT3xhu23QElDMhX69BA4RFXXW+Yv1PJ5wU3xjBo/1xZNTTK1/xxZBgtCSU+hTo/BFKrAgKERQnWqpwmYEBoarOZ0CoSrY2PchDOLh8VQzncuGlNh14rdtsAoPHekfxwPYRDKdyIm6HXsqfP2Uu3txUgDBR7KRYDhKkgOhQIyQQWJRELBgcFk0hwYkfAgNCVQ8RA0JVsrXhQR7BwQJReCmGsxgO2nDQtUeTqcDThr5RPLxzFIcSWQEJ1xMgLO72vQBUi+F7G4fxaP9EIQ+C5mugh4Qi/4MySw1aVIMTXwT97NWCkMA+COyD4PsXgLhBj+BASZ8cxRkEB82hFN8lK1CVAhTdIPIk7BjBkWQW16+fhzc1hQUBCiAMTCg+CHoHxXzYpvr00uSvtwjo/63LAWFuRTCJaGBAqGqsVXIQWxAqUasd93UDDixCGc9fFsVps8MIcbRCO468tmvzWDqLJ/vGcPeWI/jUiXPwpiawIJAPwnc3DuOxAWWJQfgflECC+jOjFUFZZ1CdE7Xulgp5TSqxIrAFoSHPiy8AIc6plhvSuTWftAFwoFkj6GNDJmOqAQ5EKGNXABctj2L9rDAXXqq5E/kEzaQA+SQ80z+KeZ1hnDbf/06KYonhdcWCoNViyEOCyVJDcaSCAg6K8UDLuqj7d/7nyjQV0KdyzsOD2rs6QFBjHkq7vcn8EEKcB0EJc2RA8OErrIFwQK0V7lgmloOFHRKuWBFra8sBmWqPJHMYmMxhf0IGebtPC0tY1BHAgo4AYiHLaG8fDiTrW6J2jqRz6I/ncCAhI5mV0R0GFncEsbAjgI4WaWelnUL9TV/mkaD/F9YUQDgifBC0KAZl0i9YDfJRDUUWAzXSocSKYMy6qH7DSlJ5QNBgQuMF8acxF7Pn38MVDQUGBNUHgQGhonHT+J3dgANqhSGUcS4VXloVw1ltmCGRzLNj6RxePJjFM3vS2DKWxWS2uHoFVbGeE5Vw5pwg3jovAsooGQs2FywQFFA7XzqcwZN7MnhjJIfJrLAl5TeaFqkI1+mzgnjL/DBWTwm2LSw0/mGv7QoFQBgvRDHklxJ0vgc6h0UzK4IyvxesCIV/FwChyIpgtCAYAEHBAwaE2nq3BLFqPV3lx7MFoXLNGnqEh3Bw5UoqvNRetRVoYqS8/L8/mMHPB9Loi+ec+IRialjCm+aE8K5FYfR0BxH2+ccmtZOsIi8dzuLBwRS2jeWQs67tlR/i3SEJZ88J4l0Lwzhqasj37Wzos+nDkxMgfPe1w3jMYEGoyIqg901QnRXzgKBN/Oo++WUGBgRXRoPnNhcGBFf62dlFGggHeZ8Dg+WABuDizgAuXRHFGbPbCw7oa3rneBYPDqTw//ZnEM866yZtL9KOsktetCyKc+aGQJOpHzcCgYF4Dg8NpvDM3gzGlLJ/FW2LOyVcuDSKN8/zbzsralCL7KwBwqP944UoBl1GRMUqoOY9MLUiFCwEBQuC+v2vd1LU+TMUEjAWqkUKOe0cFdkHoeJR5/kbhQGh4j5rzAFuwIGJQ6IovLRMq8rYmKb58awkxbaxLO7clcSfDmehFfer5l5nRyR8YFkY5y2IYErY80e6qAmEAgMTWfxkVwovHMyIZZNqt+lhCR9YGsY/Lo74FoaqbVuzHlcMCLpaDCokmPoiFIU3FrIuFidOsk6a5NSKwEsMtY8qz98mDAi1d2LNZ/AUDqJtWVvhQDKH23Yk8dy+DFJq5d9q+5Ee4jkxCRcvi+AdC8KIkrOCT7bRtIzbdiTw5N4MEjXAgdYc8lO5rIfaGUHI58sqPumCht5GARDGFB8ELRui3opgdFjUZ1IUX/VqNEPRsoGJs2KFywzNXvqZnRTZSbGhD6+jk3sAB3RfZBq/tCfWlnBAL9JfDqXwg+3Jmr6o9f1Lr9PlXQH8y1FRrJsZMrpnORoKjdjpiT1pfH1Loq7tPGZqEB9bHcGx00ONuGU+ZwUK5AGhjwCBEiEURzBY+iLk8x9oMKuDhMIaQnHqZQaECnqmPrt6/qnBFoT6dGRVZ2kgHND9KJnlzaMVrllFywoRtGMOpIPJHD7150kMTZY3HXQGJVCq6Y4gMJIC9iRzEDV9ymzktHjNiiimRTx/tEV0wkf+GBeOl1Yb3SXd67yoBDJ87EvKOJwsjmowHkv7XbAsjEuWR0Ea8eadAnlA6B1Vwhz1EQzGZQb19xSwmE+QlD/GHBCUXxcnWirJh6AfAkX5EEzGRhP5IbAFgS0I3j3ZHsLB5Sup8FJ7OSTqO/qB/hRu3ZYsCu3Tfk+vNArx+x8LwjhvYRjzYgExcVJs/K7xHH7al8KLBzOWPgsUBvmFtTGsne69FeFXQyn8381J0zFOYNjTFcD7loRx1uwQpoowDFm068+Hs7irN4mtZSIdVk8J4H8dHcOaqUHvniG+MhRAOIRHCRC0VMuaFSFgCHPMA4MCCEWTv90yg27Jgo4r8kNgQGjYSPQcv9mC0LC+tT5xA+HAKlqBboaSINGyQruFMuo7gib6T/w5js2j5l/VMyPKGvt5Jr4EmsPfbTtT+N3BDNImp6BX8odWRfG+JRFPQwLp3j795wlstGjnos4Arj06ihNmlIIMRT28ciSD72xPYvtY3g5VNJ6jAeCTa2J424IwfBq84cGD7f4lBSC8egi/6hstimIoyqZolTjJuMxQ5Jsg8MEAEQULhaWjIlsQ6joIGBDqKmcTnMwDOKBBtrQrgIup8FKbLitoI2MonsVVf4ibTu60zz8sCuOjq6PosDCdEyT86VAG396WRN+EOWScMzuE69fGLM/hxijdHc/h6j/EkTRJdkDj4UMrI7hgWdRyiYmOe3QojTt3pTCSNg+LfPfiMD64MoouJgQ3utT0GgQI33n1IB7tHUPeB1VM/AUrAQI0nZtkVjRGM5QAggIJRYmV7PwQGBDqOhY8B4T3c6rlunZo2ZM5gAO1QkLxaYzH6d/X6u+UHykpYvObLItvgBUilJELL5EuLxxM499fSZh2EzHBLSd3Yu308mbziYyMmzcn8Pz+jPLVZtiWdwbwzVM7PQ0FpGWQf3tl0rSd5Dfww9M7Rdroctv2saxwcHx9xByE1s8M4vPHdYCsLrx5owABwq0CEJQlBm0yV0IWdVBQFK1A/W6wDqi/L/gbKO0x1nXQliachDq2QhTD9EDmbXeeO/1pb3rXB5kUGRBc6noHcGBqzHUAByoaWBZeIssBF15S+pmSIn1jq/m6fHcIuPesbnTb5DKgLrljZxI/G0iZhg7OigZw++mdnuZEeGQwhZu3mLdzSWdAAELExkOVQiS/uimB3xzIZ/kvelhWdgfwxRM7hJ8Gb94oIADhlQN4VEQxqJM6+R4YlxVKAEGZ/gvVHMvkQxC7GipC5ktJq3Bo4oegxlMUC9NkTooMCGxBaPyT7QEcUKPIA//KFTGcziWb8338s74UvrvdfOKcGgJ+ek637dIAdSc58d3blzINH5wZCeDHZ3gLCD/rT+K721KmY3tZZwA/OL0TYRtAGCdA2JwQWSbNtmWdEr50kr0lovEPWPteoQAIqpOitiRgXFYwWhSssioWLTuoEKGPZNBgQW9dKOymEopqnSitxlCSbdHPPUdRDAwIDAiNHaNuwIEwIRSHNJI3PYUytmPhpXIdumF3Cl/eZA4ItJT+vdM6saK7/BJDKifjls1JPLU3nf9q01+TymV/a723SwyPDqXwVYsIBgrbvPvMLswgT8MyG2VgJCvEX4+YZ1g6dmoAN5zQgTk252nsA9beZ88DghbmaEiUVOR7oEGCBg8lkQvG6AZNW3M/hPy5GRAaNgg9X7zjJYaG9W2xyd/iMjUvK1jAARVeaudQRqte3Ticwcf/PGka4kjHXLA0jKtXxhCxmDsJwzYOZ/H1rQnh4W+2nTM7iOvXdthaIho48vCnw2lc99eEZSjnZ46O4p0LI8b0+flbomgPAqAf7UjhUMrcSfFv54bwyaNjohQ2b94oYAYIYr4ut8xgAATFKKDWbCgKf2RAYAsCWxAa82R7YDmg1zQV1aFQxjPntG+eg3IdOprKiSiGwxaT3tyYhI8fFcXps6hyYfHERwEB+xI5sbxARY/M6jfQEdesCOP8ZVFbE35jBp5y1oOJHK75QxyjFoWZKI/B546JiZLV+Rz86g1lczI2jebwo51JvHwkawoZJM1VPRG8f2lElLzmzRsFCBC+/fJ+PKbLpChcC20AQfnoN1oMdHkTBDDUCgjNXfKZlxgAsAWhAQ+2G3BgiFagVvR0SbiQQhlnt2eGRCc9SZM8ras/vsd8XZ0mvtXdAbxnSRgnTQ+Kr2N6V05mgK1jWTy7LyMSJY2ZH45ZEQnXHxvFSR6nW6Z2/vfGBJ618B+g5ZQzZwXxT4vDYkmlM6QYvCikkaDgqX0ZvHIka7qEQjpTMql/XUPOr6G2zMbpZKy5sY9mQXisdwwZQjktGkEFBMU6oM+cKIHCHhVAMDgmqmGOBcfF2gCBji7KuqjcjBuy1OUaDAgMCHUZSEUn8QoORChjBKfOCtt6p9e/0c11xpePZPDvryYRN4tRBETmRJroKZkQhfDRv4dTMvYkZGFBKFfcaUFMwmePieJ4kwREbqqUyckiV8PDQxYkA4hETgs7AqB7piqUBBW0nDAUz+FgmXTL9Ip/09wgPrwqyhEMbnaqybVKAMEYmaCLZhBWhXL5EMoUbjLLhWDng8CAUPvg8Byn2IJQeyfmz+ARHGjLCqfOCjEcOOhOymPwza1JUeGw3EYPp7bKQJOn+Up88RkIJo6bFsR1R0exsNOb8D+Cg18MpvCT3jQmyjdR/ZIstNOCmYoaOSsq4UMrwnjL/IiAJ968U6AIEESxJuUrPZ8oySzcUbMoVBDJUDdAaCIrAlsQ2IJQvyfbDTiguzWJVvggFV6aTT4H9WtOPc5Ekypl5KNbJpN2OGiaOqUel6roHDTRbxrJ4ktvJDA06WTar+j0YudV3QF86cQYKCeCmxvBwSNDKdy+yxkcVHpv1I9vnR/CR1ZFPc3zUOl9t+r+AhBe3l/IpOgVIIiJX1VZt4xQssTAgFDRUPT8lc4WhIr6y3xnj+BgbpTyHERx1twwgh6v7ZEEVD2QTNQbR7IgM/6ucRmUbIeC5Ch73/wYcMy0IE6ZERLmezJre5Wll0IVn96bxu0708JhsRGYcNzUAP71mCiWdAZdgTfS/8k9adzdlxZLBPXeyFpw/LQgPnZUBCttQkErvTZVyaT7T2RlsfQTzygWGxo3nSEJsaDy95C7vFVpM1zfv1GAoMzjmqOiGuaoTe5apINVsiQGhLqNAwaEuknp0Yk8goN84aU55CTm7TCil/qO8Rx+eyCDX+/PYG+i/IRLcfjrZgRBYXInzQiCEgt50QRaanhiTxoPDqaFf4FJ2YKaBhVZdMjRkeoerJoSbKg5ntryzN40ftqfFvrXe6NIxhNmBHH1igiOqWMFx2RWxu7JHDaP5fD6cBZbRrPYlwCUIBNZhJtSnoVV3RJOnBHCUVMCWNwZ8DSEtN7a1nI+K0AoG8lgXGJQJ/4iH4VaAEFnJWALQi29y6mWa1PP66M9gANReKlTwsU9tKzgPRyMpWU8ty+NDXsyAhIsoupKeoraMSMigXIGUIEk8qT3YokknpHxu0MZPL47g1dHspZFnKodauQIePKMIC5bHhGlkRuxZk/LOE/sTuNn/Qro1HOjfqLQT4p4ePeSsLCG1AtH9ydz+M3+DF44kBURInHzfEz55pCWtHRzzpwQzp4dEqDgxZipp761nqssIGjlnbXCTfnqjbpUzDorQB4QNGDQhToKnwanFgQGhFq7NX98vZ61qm/ofZwHoTrtHMABfUeXvK4d1lawLLzUpUQrnOaD9Mn09Xd3bwob9mZwqEqTNn0hrp0WEFUB10wJemJJIMc8qsz4lyMZvHggi21jWUxYTFa0JEITJrkWDMZlWBQ6LBpT1EayJFAZafr6ruekRgmNfkVw0JfGfod9MDUsYUmnhJ3jOdNU0XTzBDK0hEUWnjNmBXHSjFDdfA7oEdg5kRNj5y9HsmIZqpKtKwSsmx7E+5aEcdz0kGfLVJXcc6P21fIgFFdzLIQ25kMWdbkR8qGQWtSCLj1zaREnjQt0gKABhEIMhdDFFqvHQE6KM9q9WBMBwkRantaoAdyS53UIByVtdwgHAitM8hxQCl8qvHTqzBAijfgUraCzsrICB/cP1O4MRxPm0VMD+PdjY5hvU2GwgluseFcKX9yfyGEwnhOQ0BfPYTgpi4qNsRDVtiBTdxA9XQEEIOOO3jR+f8jms1e9CwILim742GpluaEeGzkkPjSYwj19GQw7nGQJDv55ZQRrpwUxEM+JL3f6cyQFUJ9GgsCCWABUiGnllIBo89RwoG6WD0KBraNZfG1LUgCKk6gJM61IT1pu+OdVUaFrPaGrHn3j1jkKgKCv5lgMCPnCTZRBsVxNBi0MUl97QavFpLcg6CwEdqGOzVzRMcyAADAgVPgoewQHVHjpCnVZIeTx25Be8r87mMZ/vZ4smxOgEmXpPXT27CD+fS2lOfbWsEa+CDRx0YQpkimr+WfI14MmJu32DidzIhLiL0fMUy4b20/HEVz8f8dHMZ8cMWrYyHJAcEChjOMOQhnpUhocvGW+Eg5r2U4ANMbofuvdEwRg//V6QmRqrMxuUCoWzXVrugP4z+NjmNOmFSUrAgRD+GMeHLTcCQwIRYOMAQEMCBW9o92AAzEhmRReWkmFl7z3OaDbo4nxC68msMmiFgHtI8IaA0oWQlmWxdq+nX8CzZmfXhPFW+aH6z4xVdTPFew8lpLx329M4k9HnH8NL+0M4Ia1USzrqm5Jhbz8fzmUxr19aUfmeZrkp0ckXL48jHcsCCPqkfWJnFl/sD2FR/ek6waW1FXnLQjiM0d31M3KUUH3e75rpYBgmiOhHCAIa4Hyn2pyIbAFobYhUm9Ar/hu2ILgUDKP4IDWga9YEfVN4SWSgeLsb9tJX66l34AEBpSdb/3MgFi3pomJgIIqAv75SBZDcesIB3oYTpkZxPXHxsRxzbLtmczh1m1J/Olw1rQ+g1k7jp0axL+sjmB1hY6LpPnjexSfA6siSvrrkYqUFpnW6/9hYViEDHqx0Uj546GMyO5IvhtWG7HL9LAkrB0U0kjLPiMpWdSUsIoyoQiLG0+MYd3MkBdN8/Sa9QcEMxhgQPCqk715WnWtZUBw0PUewQE5kl26nAov+cNyQEqRQ9lXNyXw4qFsyQubTNKnzVSc8dZMIQ/zwvAmlnjlSAY/6U3htWFr8zI5AH5idVRYS5plo+mubzyLO3tTwich4cAtgSbCE6YFcSWFDU4LOnK0o1DGDbvTwu/jgEOHRMp6eP6SMP5+YRhdHsEB9SOBze07U8KhkqxJZhvd36kzg2KpafXUALqDkqgNQXk1fntAAUwrnwWKsvjC2ljbFY6qKyCoUQ+l1gIGBK/eRQwIXinv9LpuwIGJQ+LyLkk4JPqt8BK9rG9WHcyMElL45aePjomJzyyvAU2k28eUDIa9E+ZfkZQQ5/2Lw8Jq4pEl3OnIKNqPvm53jWdxV28KvzuUdWRCp7A90opCII+bXj4EknwOKF/DzyuAgykhCZf1hHHeAm/hgIQiZ0hKb71xxJwOKCrkHxeF8YGlYcw2ZJ8kbak+xD19KTy1N6P4hRg2KqpFmSuPrmOOhqoGgssHMSA0TnD2QWAfhPKjyyM4oBK8F/qw8BJN6U/tTeMHO1IlYY0UBPWexWFhPSDzsNVG53hkMIVvbk2ZvujJCvE3c0P4xFHRsudp3Guh+jPTRNY3kcWPd6aEhcWJhz5JRREFH1wZEZObGVhR1sefD6TwwEAGRyzKVJtNmHTOv5sX8jypEOnymwMZfGNr0vL+KVcEldle2mWaWkc070Aih/+zMYHXTCCDQkmvWRHBB5ZGqu/AJjzSGhDIw1Qt51xSj8Hwc2OBpxJ/A50FQfy1ENpYFMWg7KZsxmyLem29yIpWRd8yIDAgWA8bj+BALCv0xODHwkv0on9gIIWfUJ5/w+xHX/4fWx0VTnB2X/6941lc90rCMh0wmZnJWdHLkMcq3ifiEBo2eyezuGVLEi85jG4gvSgHxLVHR7GsuziXMFkOftaXEhkS7RIJafdMKaw/siqCt8wLi4qNXm+0pPDwYArf25EyhSZq/9U9Ebx3SQRRm+AOSo9946ZkyfIWneOt80K47pioGsrndavdub4VIOjzH1B55/xEblbIyQoQ8jBQPSCoRxaLwYDgeHDwEoNjqVzc0Q040GYT3Z9zosA1Iloh4su4bpK3Y7MAACAASURBVAKEe/tSItc/eaTrN0peQ1/9NCnZRSnSl+AXXpvE1jHzZYYTpwfxqTXk5e+D2a3KYRdPU3SD4qvhdFvSEcBNJxVyQRAc3N9PeQ4qgwPKc/C2+f6AA2o71Vi4tzeFu/rSplIQ0HzqqCj+Zl7INnqFLDT/+tdEiYMmvUhPmxXEDWtjnkVpOO3neu5nBARlTldicfM5D5wAAh1HYY5qngTlWM1aYAII6u/sLAgMCLX1NgNCbfrV/2gP4eCqFTGcPcd+gq1/o52dkQCB0vne3ZcqycBHHucf7IngnxaHRf78cht5339xYxKvDJtPnhTJ8KmjIiIaopm34ZSMb21L4oWDznwSqK2ruwP416OjIlvjE3spfbKzZQV6kcyMSLhwGfkceL+soO83cq4kqKSxY7ZNDQOfPCqKN8+1BwSq2/C5V0qrcFL7188kQIi2laMiva6+TdUc+5RESUWAoGU5FPkNCsmTSkpBK79lQDAMTl5i4CWG4iHhERyIwkvLozjbR9EKZi9ykoe80KmUMHmXG7ezZgfx0VURkX2v3LZjPIv//XoSe0xKLdOL/pw5QTFhUK2GZt9oQrtjVxovHMxYpjXWt5GsL8dMDeDYqQE8tz/rqCqjVi+BfED+fkHI02gFs/4ia9N9A2mhg9lGfhjkL0FOinZwuXk0i8+9msCY4VSkm4hkOC4q8m+0y5avxSAAQWl33oKgAYKhJoM+m2K+xoIBEPLnsaroqOygLF2of1c5oyC9lR8CLzE4Hp6ej2QOc1T7ygM4oM5fStEKyyhawb+WA/1o/v3BDG7dnsKQyeROYWqXLQvhXYvDiFm8pKm4E4UDPjSUMY1rpzXzf1wYEhUQW+FFTxjVP5HDT/vS+I1DSKBxQe9Qp9UlKc/BJcvCeNt8f1kOtHFDpZwf3Z3Gd3akLEMcz5wdxMds4JK0/GmfkoPDiKcUwfnOBSF8fE3UdpnC8du5CXYsFGsahZJQU11aoCUGIyDQv8ukWy4sMejOowOEImioBRD0QOFjjdmCoFoQxtu9FoMDOBDFk4yD2WFtBavCSz1dZBKO4rRZIZHathk2+iL+8qakqSc53T8ldnrXwhDeuSgMCj3TNtKOcv4/0J/GcweyoCqKZhtZDf7nijDetqB5sina9RsNk34RppfGrw9kHIVA2p1T+z0tK1AJ5r+dG/StaZ16msDyG1tTlgWlyIeF8jW8f0nYtB10DioF/d9vJE3hlCIjP746gvMWhp1K1xL7aYDwq14FEPJQYAAEzWqgWBfIwqdEIuStCUUWBN15dL4ISkJFXQRDvthTIWqhiM7yFgQFOIq2JrAiECDM5GJN48NtDQgO4MA0959DOLAqvCTyHCyLYr0PCi9V8qakAkHf35HCL3dbT3TdIWUt/eSZQSzuCCALGbvGZVG5b/t4zvIrkl4hR08J4N+Oi9ouU1Ryz37YlyY4yrj4o50psXRQj21WRIlWoKUpO9N8Pa5XyznIivKtbSmR7MhqowyKb50XxHuWhAVoaom2KMyT6l3ctjOFXePmSbZIi5vXxbCos7n9VirVuMhJ0QEgCCgoBwj5r3sNHsygoPCzkiUGPQvoIKAk5TIDgqOu9vyzkZYY2hYQPIID8jm4oieK05vIcqAfzZQs6f9sTJYtL0wDm5YLNMMIBT2QqblcgR6a5KhewAVL/RnF4eiJLrMTtZ3SBn91UxK/O1wbJFAqajLJnzsn5ItQRjttKNSRqn+SL0KyTG0rWiqYGZVwrKgkKQlrC5WG3j4mi2yMVuPnHfMD+MzRMQSbYOKx06qS39cTEPIWhQoiGfI+DHrdDbkQFGZgC0Il/arty4BQjWr1OMYNOKD7LCm8BFzt82gFO3mpyuGPdqRw36C5H4Hd8Va/p/TMN54Qw9QWcE4sp0EiI+OmzUp0g5NkSvpzabUVrhLLCv63HOjvnbJo3rI1hc11qOSoPy8tT3zrlBiWdtZWIbPacevlcZaAIFYCdAmRdGWezS0IIs5RV5DJaEFQp3l9+KNqbbB0VCxnQchbKrxUr/y1eYmhXX0QPIUDilYgh0TP2bCmJ5NC+L74RhIvD5fWZKjmxPNjEj57TAQnTG+eGgzVtFM7hnJBUEbKFxzWbtAst/NiEi5YGsbb54d863NgpQvB0GO7lWiGIyZRMNXoSb4Hly4P46KlEdMslNWcs5mOKQcI+SgDQ5ijvqJjPt+B8EkoBgRlDld9DhQHBCGNsaqjE0BQ8aJYWp+/AxkQ2hEQPIIDypB4yTKlCFGzw4H2lJPTIeXXf3XE2q/A7mUrIjk6JVGPgFIs+/ydYdccx78nU/ngRE7klPjtwayjEEgBB0vCeLvP8hw4bjQgnFMpJ8JDQ5Rsq5IjS/clOKAxQ4mhprW41clKKSMg5CdiWtsrSbFcSL9cHOoo4mYKgJD/uteVeDYCgraPWahjgSXyKZdNAcHnVgQGhHYDBDfgwFB4iZ4rcki8qIlCGSt5be8cz+LnAxlhLh+ziEywOh/5HBw/PYh3LwqJKn6tENZYiXY0VHZN5PCd7Un89Yh1hUvtnB9cEcF7Fjef5cCoCflhPDiUxi+HMhiu0pJAywrkf3Hh0jAWd1rXb6ikP5pxX1EfpXcE33/9IIZT2QIUWAGCSaijPpLB0g8hH2Vl4bxolQ/BbpnBx5DAgNBOgOABHNDY10IZ/VhboR4vRIrVP5jM4XcHs3hyb0ZEKdhxAkETLSm8ZV5IZM9b2hkAZWJsxy2ZBb69PYnH92TK+iOQZl8/OYbjprXGOjtlVySo/MVgCjvGZNPCXWbjgeYpSkl93oIgzp0bwtwolRVvx5FTaPN4Koun+kdx+xuHEM/KikNgnQBBmb/LLDMYkyHlfRTU+zOYBEucFbVm+NB0yIDQLoDgERzQssJly6NYP4ucyVr7LZbMyTiUkIXp+JHdGctQRnofkEWF0gkv6wygI2T5ymiLtz556d+6LYnHHADCN0+J4ZgWKmdMkQ2D8Sye2ZfBE3uzOGxTqZIY8r2LQ3jHgpAIg43ZVQVrixGkNDKRyeHp/jH84I2DoDogGiAoE7zirFhUmyE/IevzIej20/3eEhDo5Jp/g9GCYLHMYLnU4ENLAgNCOwCCG3BAg9sQrTA7CnxwBRVeao4MifV6lz6+Jy0S4pQLZTthegBfPjHWdksKZhq3MyBoehxMyrh5SxK/tylsFQsA953d6btU0vV6dmo9Tzqbw4beUfzwjUOKT4uakrO4kmM5PwStWJPeEdHoh6BO8fpohnpZEXwGCQwIrQ4IHsEBVWW8ekVrRCtU+tJiQKhMMQYEWqKSccvWpFimKrcRINx/dic6KVkCb6YKxDM5PNY7gvu2jQifBLlSR0WT0s9i3lYtBYqhwBDNYAcIhom/rM3QR0sNDAitDAgewQElQaJlBb8XXmrU+5UBoTJlGRAYECobMfZ7j6ayeKx3FA/vGsUhcnLR1WRQlgsMSw7aBE8/LwEEncVAHGsCCDoAqDrkUd8sn0ACA0KrAoJHcKA5JJ7ZJIWX7F81le/BgFCZZgwIDAiVjRhne48ks9jQN4YHd43gCK33qY6G+vDGIr8E4aOgeQrr/BL0WRWLHBArjGYwWT6w9T7yGBQYEFoRENyAA0MoI419ggMKZWymwkvOXjWV7cWAUJleDAgMCJWNGOd7j6WyeKJ/HD/ZegSTFFqUhwSLDItatkWTZYZ8QiW3rAhaMz2EBAYE8gpupVoMHsCBluegGQsvOX/VON+TAcG5VrQnAwIDQmUjprK9ySfh2cFx/OCNI0oIZMkSg1Z4Sc2iqHg2qvkU9IWadM6K+VUG489U3wRxi4Wqj2YVHvPzv5Pi3B5BAgHCrHav5tgygOABHNAgJ5+DK5dH2t5yoD3wT1AUw7byBXmOn0ZRDFGOYtAAYXsKG5yEOZ4cw9FTWy9hBDkpfn1rCr9zEsVwVgc7KVbGCEjLMp7om8Btm49gQoMEMyuBVuVRN8EX0iqb1WZQQyj1ywd6h0X9xK73K3WaG8FjvwQGhFaxILgBBzRYzQov9bSvQ6LZe8rPgKCvBOgXP3hhQXAMCFEc3UJ5ELTxw4BQ4Yxfxe6UJ+Gx/gncs31EzXhq9DPQFWvSWRGUuV91bCypw6BYCoqWH3SwkA+vzFscdDfeBJDAgNAKgMBwUMXronGH+AkQCAgSWRmjaYhSwZS9j/y1whLQGQKmhCRMCUvoDEqeZeNjQFCWGNiC0LhnUjvzeJogYRwP9Y7hcFItna0lUCpyRrRxVtQgQI1ocAQIRkgwWTbwm9MiA0KzA4L4JLSqEK88FqYV5I3H6U+hA478sTrLAT0TSzokXLI8gjNnt07hpXq9nvwCCCNpGVvGctg0msWW0RyGJhVQIHNrSCIoUJaHjpoSwDFTA+LLfE7UfbsCAwIDQr2ePSfnGUnlsKF/HI/0jeOQGt2gX0YoimzQ+RHkS0SbVHPMWxkMSw0lIY9NBgkMCHlAwDQng8tX+9haDszQQDbwhOHfeVBQj81fQ9lPgoyeroAoEHNGG4cylhsHXgMCpe99bTiLZw9k8OpwDvsSctkaB/StNDMqYe20AN40O4jTZwURdTGFrx8BgR4D8nrfPSljdyKHIymlCiPVy+gOSaCqkos7JMyM1KeGhpcWhKwsYywNUTSKLEzUdkrhPCMsYWpYQrj1XD4wmsrh8YEJ3L9zDKOUljlvRaDoBv2ygc5hUavHoAGCgAfViVG8EDSHRZUCtPOov7N0VDS1JJitSRjeOi44LiqAkH7bnedOf9qruc/9TxZDSxUnxSYDBFs4sLIcGKwNReGKBWHEa8IilJHgoFULL9XjIfASEMhL+8m9WTy2O43euAwqJOV0o/fN3IhSQOq9S0KYTusQLmx+A4TJrIwXD2bx0uEsBuKymDjjGYq2kEHcRDVFpoSBuVFJWF3OnRPAyi7NA746wbwABFp6en0khz8fzqI/LmOElp/URI4EBVNCwKKOACgt+EnTg6KctDsjojoNKz2KlhueGozjzq2jiIs0CVrUgb42gwEQ8hYCHQzoazpYWRfydRrUuzRO7tUsN+itFZU23uH+DAjNaEHwCA6UwkthrJ/Z+oWXHD4/prt5BQgEB48MZfCLwQyOpEwXlhw1i/wR/m5uEFf0hDEj0vgpwS+AkJNlvDacwx29ClyRxaBcVU5SJhqEACnS6/ylYWFdqGZzExAyORkvD+dw/0AaOycUqwFZnYwsSS0hiwmNh2WdEv5hUQjnzm6tkuQESc8OTeAHm8eUEEh9FIO+uFPZ7IrFVgRl3taqPxbGQ2G5oXkggQGh2QDBDTig8WuIVpgbBa5ZQT4H7VV4qZqXvReAkJWB5/dl8N2daQEHtW5kYn7/4hAuWhpq+HKDHwAhnZPx6O4M7uxLCz+NarYTpgXw6TURLO4ga0JlZ3ALEMhR9YGBNB4aymA8U9k9kvXkLXOD+NiqCLpcsi5VdofV7U19/8TABG7bMobJnDbZ660IYsoX6ZmLnRHVnAdalVqdJaE4qZKWG0E3KLS/+tySwIDQTIDgERxQ4aWreiI4Zw47JDp5BbkNCIQDO8dz+NqWlHBKrNdGDowfWRkW+S0a6ZLgNSCQpYBKTf+0PyOWE6rdaJ44bmoA/7wyjNVTghVp1mhAoFbRNX7Wnxb5JspVGrVr/7oZAXxydQSLOgMts+RAY2DDwAQe2DUhxoAyCipcatAtPxRZEXRLAUWLNPWEhEqJ1K6T1d8zIDQLIHgEBwtiwJU9HK3g8HkSu7kNCMmsjJ/0pfGz/oxlPAtN8F0hoCMggZaZx9JKuGO5jd5ffzs3iP+5MoLZDYxu8BIQyLT+mwMZ3L4rjT2J6uFA05EgYf2MAD64IiKceZ2+txsNCOSI99P+NB4eqg0OqJ3UxtNmBvHhlWEs7mwdD0ZKy7xhII6H++M4LJboNP8DdckgH9FgyJ5o4ZyYhwSDM2PDIEG7TiUvK5t9GRAIEH7rdydFY+RBaa+arziXiVjQvQutQhmXd0m4cFmYQxkrfODcBoSBeA6feyWJfcnSCY5eceRHQJMWZSCk9XJaVx+My3h1JIvNYzkkylQYpv2vOyaC9TOCDcuT4BUgkFr9Ezl8Y1tKRHvUjgfKQIkGgHcuCOGSZWHh2OdkazQgbNiTxvd3ZNQEQU7uqPw+HUHgXQtpCSos8mi0ykYhkE8MxPFg7wSOCGuSSTIlU8uCiGEwj2rQLAhqVINim1A1y1sRVIuFJqRuX722jtxEnVKpg04LBziKwd+A4IblwBCtQGNTqcqomJdD2hqbgwHFu7hvQXhoKI1vb0ubTnAUqnbJshDOnRMSoKB1JX0598dzwtz89L6sSKJkttFYeP+SkFhiijToY9ErQKC15wcGMrizNw2rlQVqP1lPVk0JYHZEAoUEUtjo9nEZlGfCapsVkfCZNRGcOtMZWDUSEOjc172SEJEKVhvN8Ys6JKzoDqA7RMm1gIFJWSxdWVmaaP8Pr4yIsNhWekWMpXN4ciCOu3dMCMfFUkhQfQq0yo/6BEvaPJ8v+qRZH/Q1HZReKIEEDSSKiKAUvtyEBGFBCLZ7mKNfLQgewAGNTfJYvoSiFWZxtEI1wOOmBYGGyPWvJvDSEfP1gvOXhHDZsjA6TLzr6dW3bzKHH/em8fz+rKXH/popAdx4YlRkXWzE5hUgHE7m8NlXk9g1YT5xEhDR5PcPC0JY0hlALAiQyrRe/cZIDvcPprFj3Bqs/sf8IP5ldVQcZ7c1ChBkWcZdvWnc2We9/ET9et6CIP5mTgizokreA5oXR9I5vHAwhwcHzX0zaNnqnQso2iWCaS1kRaC+oj5+diiOH20dR5wsbPmIBp0TY35poWAGKDgn6vczhwTTpQafQQIDgrrEMOa3PAhuwAENRkO0wsIOxSGRLQd2r3Tr37sJCBSmdfnvEzhs8jVLIXg/XB/Dgg7rT3+a3v50OItvb0+JZQezjVIy03nmxhpjQvAKEH5/KIv/eD1pmiuCJj+Cg4+tjmCOzvKi6UOhgr85kMUPd6WFRcFsI4vDt06OYrYD3RoFCDTRfeilSexLmo9XgqCLl4bw/iUREbJpRECyLP18MC0sLZMmS1FkafxfayItWR8jnaM8CQn8YAuFQJpDQr7WgqXFQDMpNCckECDMZgvC+LCvAMEjOKBQxqtXRHA2RytUTwcuOykeScq4+A+TIo7duB07NYBb1kURsFmTJFP5jZtSAhTMpjr6ovzGyVGs7nbwKVyFcl4Bwre2pUS4n9lGSZD+7dgIjptm3WZKnPSDHWk8uicjSlYbNzK7f/F4WmYI2arSKED465EMrn0lZXl9irq46USyclhbhyibJGlFiaOM44MAgwDhb+Y2NtLFVsAG7UAATo6L9+yYMGRc1FkNNOdFIyQIH8ciJ4PiMEl91Uft/vXd4IMQSAYEv1kQHMCB+PA3Pqpmx+WtA4Wnx8whkX5LcHDVCg5lrMd7xk0LAuWSv/QPCVNAOHVGAF86MWbbJIKLW7am8My+jOkyAyXL+ca6KI6a0jqAQBkm//XlBF4dMV+aOXt2EF84NmLrf/OXw1ncuDklvN7Nto+uCuO9i8O2fdAoQKDIhR/uNE/sQHPRtUeH8fb55e+PtKLzUBiosiZfvF22PIQLloTLQoatAD7egTIubhiYxIN9WnSDIetiUeplNfIhnyypTBIlYVwokyNB9/u8PNVkXKzBaZEBoQkBod5wQIWXLu+h2gqc56Ae7yk3AWEkJeOi30+afsFSFMq3T47ZJjqid/63t6WwYW/GFDToK/HWU2JY3tU6SwzkoPjBlxKigJXZdtmykFhbt9sOJHO49uUkBi3Oc+mykAgTttsaAQj0fXDL1iQe3WMepkJGg++fGsMyB6GKz+/P4Ls70iKXgnH7+wVKKGy1WSTttPHD70cJEvopBHISh1JyScKk4qUGMbPr9jGp16Cf/H0MCQwIfgIEB9aDesJBPlphaRhnzgm1TNITr18oT+7N4Bvb0mXzDBw/LYAvnxhFrX5/9PV/5R8T2G/y4qalgS8dH8GJ08t/+VPmxZu3pvGHw1nT9XjyyL/1lChmOgzZq1R/Ms9/Z3taAIrJB2rh4wnAN0+Ogpwma93omtf8MYG9JrrRuQkQLl/u7Mv/2lesAcHpeWjS+frWNH53qEzMKRVRCgA/O7NDlOq22+jLn6wbz+23BoTvrSdAsHc+/X8HspaA8NZ5QXx0VUTUbmjljSDhicFJ3L8rjtGMwadAxCSoOop0zVaQoEVAaGGOxX821HGxCksCA4JfAKHRcGASykhfmBTHvH5WUBSg4a0+CjyxJ4NvbrcHhJtOjIAewFo26tb/3JjEC4fMTeVnzAzgE0dFLMs40zo6FXe6qy8jvozMNsqh8IXjIiInfyO2SgDhG+vq4xCXkWV84i8pbBs31+2c2QH82zFRUYug3PbXI1nctDltqd2/rArhnxY5AA0VEMhxstymAEIMnQ7IkmpLfGVzGk9bAAL15nVrwnjr/PIzO4HGfQPKEsOEye2dNz+ID60MNyzKpRFjrtpz0nLD07sncee2uKHAkwoERf4I7kJCI8IfGRD8AAjVwAGNPeNxFfgcLO2UcKkovMRwUO3Lwuo4J4BA+v/v4yJY6sC8a3d/lMvga1vN15kpac+b5wZFqOP8WPEET9aHFw9lcceutDCRm+EB8cs1y0N43+Kw7WRpd59Wv/cCEOhevrgpJcI7zbZ5UQmfJyfFqdaEQPf9Q3JS3GvtpPjfx0dwygx7342DDQAEatf3dqTwwKA1dFD9CHKkLOekuCeRE3k2XjqcE2Gexu2ipUHxodHRIICsdlw16rhENodndyfxwy0TiOfU5QZ9HYZyTouCGQx+Cvmf2fgkeOC0yIDgNSB4AAfkof3BFZrPQaMeo/Y9rxNAIIPNidMD+PiqsIixr2Xbn8jh0y+nTJcZlG8YgIDkHfODOHlGUJinaUni2X0ZPLs/Zxq+pt0PTZT/cVwER9XBrO83QHhkdwbf3GYOVtQ/Z84M4hNHhU2XVuir+tcHMvjhzoxpBktqKy3J3HpyBLOI0my2RgHC0/sywsJhtdEy1CVLg7hgaRghE2sWOSVSiOP9AxkkTOiADBmfPiosSoS3CR8IKcmH5cnBSdxGlgSqAqkvFa0lQTL+TPxb7YkmgQQGBJ8Dgul3XQ2WA4KDK3vCOGcOZT9rjMnY7mXY6r93AgikAb1Qz5gVwJXLwljaFag6Gx19yZKX+b395lEImt7U2zTx0Z/0rqdJrtxGL/93Lwri4mWNNR97ZUGgTJKfeTmJEYv5kxIcUfXCf1qoJBCi/iLJqArinw9n8cBgRjg5Wsn4tnlBfGI1fZ3bj/hGAcLehIwP/ylhujSg3RVl27xgSVAUYyN4JJwhXxBKNfzU3qwI47Sq/Li4g/IghEU4aLu9TeLkuDg4iQf6JjFMy3P1ggTde7lhdRscvvsZELwEhGqsB1ZwQE+7sb5CSRIkCVcsp9oKDAf2r+zq96BwwVu2pcvWONDOTpMwhdRduDSEFTVAAk125Bj52kjOduJ30jICiaOnUGXCEI6Z2tiXv1eAQIl/bt2exBN7reswEBRQSuFV3RKmhiUks8CuiZzIvmhX7Oq9i0O4fFkIXQ78BRoFCBTH/7lXU9g4Wr4yF9VWIJ8kimggoBlPQ1QGJQCyOpLGCEHQ1T3mVhYn46zZ96G0zBQC+chAouCHoqVeztdbUOo5aOYDxdpgY0kwg4QKciTUyx+BAcHHgGBrPShyPCw8asZcB5IsC09l+hJUQhmb/bH09/1vHMnhC68nMWaeg6fk5mkSopz9Vy4PYWW3vTnarPWZHPDHw1nc3ptB30RthYdoeCzokIQn/5vnhETq3UZuXgECWVBeHs7ia1vSlssEtbSbvswpzPHvF1A9k/JnagQgJHMyfr2fsj1mLPM01NI+skZ+qCeEN81t73eKKPA0RHkSEkq5cKM/Aomssy4UpWMWv1MGR+Hnuhc0pXjW22asIKFB+REYEHwKCBXBgc56YAYHVIDlgqUhUaKVCy/V8kp0duxERsaXN6fwokVkgdlZCBLIJ+FDK8JYVSUkTGYUp0NaaiCLQrXVCcmZkdLvvmlO0NHXrzNVrPfyChDojqjs9S8GM/jFUNY0CVCtbSM/BAKt8xaUX6OvNyAQHDy7LysiD3bXoYy1UQfKjfHWuUGxXElFwNp9I0vCU0MJ3LVDF92gTPtqlUd9OGODciQ0ABIYELwCBJvlhYoAQZ0JzLIkktmQLAccreDuK6x3PIebt6awacx6jdp4R2TZOWZqAB9dGa7aKZCq8L0xmsU9fRm8YpEl0EoJeoXR9S9fHhLe++U82+upppeAQI/OnkkZd/SmRW2FMgUaq27ynKiEq3tC+LsyX9r1BAQKXX12vwoHZXwkqm2QMk4kfHJ1BD3dgbbzPbDSLZ6h6IYEbldDIIuWFRxFNqhAoU30hj9Nqz9q1gn9n7obtF1qsPFFYEDwISBUAwdFyZdV+FgUA67oCbPloNo3YQ3H0cRzIJHDPf0ZbNhrnoDI7PQECUd1B0ApemmyrmYj0/loWsaT+zJ4cDALmnzsNios9J5FQbx9QQhTQ4Wy0HbH1eP3XgIC3T+pQ2vtVFeBkkWVS9ZUTXtpQl3YIQl/jjNmmSckqxcgUNXu3x7I4LZdGVFEyr7nK28RteX6YwhiG+ubUvmdeX9EWpbx9FACP9yqRDdokFCY3Av+CKVLDYqfQj2XGhgQ6jAm3vtbl4s11WI9KHFSVAQwWg9E4aWeMM5in4M6jJDqT3EkpUDCY3uypumQzc5Mr4ljpwXwzyvCImtgLT4juydzohATWTKsNlpS+MxRYZw0w5sXvteAoOkylpFxb19a9NVkzj7Ko9JRsbpbEn16/HRyEi4+uh6AQHDwh0MZfHt7BgcsMkRWes/a/nS75ItCjqufWRPGojIVQqu9RqscR46hlHHxnp2TGBUpKNTsiZoVHL++ZQAAIABJREFUQfzICAMVpmM2ruroLQEGq0AtkMAWBADv8REgVGM9KIUDCVctD3Eoo0/eOPsTMu4dSIs1YVE21sFGz/jJ0wMiwdHRUwNVx5hTEaEbNyXx12FrQKBaHNceHanaYuGgOWV38Qsg0E1mZVlEgjy6O4PtE7IIX6NoB71Vgd7NtAZP0QnTwxQOCFC6aruNjls3PYCrekLi61sPCbUCggIHWZGyep9DOOgMKqG2FMJodfd0j7QfQeS5s4P4h4UhEc3BW3kFRIGnwQQe6ldKscv6VMw2+RGKrA15mFDLTVfhsFgLIFBujLntXu65VQCBohUoLplyyFN8Pec58M9rjNa5KV3tM/uzZRMT6e9YJFOaFhCe8PTVWc1rmQGhujFAX4E7JnLYPJrDQFwWuRIoOQ692yljIPkVrOySsHpKAK+P5HB3v2LSt9toQj5tZkBY9/TFr2oBBPI5ePFgFt/f6dxyMD0sgYosTQ0Bm8dkYXEgCwqFcdIWCUKkTp4bk7CmWxLZICmhl100hl372+n3osDTYEIXAqmLSCgb1WDm2FhblsWykFDGD4EBwW0LQqXLC4YaCvkHzOCYSHDQ0yXhQiq8NKvUhNlOD6Zf20pJawgSyITtdJ1bLDdMDeCanhDWVgEJDAi1jQbKAZDJKVYESk1N/UE5A6JBJXESbRRi+tuDGdy+y1nEAB139qwAPryqUCOjWkCgXAzP7c/g7r4MaHw52Sjq4L2LgvjHhSHhiEpRNwQIFKI3SQNTlkQuhOkRBYSoSmMty1xO7qlV9yFIeHIogft6E6LAkzAIWNVr0OVGMLUiVJIbodKIBgtIYEDwESDYVmq0qLVA42oFwcGSENbPDHDhJR+/bahc7n2DaTw85NxxkfqX4O/DK8NY5yCvv775DAjuDAaaV184kMGPezMYsCj9rL8Typ101uwgPrZKSTJUDSCQlePpfVncP5gRkRhO8ICuRc6olJuBlwrcGRvjGRlP707gzh2TYokxDwj55QPVR0FLoKRO1qWOje5bERgQmhgQtFcCrSFTrPWpDAfuPPE1XoVi78kk/dBQ+fLGxstQyOqHesI4dZbz5QYGhBo7q4LDyZeCnAQpgoCiIuw2goQ3zwniY6vDIisjlXt2Ws0xGICAg3v7MqKuhv3VIIDgfYuCeNfCEKawH4Fd99T19wRzz+xO4LbtCaV2g4Oqj/W2IlTji8CA4CYglFleqNZ6oGUzO4OXFer6QDf6ZONpGT/uS+OXu51bEuieKCPmR1aGcPJM83A5430zIDS6J4vPT5aEX+/PiOyFNHHbbeTs+M4FZO4P43s7nQHC3WfE8Ocj5JCYEfUSnGy0ZPDeRSGRAIuWR3hzXwHqqqcGJ/HDbQkRJZPPuGiWhtknVgQGhCYGhFkR4JqeIM7h2gruP+11uOKhpIx7+9N4qpLoBgCrpki4enkIJ023z4zZHIAgi8luw97yFhWa1r6xLoKjpzqoflSH/qn2FOSzQM6oml+A3RROzoBvnhtAf1zGq8PlayZQYUjKkXFHr/P0yQQH71kYwiXLGA6q7dN6HRfPyNgwlMD9vVQkTF/gSaw3qFUh1avp0yznnRr14ZDqcoVyqLIZfQkqCXk08UNgQGgGQDCpudAZlHHN8hDeOo8dEuv18HpxHnIOo6qABAlWFfOM90XvgqOnSOKFT+Wby9UCEoCwOYWXy4Q5UuTLtWuqT8xUq24izHFHGo/vLe+8Se3++kkECNUlkKr1Pis5nhwXn96fwT39WUfOg+T4SCBBmTDLbaQBOQ1SxIGTjZJekYXi4qVBthw4EcyFfchxkQDhsaGUYknIT+w1+CI4rNFQaTQDA4IfAcFBxca3zJXwsZVUSIfNhS480w29BEHCzwczeGxv1naC0G5EOKZ2S6Ja4OkzrSGRAaGhXVf25AQJzx/I4id9GexxGGFQz7ulaIV/WhDE+xYzHNRT13qca9d4FrduieON4SxkvXWgQiuCafrlMkmTVDuFdRMMVgQGBLcAoVr/AxPrASUx+49jQ1g7zf9fUvV4mNrhHLTc8IvdSmpkhx+Hwqq4pFNJimUV2sqA4O3oob783cEsftTrzHGxXndLlSQpWoGsB+yQWC9V63ceyqlx984EHh5MFcqG67Mr2oU85q0OJssMut+VLDloYZZWTWFAKFXGlURJdQSERR3AjWvDIk6Zt9ZRgOonUFXB+wYyjiGBWr+IoliWBvHmuaUVAxkQvB8flD+BohOoFPegg+iGWu94VkSJVnj7/CCHMtYqZgOP//W+tLAi0HNvWQ5a76xYSRGnalMvMyA0NyBQtMNRXRL+z9oIOkMNHL18ak8UmMgA9w1m8MBAxnFlQcLEeTEJVy4rhQQGBE+6seSiBAl/PJwVIZCNhIQpIeCCJSH848Kga9U4/aFw893FXw+l8dU34kqabt0ygySplmGjFcESEJSFg6JUq9UuMzAg+AsQKq29QPv3dEr40towujmWufneCg7ueDQj42cDGRECaee0pj/dopiEq3qCOHMW+aYov2FAcCC4S7tQlc3fHlQsCbsdJjaq5NaoZsL5i4P4wBL2TapEN6/2/cOBNG7ZPIGRVGnIo6joaIhMKM2dYJI4ycxZsZKsigwIHgBCHZcXCBCmhYAbjw+L3Oi8taYCh5I53D+YxZMVRDeQEks7FcdFqsURCUgMCD4bHiJPwoEM7uzLOkqm5PT2yXLw/sVBvH8xw4FTzbzcj2Dx4f4E7tqVUGqzFFkHSsMdFRuBVirauL+NH4I4uHg52mk0AzspuuGkWGdAoK6+YllQJD7hIAYvH/PGXpsS7VB0wxN7nVeBpDuizJqXqD4JFGvNYY6N7adKz65Bwh29WeyuQ3QD+Ry8e2EQ710c5KimSjvDo/0PJ3O4dXMcvzuUhiyrk7eugBNN6OKn9B8P/RAYEFRAGE1jWsPGSp0Bge5zYRS4bk1YVJPjzTsFqGsnsjKoxoK+4l9nUAIlsiJHUvqSr3ajEMhfDGVE7Qan0Q10rQUxCZcuC4pkSl/ZwnkQqtW/UccRJFB5Zqrd0Bt3ltPA7F6omBI5JJ63ICiqTPLmfwWo+uZze1L4ya5J8d4osg6YZVVULQD1tSBo9GGil87aQIAwj8s9jw97AQiO/Q907w9xjEy5vIGTpgdERr2e7kBVpYD9/yj59w7pBb9rIoc/HMph63hOmPLJVEg/p76hFLoUXkZ+ASdNl3DSjCCmhW2zoZs2mJyYCBJ+XkEIJJ1odoRK+gbwlyM5vD5qPQlxoiRvxhmZmclxkUIgeycqhwSyHHxgsRKtQMmTePO/AhTe+JdDady1cxI7xrPIqW/u4slf+egz+iHUVLypSj8EBgQPLQhlAcEk/wENGg0Q6O9ByFjVTfHOIZwyU/mC4NdEY18S9BqnynmP7M7g94dyIhd+IieYzXSj93ZXiKptBkRc+ikzyAxc+T1SdMPPhzL4aX9lIZDkuEbQQsWArDYGhMr7o15HUHQD1VX40a7KLAmU5+D8JUG8Y34QXQwH9eqOhp1HWBozMp7dk8Qj/ZPYk8ghq7cWFPkXOAAE1aqgkoTin6BtdXRUZEBoYkDQZqWwRJENAZwwPYAFHVJhAtImLYvZSy75uXpAEZwUz3wKoGgj0TArml5HsXYcMyOGhd0Rs7wdDXso631i+uJ7dTgrCvFsG3dWQU9/D5RH/6KlQVywJIxqrMHxDPDTgTQeqNCSYKcDA4KdQo39PY0rSqb0g10ZRz4JlJb5oiUh4ZQYqmH5qrGtcvfs9C57Zf8E9tNDYtyKvpqUf+jfXMoyv+YHYDbLqj8r+QrXpUYuuWbhOsmsjP6JLP50MI3dZGbUfA3cBAQ9UGjNsfqc5CWG4t6kREm+WGKwmphNlhiUUV6Y0PPTVf5n6mMgViTUz0fxuzw1QACC9jPxY7nwM5nOqAMG9bx0LmVX7Vjl73lwED/XLB3KOSkd9KfWzcHblk5t2hcarf+/dCiL7+109hK3ej3StwFlt7tyeXUld2m5gRIpbajQcbHc65oBwd3JzOxqZOV5Ym8GP+7NYrhMhUaadi5bRpDJ0Qp6HXM5Gf/14gCeHxj5/9s7DzBJjvLu/7tnZvPu7eUcdUFZYCEhQCQlkyxACSGCTTZIBGMM/mxjwGRjMGCSQSYIIfAJkEQGSaBgspBQPF2+093t3l7cvc27M93f81aH6e7pUN0zPfFtP1i3M9U11W9Vd/36jY6PjVBBdzpih0Ogpd53RhDYm6Nn8ycQs/qyvAct50FFNV983FEGrrBER7+G6cBqa/5OkAZBbOyGo6Jv+Wdz44/UIDAgJL/JUwWECjoomlu4CwwsUPADBFtD4ACE4nuvucHT5m6P0ftZERA0GzyKsFHs3wQP6z8OcGkGQKDLIs3BZ7ZXJskN3e/09keld5Ooh8mx6eaYBZ4YEJI/H6p15sMjGj65jd4yg/0RSAt101PbOX2yZ1IIED7423341RMWIDhV7k4ocGgLrDdoByDYmgTHd7YvQAkYODZ5sw/VkfCoWJ3RAQ52rQUGBNn7quZm86YHBNOx0X7Tt5RsphagBBDovV+zjNYGNFAbW3Ng9ucGBEurYGkUihqOXAZ4x5MaV4NwZFrDR7bMhjr6yS52q11/Dnj92hwuXJxJZG6gEMjvU4GnwYLwgSjnYA1COdKr3LkygNChAt85rx1d7HfgEnwgIHgyCvoBgOjI1gaI13Wjb+dnjnBD+23e/szY7G1TRUkkggcGWIMQ66ZhQLDEVWETg59mwNZCOKBBfGabGhxmC6dJQtchtAiez4pmCqNn2AqGogmikQGB7MPf3DuLbz9BHsf+By3g3hywqF0BJbekcEfawMPCEkljedYcFdeuz2JVwoRXVODploE8bj1QAJVMTnq0OiDQHFM+/H2TGvZN6Dg2Yzh10tv63JxR62J1twqCuuIGk1TawecxICSXqRsQ3Bu80/HJFxBccCDIwAcOzM9NcLDNBAZJiPZCe2CDhWk6UK20yQZ4FH0dJDUI1u7IJobki6PcM5tVg1Cy8Vt+BEIXUDQnuNoZf9haA9tnwdIieM0RFlw4wcEDCbmMgnc8aUFD+iAcmNTxjw/PYCggoQ1t9JcszuA5i1TMb1OFNmCyoGPXmIYfDBSEM2PQIbLfrczgwkXJi2qM5oEfDRg+CbTRJTlaGRAIsu46nMcfj+tijsfyuoAt8gmguSVIoJwWC9uNsOKLF2exqD0dUGBASLJ6jXOKgHCi2Ilrww43LRj7ult7YG/mdtSRqSnw9OsChEBfAwMkin1anXp8C6LyINgA4s6myD4IyddO5JkNDwhik3Y6IhZ9EX01A7bzoY8/gdMc4YEBgRVBWgQLLKy+HZBAYX0ECBet6gWFzTTSQfkHvrbH/w2dNpBXrMzg8hVZdGTctVJogzkyo+MLO2bx+2P+EQ8kifYMbULlyYRiqycoXWvCgwDhXRtzOKWvvHEk/HmxIX9p5yx+NqSJjTnooNF95kk5bKpAcjCCqV8fLeCbewsYnNJB4YZhfEW/nVWBeZR7YLmKSxZnxdxV8niEfBC2G3Uagg4yMXz7vDYBLXwUJUDazQ8KJ8VR48NAODA26uDvPdoDai72cq9WwX61N8wLdubDImT4OiMGmResMZuAUBJVwRqE2i33hgUEe1N2RhJYJgJDnqGAEKZFMH0Q7PPN3xK+CKFaBNHQZWogDcLbz5qPi1f2NlQUA228H308j98e03zfzp88R8WHTs8GXhPNBGkSPrEtj90JEuFU644gFfq7NmZxal+CBA0VGGQcQPj0WTmcXOY4x2Z13LQvj1sHwoEk6NJIq3DhIhUvX5UFZTKs1FZNGoRPyQDCU6mSa6V+tQITWAddWBoEFyA4XkbcpgWzEFKUacEJB+YG7jIReBwZnb9hayNs+Jc1L3hNEaZwGRBqt8qaChAsaLBdCRyhjY7QROOd1hOqGBjNYG76JnCU+B3YIZAeHwVTi0BvXo0ICJTm+N+2zGLbaOkbHT2f/2FTFs9ZGP4aSWHP392fx037kpsA0r4z+rJU2yOLixZTieC0f620/2oCwtEZHTfuzeMXQ1qs1NXeUVOmzOcsVEUkypKOykACA0LytecCBBnTgjQcFLUHbjhwf24EOEhoD7yaAp9ICrevQkQtBgtcohIl2eMryjhw1XIeBPdCbDhA8GgOTFWBO29BcU8P0SL45TkoBQqvxiDI1GBrLDz+CGRiIEC4qME0CPT2/9GteTzhkyuf0iZ//PQc1vaEv8mRKO45UsB/7ciD/AXq9VjcbhR4umBRskyP5VxXtQCB/Au+f6CAWwcKoMyU5R6kSaAiSZTRsBKpjhkQks+IAQj7cdd+t4khLGrB5XCqeLIX2rd1GaYFBzSEOid6oMH4M6Tcs3Ozt0CHASH54ok6s24AwW/jd2z0xj8dm7pPe3dyI+PKvWYCK8GSrUWw+gkwH1hhji6HxQB/BD9IyCkK3n4mAUJPQ5kYHj9hmAf2+9iE5+Wo5HYbVndHq3opJfNnd+RBb6/1fFAUxmXLMnjBsoxwzqvWUQ1AEMWRjhVw/a4CDlSggqIlG0p5/Nb1GTxjQfmqFwaE5CvOBQh+2gG/TdXWNCSDA+oyMO+BAw6KG74nH4JTe+B1bhQnmfKIMC8YTR3PIecjyRPm6ZQwaxAk11tdAoJz83dAQgkgODb3EoBwmRnMTvyyL/qaGkpBpMQfQRISKJPi289oPEDYNa4JHwQ/DQKpmP/1lCzOmRe+MZAz3F2HC/jcjjzGy3AklFzKZTfryyoiidOLl2dADnHVOKoBCGQu+tqePO46HO13QGZjMyGo1OWfOUfBh07Lob1Mx0EGBClx+zaKBARfs0NQOKO5O7vyILidEuXgwNy6ncmTnGaIEmdJMzQySHtgQYfPpu/OFlkEC1tYPs7hDAiS6y1VQPBu9I4xSVdz9AMEZ7+uzIUeLYNwCyimVxY/XwIJ0TBgnZcEEoSJgTQIKxpLg0AZCz/w2Cy2BYQqXrJYxTs35ELrS5Ba+6YnCkK1Xd/6g+LC7M8puGx5RhSXIhBK+0gbEGi5U0VLihAI0uLQ3n5an4KnzVOxpFPBZB545ISG3x2jSp3hEiB/lPeemsV5EbAYJUcGhCgJBX8vAOF3B2wTg8u0IAMHYse3+g83K5QHByY0+ERSWCqDuOYFq0cxekntgescr1jZB8EtkZfUSy0GL0x40zTbAQqeDd06z5XnwAkCxX/71lewHBa98OBJiuSEBD9TR4kpw9QwUPKgt585Dxc3GCDkNR0feXwWvz1GSaJKH060qbx7YwbPXpjxTaBDpzw6ouHjW/MicVIjHaRJuHplBn+1LH1ISBsQpgoQqam/9YQ/pPVkgcuXZ3DpMrcvAc35jjEN1+/J4+ER/zVgzenT56l432m5sqaYASG5+FyA4FDXuzMkOsIfzQ06KNeB2ECdb/6+SY7MbdYMczQ26KKmwXW+c0yimTOBkrNeRIDvgbPvkjwM3noTphxDzAtxAGFJZvbiG57Zf0fy2SnvzGgjbnn9R55dK0AQ+7Hfe2VERkXXOU7tgeM8P18Et++Bu+CSnz+CwQsep0UTIozUy3KaB3rDevsZcxsOEOjSfziYx/W7C4Hlksnr/w1rs3jafFU4qtG1klSmC8DecU0Ud3o8QANBC582pyT1GCIXtU+DibyOsQKkEyrNa4Pw0r9wUQZUNjqtI21AoOJHn9pm5KPwHqQh+cvFKv6aimcFhA7uHtfw2e15bBkNruDZkwFuPLcNnWWEHzIgJF9hYYAQFn0gflEiEZLfZi9SHJWYD4rQ4M21YGsILO2B18HQ3vg9kQuWWFzA4tPGu5Mm8T9wQQ5E3hoGhBppECoOCObmXdKv06Dqp2XwZli0+nGGL4pFWhoWaTxyw8MlhQ/C6XNx0YruhnJSpCsbmNLxzw/PhpbhJYe+M+eoIFv0vHZFJP7ZM67j10c0kSwp6JiTg1Dln18BB7eoRyuNYtsJTZg6do7Ll6qe36aIEtUXLcqAygyncaQNCAdpDh+Z9XU2pRwQ79iQFfMXdJDsfnnIiEShsFW/g57NX/iLHNZ1J7fJMCAkX102IBwYMzuJjj6oKRyYG3FphUZr+KY/gq8jYxBAOOSXVHvAgFC6CBtGg2DuxcYVOB7yHh8EX02B89xYkGD+lp8fg7OIk6c0tNPvQZgYzpiLi5Y3HiCQmvk7+/K4YW+0DwFtDWR2oPQPYRkBSaLU7ux+FW8+KYtlndVRoglP/qMF3PBEIVbipvltEOWFn78kHXND2oBA9RXe9dBsSRllkjpB3ftPo8yE4ZvTyKzRh5/DqnXmx87I4sn9ySmKAaFSgOCTDdFyDrTe2s3yzcYvBqdQTkVzkAQOnBu3Y/OPdE70bPiWhEMzd3h8EFiDUEMNgmerN/d+z1uny+RQvIkCIxpEp9a7vdcMYJ4f+L3DdBCy6RuM4qn0GNBeOCme3t+QgECXeWyGMirO4qGRyvkRLGhXcO1JGeHYVmam5VhPVYKEB4c1fHl3vOyOFM532XIVL16erXgIZNqA8MS4hr9/OC8KMjkPArrz5qv411PCHU3pnIKm472P5vGn4eCqWB8+LYunlOGoyIAQaym7GhsahAHcZWkQSvwCPNAQalbwy3pogIRIhWSp+kv8CrwpnB1aAK+jZEmCJPNyAs0OzjBGj3bBZBxbIN6IhTgRDB6gYBMDgNQ1CI4N2+8WKFH4ep0Tned72SEoL0IdQYIBCKRB6Go4E4M1X4+ZefL9ciLEfayRmfp1a7J44dJMxfP5y4yFtCKPntDwhZ157IqRAtowiWTxkgqHQKYNCAcmNbzn4Two1NF50GP2rH4FHzi1LTKDJAHCPz+SxwMjwYDw6SdlcUovaxBk1mCl2whA+P0A7to/5qnEWMxuaNVMMHZ5c1f1AYnSpEYx4MALDX51HyLgwP41PzOBFyAsQTpyJrgXeal2MjLvJ2sQ3Muz7gDBDyiSaBHCIEF8JxPdYDX0ODV6nRdDzA0ECG87jTQIjQsI9OZ933ENX9iRx8EyIhLItPCa1ZRnIFuVEMKgBzFBAhUHIkjY7ZMpMug8CoEUeRIqGN2QNiBQaOMHH5sVTobewyhUlcUpEfUdqI93PDiDQ1P+kiFnx2+c0yaKOSU9WIOQVHJmNUcHIJTUTCgxLfiZFZx5CLxJjQDFVbq5+NoeqFFICQ6KuGLKKyi0UTSMCQie9qxBqAMNgrEFh5gVrPumQSGBfBDedtqchgYEmgKCBHqI37A3L3IjUAVA2YPAYEEb8KrVFBWgFmvHy3aQQjuChAeGNXxlVx57JuQdF/tzwMtXZvCXS7IVcVxMGxAoF8X1u6kkdumEGVEMGfzNmuB0yQVdx20DhcCqnjQ1J/co+PST2kJzYkRNIQNClISCvzc0CIO2iaHoO+BnWgh2YPTb7A2zgmpoHYLMCn6aAwEIftEG5qbt89Yv3u6DHAzjag8YEJIvKOeZtdYg+AJCDC2C6/zAEMkEPglePwWPj4ExREcSJtMngT6n8qtWamYBCKcSIHQ2rInBZjQAg5M6fj5UwB+OaSK/AZVa9suTQPc/hUHObVNwep+CFy7JYEOvKhwU6+WwUhDfuLcgNAl+1+E3VnJcvGplFhcvUssO00wbEPI6cPtQAV/cmfcNV6X5uWyZKsI56d9OnxDKoUAJk768y8io6eeFQu2vXZfBi5Zly5pWBoTk4hPlnn9nAIILDsxN0k4+5DUt+OUtcH4W4HMQZIZwvd07whKjohXs85LCgR8MxNUe+PTBGoR61SD4AYL3M8fTyjc3Qkn75JDghhgzrNEVBulwhvSYG2wNwrLGBwTrEUYb655xDQ8M69g5rokMfRN5CK0CbRgUEkibzepOBWf2K9jYq6KrnsjA8Syma/nd0QJufKIQyyeBNAlUqIjAp6OMa0sbEOhSKeERpbv2MzPQ91TRkhwWz5mrYnGHAQlU0InOu/OQJjQsQfBEZopPnJkry7xAY2BAKAcQYPsgyGgPvCaIYM2B+UbvBQlrM43rc+BjDiiBB+9G7Re1YBBF8ZBwTHTBS5Co2cRQKpmqaBCCNnzHcCKTJvn1US4kOPu0lQE+IBGkTdAMta2fJsFIpgQIH4RT+3BREwGCNW10fZSA6NisjrFZiBwItFd2ZyE2DEqeVMbemfyJGfNM4WNxTMPX9saLbujLAZcvM2o3dCa80GoAwmTBMBNs3h9cyZGet+SISUWr6FLG8sDhGR2kRQg6yETx2jWUlro87QH1/+CIhv/clsdgSDEpqo/x7ae2oauMhEwxl0ZDNCd4IxPD3RTF4Ny0LSdEp3nA/szwViwNZTSjFXx8DoIdGC2zgcN84SqgVJoh0bVhR2gOSjZ3rxZSAhDiOCdak84ahGppECQAQTSJyqxYCUgw+/DPyGgujchcCcZoxeGChFJNQtYBCAn3kIZ4SDX6IAkSto7qIvvj1oDsj37XSNkgL12awZUrkiVTIq3Ll3bl8bOh8EJK9Ez89Fk5bOpNZqOhCBTKivnH49EFm2TmkkZx/nwFb1yXxcL2ZGOyfocKeX1vf0FATFhRLwKEm56aq1ttlIzc0mhDrykfEoAwbgJCsO+BU8PgV4bZYIkAzYErXNETbpjEpCB2fsfa8YRDWrIKrNboPd/vb7MTBoSEK69eNAjSgJAUErznJcmVkECTQC87bz21BxeSBsHHLpZw2vi0FCQgMi6OavjirgIe9/H6D/rJXhMSLl8RPy0zaRAISuQAIYtNvcmyFVrhnXRtu2Nkk/S7Znqkn9yr4A1rMzi5l5xOk08GaTd+clDDdw9oGJ4JdxalrJ03npsLTAudfBSNfabQIPxhEPcMTNjboTussfiGXwIIno29onAga1JwbuyeZ2QsOAgAhEg4CDiPNQjV1CD4bew+96WUFqFks3d3FOiT4DwvqHaDQSrGUQFNAgHCdaf04KJlHQwIDfAcpqnfIvIkFLAjRp7BYy+GAAAgAElEQVQEMqtcaVaBpI1M9qgWIFjL+vFRDR/ekseRiCqNYeNf3w2hOTi9rzw4IO3JL4YK+NpeDRRtEXXQvfTls7NYVq1a3FEDqpPvCRA+9IeDuHtg3AYEOyxRrEVvWKPqb1pwmR+M8/y0DOY3xm/F0BxE+ht4NupQOPDb1ANewCIBIeA8BoRGAYQguAgIfTQehmEZGT0ZFr3tY9VvMB+9jigGZ5GnLHQGhDp5kMoOgx64lHHxa3sNSJCNbiCfhJetyOB5i+WjG6oJCBYkDExq+MpuTUQokHOpTMQqvQySpuTJ/SquXqlibRl1F2gcMwUdvzxC4wj2i/DO1+ouw8yS1N9Ddv4brZ0bEEzVP/kQyPgeiM3Rz+/A7MfP3OBTI8E3UiHQwdDhs+AUdlB7k3Fc8yLhd+ACmbBJZUAIlk7VTAxBm7xnaKFKRm+WxZK/S6+zLG1CXE2CI/2yMRIdFMVw3cnduJA1CA313CWfhPuPa7hxXwHbx+QhQUQ3ECQskYvcqDYgWJMwntdx7xENdx3WRF4LClcNOujNnUJVL1io4hkL5OEnqD8yK/zykIav79UwKqE5oH4Wtil40zoVz5hP5cUbaimlPtgSQLA0AV7tgQUDjrd+Q5gUueL0O0gJDgJ8DJwT6vu2n8ApURoOREP/BcUahGprEMqFBL80zH59BqVktm5Vv3wJQSYHaUgodVC0AeGUbly4lE0MqT8pK/wD9OAlSKACT7SJyh4UDXDF8gxetFSNfNutFSDQtdD1PTZKeQ7Cr29uG/Cx03NY1UkqZ1kp+LcjU8LPhzTctE9ec7C0Q8GVy1UBXWIj48MlgSIgTBRTLdsFmRzmBS8gOP52RTM4oxscUREuLYH5ubTmIC04CNngI00LIefSVwwIJiCMzGJO1e65oE3eM4BATUJCSLDZwFu/wQsNjuRHYkuw/o5IzWzmbi6GPJr5ECjM8a0ndzEgVG2BVfaHrLTM1++JBwmkjn/JMlXUbwgrFV1LQCBJkcPiF3bl8XBIMS4KffzMWTkQKJRzEBz85GABtxzQcdxTPCqo32UdCq5aoeI5C9Wy8k2UM+56P1cAwh+HcNeBcUcEgvFm7HU6FJumHcJoOMt4tQdOWDB8ECwoK2oZrBgG0YHQPphSot80PiyKzQ8OwswJntPt3/CbCB9gLPn9sAkMAU4ChKWZ2YtveGb/HbVaAzXHYTIxVBUQnJtuhNRjmRuC+vV58YtMrBQW4RDouOjIn2C10TRQmCMBwkWsQajVPVb279IDeNuYhi/tLODxGJoEgoS/igiBbBVAIJPGjw9quG1AExVCZfQxi9sV4e/w7IVy5pqyJ7pBOxBRDH8cEmGOYkN3aA/cgOAFBm8eBMN5UWxKpsmh+BbuDn10axOKcGDs7R44cG7CccHAGot3bkI2dinNQVC/jt9hQKiFBiEGIIimYY8SWW2C0ZHrSAQJkeYGR7lo0x9BRDEIQGjnKIYGfQDTsOkhvJVCIHcXsC1mCOSLlmZEkadun2KHrQAI5N/w40EjUdNoXm4RzM0Br1yVwUWLVLRzApFQoQUBgqih4Njs7agEoUHw8zMwgMGlQbDKPzr8FsLMCqXf+WgSvBDhpzEI28ArAQcMCHI3Yk00CLWCBA8oVAwSHBEMBtKY6ZjJjkVRDLYGQW5OuFV9SsBpbogT3UBgcNlyVVSBpOySzqPZAWFaA356sIBv7C1gMsQR0ikT0rwQHJAPR4Z9DiJvBgsQ7DwIQoNQal4QgCCiG8zIBY+zIgGFM6zRT3tQcTgI0qEHzXuV4ICEzhqEWmkQYgJCpCYhrD8/LUNQimZnP7bvgV/qZfOedZobbEhwmxpyMDQIFwoNQuS9zg3qXALCcXFYwzf3FrA9RggkZVy8YrmKFy7NuBL9NDMgkOaA8hx8fU8BUzKxlABIc3DNygxewHAgfSe4AMHyBygBhBDzgjArBPgrWBUWnU6Jtk9BWLVGCc2B3/MwARgYCoiYD1cJ8GRAqCUgVBMSgn4rqpaDJCQ4NQaGU2PR1JAjDcImBgTpp10DNLRCIL8ZM7qBiiK9dHkGL15WtKk3KyCcmNVFdsjv7CuEhlA6p5t8DsghkfJIZMpJz9gAa6iSQywBBDO8Mdj/wJsoSTUMCY76C2ZmhGIIoAkRYtwOCHFtzl5nxCB/gzhgIGEKSAMOWINgrtCamRisO0QyqsF5Q0W6OIX1GaJR8K/P4E6q5IYBT7ZFHy0CA0IlH4X105eVTIkg4bEYPglG7QYjuoH+3YyAMDKr40eDGm4ZKIiiTzLH8k4FV1DZ6cUq2hgOZERmt7GiGO6mVMvCSZH+Y5kSxM5v7utWBIO/NsHte+D2XwhySgx0SPSDg1qDgQRsOAXPGoRaaxDKgAShFJDxhZZ1ZLQ4wNmnU4MQEdlgj8UBCfSZMDFs6mQTQ6xHXmM0pgfzzjENX95dwMMnZPzyjevqygAvXKLiZSszYjOsRi2GIIlWOszxRF7HDwc0/HCwgOFZuXmkktEvW6ni/PnReSPkemytVjYgDE4aF+4EBK+/QcDfzlDHQO2BJ5yxRHvgE85YBAvPnCQ0JVi9xNYaxIQD1iDUiwahTEgoCxQCMjEGahJ8QxwNLUIpIBgjyyo6rtvIgNCsj2zCAoKE/94VDxKodsPzFmeEX8KNTxRSL9ZUDUCgPAc/HNRw64ECTuRLAod8h7CkXcGrVqs4f0EGcWpYNOt6SnJdcQHB1i6YsCCYQmgeyNRQmvPA2FstjYI5whKTQ6nPQSw4kPAJcAFJXEFJ9u/sljUI9aJBqBYk+P1OFCR4sy56YcDggCIkuPwWCBCA6zZ2sAYh7g3dQO1p+neYVSDjmBtIk/D8JSqOTgP3HpUp95y8mmPagEBOiD8ZLIBMLrLRCuST8ca1GVywKFNWRcgGWiqpDNUFCJH+B2ReMM0PJiCUpT0I8DuQhgPJjTuRxsBWN8R0YDTPY0CoN0CoJiiUgIHLY1GMxKUVEB9Q+KL1jTO1cpAWgQEhlSdiHXZKS+PREaPAEyVTIkdGmYMKE5LJnTbVsFPoEffps+oTECiU8WcHC/h6jFDGOVngtWszuJjhQGaZhLYxAOEQ7h6cEOYF+n+KGeponGj5HBhg4HVeNADBEeLoilwwIhysdAhWru2iGcJRy8AZ6WD8bPHwgkAdg4E1aAYEAQjj1c+kKHNLJHBe9HYb20fBqy1w5lcK8kdwfW5CheMzw8RAGoQ2DnOUmfcGbkMP6odGNGEyIE2CbBVImUuuV0Ags8LtQxpuIDiQDGUks8IrV6msOZCZeIk2BiAcxt2D4wZtBuU7sPwPPNEKFjAYZgRzVzdzJBThwPG5FVboyaNgv7B739xjwkFZ2oIytQZOcRuAMNPqqZbrFBCsN3aJG0SuSQgu+ICBVYPBfqvzhDz6+h3Y2gVL22D5ILQmIJDIxJu0AlAyvGSKPrnZrZdW9LB+eEQTiYHimBuixl+PgHB8hmoraPjuAXmzAjkkXr2C4IALL0XNuez3iQAhlnmhmHrZ1Ee4wh8NJYWnAoITCnycF73XVhEocIxDVnZh7RgQ6lmD4DdzFdAqCO7wU+Z6AcABKL6Q4JskyVA52KGQumViaMeFS3Jik2zmg+R0bAbYPaFj34QuvNinNV2AQVdGwcJ2YFWXgjVdivDkb9aD5LD1hI7/2VvAIzGiG8LkQTL8TzIx9FR2Ee2ZoGJNhdBiTTRvnz0rByplbR3HZ4FbBzSRJVE2fTJVg6Q8B+cvUNkhsYKLnxQ3H/7jEdx9kMIczS3cL2OiU4MQBQguJ0Sf2gzOTV8GDnw273qEAtYgeBZm3ZoYom6gMmFBChIcv+Gu7Fj0P7D70Uz9qg8gXLuxDRcuaV4TA0nj4JSOuw7rIsvg4Wkd4wUjxp/ebuiZRZrPjgxEquHlncCz5qt46jxV5AJoxkNEN4zq+MqeAh6qACQIQDgzg029pjd5hYRGMPdFGUA4M4d+s5oj5Tm4RcCBJqIVZA6qynjNShXPmE9VGWXO4DayEqB77MP3HcHdQxPmKQEplWUAwYpssADBDmow0zdb/gnODd+u4Gj9vNscIT71mBnKhgNJHwZZGfq1Yw1Co2kQgmY7ISyUQEKUFsHHzEBDcmoMbA2C+MIwMVy7oXkBYVbT8btjOr69T8OBKR2zWnR4m4AFFTijT8E1q1Ss7yZ1czm3cn2eS8tl17iOL+0uX5NQL4BAPgekOfj+gCYdrbCgDfib1Rk8a4EKKn9ejwdtsjOiRLvh59cm/PkaY1HKA4Ijg6KvBsGZXMnpnOiAAw8YJDEtJIaDKs8HA0KzAIL3iRMDGMqCBD8zgzPhUpMDwkwBuHWwgO/sl98svFNFNunXr1Fx9ly1KZ04aYlsNTUJFN2Q1HGxHgChPQP8YLAgYJAiF2QOCmV8/doMLlxYXxBIIDua10WCq/uPa9g1DpBmpAAFKnQsbFdwSq+Cs+cqOKlbEZqvejURugEhrOaCCQhmNUc7vNHc9OnKrTLP4iM7eiEcEFwYFRD2aK2V2HBQZShwrmkGhGYFhJjAEJpi2dQEGJqCYmply4nRdla0Mii2CCBQIZ5bDhhwkJcM6QvaUOhhfN06FU+ZW1+biMwGKNOGlgY5Lt6wT8Pjo/IhkM6+aw0IHz0ti/87qsWCA9IcvMos2VwvGiICg4FJHb8+puGOQzoOThtag6CDNAkbexRcvEjFk/sVLGiPvcXJLJGy2gQDgpli2Y5aCAAE29/AAAERCmlHMwT4HzhAwAYECcfEUOnVEAbYxBCwBBvWByHpLeXzNIjUItiaAvNHLRhwwoNu+SAYuRIss0NOAd4iTAy5pnlDJiD4+ZCRPXC2TDiwppE0Cf+wQcXGCtvYky6TSp9nhEDquGlfvIyLxTev2vkgzMkZPiM/P6QJvxKZg3wOXr5SxQULFSNLXx0cVBfivuMafjCoYWtMbQ5leTx3noIXLVFxal99abt8AcHUEvgWbPJqEIIAIa7/QVLtQZ2sD+8SZQ0CgBfXax6ENB8oUZAg44vgaaOHAILhg9A8gLBlVMdndhSwd6JCdGDO9VPnKfj7DVn01thxka5qRtNFoSFSpdNzsjMDdGcVEPAlPehBTuaGbzxRwIMj8WRXSw0Cvf2TX6EMDNI4KVKFohWeOV9Brk5UB+Q7cechHbcNasKhNp70izO+rlvBVctVPGNB/UCCBQh3DU2YZoHSokyGP4WpITBTKjvhwVV/wcdB0XU+icPWNDjuhhBA8NUc1CkYWFdEgLCs1fMgtCQgON78nQ/7ksyJznYixbJDg2B9Z2kXWgQQaMO8fndBvE2SujbsoEcS2W1JbjKZBSn08dp1lHq3Np5seU3HtnHgoWFdwM9w3nC6pIPeIEllTvboM+eoWN6VDBZIFnvHdVy/p4D7h+U3qloCQhwgohDWq1eqeOrc+olWoDm8+4gm0kAfmo5zNaVtaR7oGl+9WsW5dWISE3kQ7CgG0wfBR4Ng+BQ4ai5YiY4U8j4wsimKwwkIVgij4zs7IsEZveCX68ABACWAUOdwQGJgQGhVDUIVAEH8hKjmaEUxNIcGYduYjv/aUcCO8eB3MHqIntqr4LmLFCzrVMQmu22U3uA0HAx5QNPL5jlzFbx7Y0bkTajWQQ9Yyldw60ABdH3kX2GFaFpXacEOgQLlAzhnnoqXLFOxuD3+OJ2Q8KdhuXfZ1ABh3AxzrEAoJpkV/ma1Eb5Ktvt6Oahi5ce25rFvMjrCRmbMtE6fNEcRdSRWd8Wff5nfiNOmooBg5zSw0isb11cs1mRChg0S5khDAKERtQcMCOa8sgaheCsm0iCYsOE1MdiAQGGO65vDxEBb2Y8HjTexoPh32kBftUrFi5dlXD4Xuq5jJA/85/YC/nA8eFOkHAnv2pDByVXyRSDV83f3a/jBwfiRGPNywLUnZXDevGTOlZSk6Eu75MwNqQGCRB4Emc1qbpuh/Xn6PPMNVuakKrShlfbJbQXceThc3UX7W18GWNKhCLMSOS9OFYIHSOGalBHy8uW1r0JZNUDwMSGUOCj6OCo2ovaAAYEBoeTuD41mCDIxWIAgPBOt/xldCw1CEwECPThveKKAHwz4Ry4QHFAynJcsywS+QU4WdHx8qwEJfphAb+evWZ3BJYvTfQW1kjt9Z58m1M+yYXveRZOla16h4tKlqvBRiHPQcqHQxy/vLgjfhDBdQj0DAvllvH4t+RxkvPlw4ogjlbZD0zre/XA+0LmSpoxMBi9cqgjNR2/G8DkhTdfthzT86pCGIzOAH15QVsvrTspgfYWzW8YVROqAYJscPAmQJE0MDAhxZ7TYPt4TJfnvBJ7JGgQfDYK56Ru7fPGxTW/Brs8cf3uTJTUjIFCcOG1mvzzsv5U9pV8Rb9T0FhZ2kJPjhx/P4+hMaStyBrx8WUYkUErz5jgyo4PggDYBWc/8oGvqzgBXrlCFh3tcSKDf/m/y6RiKLvdcq0yKUY8d2lRP7au/8D8a96EZI1mV30GmAkrW9derVKGx8prFCRoptPNbT2gYnCrtg8wob16XwUWLauuwyIAQtUKTfc8+COyD4Fo5UfkQpAHBoIOm0yBQCmXazH59tPRhSW9ilmmBNAlhx8gs8Pmdedzr0w89dC9dmsFrVidT28s8CmhTthL+kL9BJY6lHUa2QEolHMd9ohkAoRLyq0Ufc3MQ/i5n9QfD6ERBx41PaKIolZ+WiTRdb1iTqWnKcAaEdFYPAwIDAgNCjHsrDBDozf8tFIEgkTGPNmXKB/C9A6WK22oAwvYx0mAUQOrnSh2Wg+XrV2ewIobjWs0BoYJOipWSZbX6ee4CBe/cmI3MT/K7Yxq+sMuoMeI9KInSe0/JYEFbmvqucIkwIKSzYhgQGBAYEGLcW8OmieFXPiYGKsDzt2sNdWvUGzQVciJHx9sGSgGB+iETwytWlqp8Yww1sClZhT67wwjTDMMDAhV6w+zMKCIlL1UvjEqT3J2FeJu8MIbKudaAsGPMqOZIZp9WO/5uvYpLFkdXjiKg/PdtBeyfLJXR/DbgY6dnQYm+anUwIKQjeQYEBgQGhBj3Fnl1f/2JAn40WGovJ/vt5ctUXL0iA9oow46j08DHt+VFHnzvQbn7X706gxcuScdJkXwP3nh/PrDQEMENhWhesVwVzmdkOqEwzS1jRrQDhUGGbaXPWagISJgn+UZZS0A4kddx8/4CfjioJ3bSjLF86qopbefvOyUjHBOjjsdHNfzH9gIOTJa2pKReBAiUQKlWBwNCOpJnQCBAuGd8eCSPOemIuJ57NVIiOw9fHwTDmUActg+C/Zn5nYhwMCMYrO+cPghNkkmR3r5/OFjAjfs0jPqU+aW3KApR3Ngb7LBGorzrcAGf2u4fCbGsA3jH+gzOmBP94E6yun56sIDP7gwOeXvaPBVvW6+i3ydl4qEpIwviPUf0wPoT5KD5z5vkPdtrBQjjeV2YeDYfCHeOTCLjRjnnrSepeMGScA0CrdfbhzR8bW8Bw7OlV0Zapo+dnsGqrnTWq4wsbUAYnBB11Y0MiUbhJXEnimyWziJOAVUdrWJNIu+BI2LBL4pBfG3e5+a/xVjt84zvHa2Kl9IASZJosFmVMym2LiAkSLec2EmxSQCBbppHT+j4/M4CdgekWab0uq9cpWJlZ6mJgDbD7WMaPrnd3yucHidnzlHwTydn0BczZFDmQUrzR2ByR0BMPGkvPnFGVqQK9jtos9gzruMrewr4c0AWRDJN/OOmjMgkKJNluBaAcGLWKNn83YHobJgycm3UNk+fp+Ldm8LzGBybMeb73iP+RbZWdSr44KkZLIqI3ElTRiWAIKDAAQjOAkxRmRT9EiW1apgjA0ILaxAYEBI9s8ir+8u7KPGM/1s0vUdR1bvnLVaxulsRdRUozfLxGQMuqFDOgE/IGA2GziVAoIQ7lMq40krbggb8wyP5QHv7RYsUvHN9NjSWn67lR4MFfCtAi0JjfvM6Fc9f4k4UFSTsagMCbXi3DGjC/0OmtkKiRdIgJ5Ep7E1rjeROfuGpBFI/G9IETJEPit9x/nzKhZAFFbSq1cGAkI7kWYPQyiYGBoTEd9WfhzV8ZmcBB6eCuyDV69puBf1tCmhjPjStgzIHTkaEFVI0xDPnq7hihSocvyoJCXkNeOuDeTEOv4PMI+RgGHU8MqLjc7uCi1VRuuHLlmekCjtVExCOTBtwQCF7UxJVGUn2PVmgg9TWUUKp0+8nzKJbfsOja1rUDhF5c958BaQNaFcVzOo6KD0zheHee0QLrN9A/ip/s0rFpSGJwaohFgaEdKTMgMCA4FpZqeVBaCITAwmMNrXbBgv42p7wSABqSw/huP7xBAnnzyeHRxVLKwgJBAhvfygfmDjn/23K4FkLogGBAINSRpPDot/x+jWlqaZrrUEgOPjegIY7DmmiSmXUQfNGhakoQ+TSGqrPo8YZ9T2lTKaolSBtCV0nFQmja1zUAfRmFIwVdAG/pOkKA9rlHQreJvxlagtQDAhRqyDZ9wwIDAhVA4QLFkfHWydbxrU5i0IVv77XeBuNCwAyI6ZkS0+dq+ANazOgULJKHPQg/ZfHCvhzQKnly5apoM096qCQwM/t1Hz9MMjvgMLnnrMgOtzTgi3KTvnzQ/42bmsstJF96owMNvXGf5cn57rvHtCEulwmMRT9Avlh0NvxX/RTyeYoidTv9xSBQiGKvz4WvUrpumn+aJ1EtaZ2z1+s4pUr1ZqaF0jyotzzn47ibstJkX0QKrIgGRAYEBgQyriVyB7/5d0afjykReYISPIz9MCmQkjv2aigTcbjL+JHyEnxK3s03Dro//inOhBfenK4gySd+bODGm7Yp4EyQnoPUsm/92QVp/fJpYombUyagEBAsHl/Ad8fCI688F4DAdlb16misqbtzZ5kAuvkHNL0fGBLIdCPIMkwV3cZ/gtU1bHWBwNCOjPAgMCAwIBQ5r1FKliqZ/DjgxqGpg3zg8wRx/Rw3jwFb1mnYn5b+arc3x/T8G+PB2s9XrhYxatXKejJlf4WXdrecR1f3avh/oAohtP7FLzjpAyWdcpIwZBXWoAwngduGShg8wF5OFjQBlzXRHBAs0Apkn86pOGmfXLmlaiZI5C8crmKv1pa2xoM1jgZEKJmLNn3DAgMCAwIye4d11mkxqWCOJQfgBIKkb2b8iTQ5xYvkEMXmQ0ofHFBO4Rtl2z5pIWIOggmnkHhkysNx8VylAlU3vkdDxUwEOBgSf4Pf7lIxQWLFCxtV0CZHekgpz4KcSSTyv8d08W1eQ+KzLxyuSJKAJNdW+ZICxCOzhh5Dn485D9W79hIxiu7FLxulYqnzHXEwctcRAO0OT6j47ZBXWTQPDEbbUIIuqQ5WeAvFyu4YkUGPZJznLZ4GBDSkTADAgMCA0IF7y3aNMmxizzAB6cBqv5IzmG0+ZAnPEU2LOtUsKaLohqA7+zX8MgJOUigvEWk8r56pYp1XckhgYJXbhmkxDfBCYIolwE56J3SC1trcXgGoOiFXSFQQ2rnN69VRZInWcVzpQGBeIsSOlGOg58NycnWckh8xUoF585NJ8V1BZdZ4q4ImqgS6S8O6RiYDM+I6QdQFOVwyWIFFy9Sa1qcyTs2BoTESyL0RAYEExCGWzGTok+Yo1F/0Ty8pZ3pY/Mz/4RJupFp0T6vWM3xug1taDYnxbA7i2RID628XqxfQBoEesO23v7pO8qLQPkEyOlPRpNAGoiz5yq4ZoUqQihlN2HvWKnoDiVresgn1bOzrTVm+oxAJ6wWA2kMLl2qiHTTcUo+VxoQDk4Z0Qq0EUaFlNJ1kQwppfTVKxRQue5cOeqZdJ7TFe11vKDjsROGtuv3x/XIiA6Sz9w2glMVz56v4LS++nPatADhrsEJKGbWREqUZPiPUFZFy5fE/DclUTI/t74Td5OdfdFcGeJ08xyrvfjKzJDozIjozLxozZhIsGStMsc0NkgmRboXlmVmLr7hmf13VHQRxugs6TMuxk+EN6VUywwIhoyiwhxp8xcA4YUHZ6plByCQpTun6HhriwGC7OIkSNg6quN/9mrivxLWBtDb/dn9CijXQNI8CfRA/dOwUbo6yNQgew3UjkCCxvTGtSqWxQwJrCQgUK6Jzfs13HVEl45WINB65UpFRCtUwhE0jtxq1ZbmnxxMn5jUxDogzRCtA4rMIVCl+STzAa0vStxF/1vdpYhohZo/sH2EJgMIdtrlgEyKTkCgnxA6sAhAMPo0jwBAMPDAIzUGBOmlX/P1xoBQnKsoQIibapkBIfo+oIfbvkkdH99WwJ6J6PbWhnxGn4K/26BioWRRJG/PtDHffUTDN57QcGxG7neDWp3UDbxzvYo13fKmBauvSgHC8Azw7f1GuKSso+jSDsMTn+AghczW5Qm1CmcTkJJZbLoAkfuA8kPQ31nylckRJBA0QYR51vxBHSIPBoR0FgtrENjE4FpZDAjp3GgyvQ5O6fjQ45SdsOjYGHXeKT0K/t8mFfPbk5kbaDOgt+3/3a+BEupElXP2joc2jk3dCt6+XsXyhOV+KwEItLERHPxgUM5UQ9dB0QqU0vpcEcoYJWn+vp4lwICQzuwwIDAgMCCkc28l6vWJCUphrOHxUfmwPNIk/O06VaiAk+TzoYcr+ULcNqjh8TFdVOyLAoUOFaI4z7PmK3jJMgVdpJNOeJQLCMMzOm4+oOG2g3KAQyMlzQGZQ87pb16HxITT0ZCnMSCkM20MCAwIDAjp3FuJeiWVLyW1IcfFh0bkVOXkk/XkOQpesUrFhm5F2I+THCfyOv50nPIGaNgxHuwNQar4p81T8NJlKsi0UK5TXzmAQM6WViijjJMniYZ8Dl69iuCg+UIZk8x7M5zDgJDOLDIgMCAwIKRzbyXulTa6neO6CIEkBzK/fAMlqn4FIh8+1W44pTc5JFC/lBny1sHgbE+UJ+F1q6laY3x/Az+hJAEEwpchM1rhdkmfA4IDks1VKxSc3S+XBjrxJNF+dQ0AACAASURBVPKJVZUAA0I64mZAYEBgQEjn3iqrV4IESrz0zX0aHhiWs6tTngQKQaO34409yfMkfGW3JvIkBB0UzkiA8LwaAsLQtC5qK/zqsHy0AsnkFStVnDWn/sL0ylosfLJdiyEszJGjGOIvFAYEBgQGhPj3TVXOoLei/VM6Pr+zgIdPyP0kmRdO7lFw7Ukq1nQlszXUOyDMb4dwqrzzsI6piNLZJDXLrEBQQ/4a5KHPR3NJgDUI6cwnAwIDAgNCOvdWxXql7HcfftxwIJQ9KNPi+05RsbA9PiTUMyD826kq7juu40cH5bQqJK9FbcA7Nxhw0AyFl2TXQCu1Y0BIZ7YZEBgQGBDSubcq2iulbP6P7RoeHJGPbljRAbx7UwZru+L5JNQrIJBAyRmTsj/KOiQuagfefhKZFThaoaILss46Y0BIZ0IYEBgQGBDSubcq3ivVePjqHsNxkarzyRwbeoDXr8ng1BiOi/UMCDLX7DQrvHENaQ44WkFWbo3ajgEhnZljQGBAYEBI596qeK9kYKDqj5RKmHLoy9jfhU9CL3DNygyoDDM5MkYdjQ4IdImbehW8coWKJ/dzEqSo+W6G7xkQ0plFBgQGBAaEdO6tVHq10jJvPqDhN0flNAmUt4A8+KkK5JPmRKcUbmRAsEIZqfDSk+ao7JCYyiqsv04ZENKZEwYEBgQGhHTurdR6JU0CmRtu2KvhN8fk7PGkSVjbBbxhTUaEQoYVLGxUQBBVGUUSJKO4ULkJnFKbQO644hJgQKi4SEWHDAgMCAwI6dxbqfZKkHB8Vsdndmj443G56AbaQJd3Av+wMSMyLgYdjQoIKzuBN6/NiIRRSbNJpjpp3HlqEmBASEe0DAgMCAwI6dxbVel1vKDjk9sNSJDx7KdBkWf/v5ycAYVC+mkSGhEQ6Jr+br2KMzmUsSrrrt5+hAEhnRlhQGBAqCIgZJDlsnkVv5MpBPJ/9mj4v6M6piSjG5a0A29ZZ4T/UUVG5/GV3QXcMhislah8qmVdpHemMs2ykGONl/QgK0hzQNfSx6GMFV9cDdIhA0I6E8WAwICQPiBAx3Ub2nDBYgKEdBZyq/c6NG1kF7z3qHzq4dVdwCtXqji7X0GbAxKu30OpliUAYXFlJpNqMXxlT3xAIO3Hph4Fr1pp+BxUZjStvpIa8/oNQDiGuw9OQBFqMQVQCRjNf9N/FVojxn/Fd9a/Xd+pxvcARKURcbrnXPrSetERfZqH4zNbiuZnJauzQV6UGBAYEBgQGvOZ6Jk3w3Hx+wM67jkiBwn0HF3XBVHgyQkJUoCwimoxVGZTTgIINPbTexW8fIUinC7Z56AJFnEZl8CAUIbwQk5lQGBAYEBI596qeq/FCoe6qFMgk0yJNto1BAnLVZw71yhiVO+AQMoOgoJrVigiARTXVqj6Uqu7H2RASGdKGBAYEBgQ0rm3Qnud0XQMzwJjBUOL2Z0B5rbJJTIK65ggYXhWx437dPxsSC66gTZccvL727Uqzpmr1DUgkKw29Ch43WoFJxMcsF2hBqu3/n6SASGdOWFAYEBgQEjn3irpdUrT8eAIRIniR07oGM3DdsrLKDp6sgpO61Xw3IUQJYm7ytCbz2rAf+3UcOcROUigwfZlgX/apOL3x/RoH4QamRhWdxq1FSjxU4OYccteXboOULTKwBRweAaYygPtGWBBO7CsQ0Fv1oDMVj4YENKZfQYEBgQGhHTuLdErBRWMzur40zBEBcKd49HFluitmHwDXrREwVPmKujLJbP1k5biv3fruIuiGyTKIluQQJtOWOVIEcVQA0BY0AZ86gwV89qSySPFaa541xTNcWwGeGxUF9EpW0YNoMw7eI80P3054JQeBecvUIRPRn8bWlKrwoBQ8SUoOmRAYEBgQEjn3gI9tHZN6PjxQeMhPyG5SVvD6coAz5qvCFBY051sUxyZBb47oOH2Q8YGU4mjVoCwqlPBF5/kicmsxAXVWR9jeeDPIxp+NgQ8MqqDtEFRB/mSECj85WKj4iWZq1pJq8CAELVCkn3PgMCAYK8c4+XE8YpCuk3xUfEz3fuZ+Td9Tv8n2tptqDcdWeh4awuGOW4b03HDPh0PjcSP77cmhawM9MB/zSoDEpIcR2Z03DYI3HFIw4kKQAIDQpJZkDvn8DTwkyENPx/SMZJgrubkgGfPV/CCJQpWdLYOJAQBgiu00RPmSIYZEQYZEOZohEG6wxyNsEl3mKP40+czVzsjqLJ4NIh9jAEBwKX3jA8P5zFH7hZuolaOjd+6KrHJ239UBhByZh6EC1soD8LBKR2f3qmLN0AfMcdaRPRgoSJLbztJwaL2+JBAs3hkBvjhIDkuahiPqcnwDpYBIdb0STcmkPvf/Tp+eVg+4ZVf5zQ/T5tLxbkULO+Iv16kB1xHDQkQPlThPAiygNDseRCWZ2YuvuGZ/XfUarprvoIZEBxMwIBQ9n1Atv/P7zIe9BLaYanfIxXy8xYpeOOa5EWIjs8Ctw2SNkED5R5IejAgJJVc8HmTBeB7Axp+MKiXDXD0Kx0qcMkiBdesJCfGmj9iKy8wT48MCOmImDQIDAisQSgqDRgQyr7TfndMx6d2lP+m7h3IvDbgbeuMUMSkBzkrbh7QsXm/5pzpWN0xIMQSV2Rj0vBQ5Mj1ezUMTkU2l27QkQHeeZKKZ8xPvl6kf6zGDRkQ0pkABgQ2MbhWFpsYyrvRpgo6Pr5dw33DEE6Kfgf5FVDeA8o9QG93Y3kdh6bpzVFxeal7z6XznjFPwWvXqGgr45lPHvLf2m/YueWDIIujaVZAsGRRhmgTLZ6jM8DX92r4ZUhIKs09AeI5/YooaU1j3TYGPDii4/BMsI/LSV3AJ85Q0R5W3zvRqOvrJAaEdOaDAYEBgQGhgvcW5Tf49M7gN0GKTHjqXOAly1Ss6qSQNAMKKE0yRRrcfUQHmQKCDqqZMCeLslMLz5phdAwIAKn3D07rODJthKVSXoFqHrvHdWw+oAs/Eb+D1szT5im4YpmCleR4aBIMbYr7JnV8b8CIkvHLnElc8K71Kp69oNrYU00JGjDOPgiVlzkDAgMCA0KF7it6SJF9/zsHdFComvcgU/BfLVHwylUKOnze6Aq6jjsO6fjmvnBIqNBwE3fTTBoECj2l2hU/PKjhwKQRw1Ptl21aN878Bs6JISCkqATyJQhyUCWg/PwuDb895o97lHTrg6dQvYrmhQQGhMS3c+iJDAgMCAwIFbq3yPGP6hhQ2WK/B/6mHuDv16tY3hn8oKZsi996Qsetg5VzcKzQ5dndkAPcX69SRX6GSmymssWaKp0HgX6XgIycAw9OV1pKlemP6mS8cY0aWa3y8VEd735U8y2XTfP1lb9QMS/HgBCnmiNHMRiJkthJkZ0U7acZ+yAkf7CP54HP7TJKLnvf5ejRfNVyBVcuV0Fv4EEHnffoCR0f36bhWIipIfkoyz+TUhWdOQd4zWoVJyVM4OQcRS0AQdN1/HQIuPmAJtIX1+NB8EXagzetVSPNHpRM6U1/1jA07a9F+OhpKs7sY0BgQIi30hkQWIPAGoR490xga8pUSPUPfu2j6iXzwrXrFFy4UI30HyBV93/u0LBlLImHQIUuJqIbup7T+xS8ZV35sfbVBgRSR/9kiEw5mq8pqDoSjP6VdhW4dImCV62KXjO0Ut72YAG7Jvz7ffeG5vZDYBND9HpK0oIBgQGBASHJneNzDvkdWBoE79fkhW4BQlRYOoW6fXanhodO1C8gWNd3cg/wgVNUUWgq6VFNQKCN5KdDOr66V8NUGbkgkl5rnPPI/4B8VsicE1W3a0bX8br7NVG/we/4u/UqLlqYfI7ijLsWbRkQ0pE6AwIDAgNChe4t2uj+Zy/l0Pf3Qbh0qYJXrlRFiGPYsWOMQiWpel/9AwJdxym9Ct6x3tAkJNmCqgUIlAPizsM6vr1fC40UqdByKLsbkiXlMHjLWhWUQjnsuH9Yx3u3BBPPezepOG9ektkp+zKq0gEDQjpiZkBgQGBAqNC9Rds5ZSqkDcgvimFZB/DO9arYUIMOcm786ZCG6/dEV32s0LAr0g2lgn7tagVru+I7LlYDECi99D2Hddw8QHb6ilxyVToh6HrNagXnzqUoBP+fPDQNfGanhj+P+AMl+TJ87kwVq7sYENgHId6yZUBgQGBAiHfPhLZ+dFTHZ3ZoOBCQEY/e4khlvLLTLPDi6M1yUPzSbg27A2zJPVmIN/UyNPrSV2vUcDDi84OSPlmd0XioqNTVKxRs7IkHCWkDAmkOfnlYw/cHgcEG0cpYciUoIPi6YrkiqjXmHMUsKeHV/kldpGcmzQjltvA7lnYAnz8zg/YIzZX0wqjDhqxBSGdSGBAYEBgQKnhvUVw9vc395pjuu6nSA/+MPkXYgyk+vb/N+PGRWR0PDAM/OqiDqkD6PetpE6ZMii9ZRoBQnbdBSsRD5aJ3j7vqfPpKjGzmZ/UZMfvrCRIk5ZomINDGQSYfugZZzUGXCpy/QCkrW6XkpYtmR2epvLMuEjb5HTTva7sVnD0HOLVPEYmyaJ3tGtdFxs4to+HFna5YpgotRDMfDAjpzC4DAgMCA0KF7637juv4xHYNYwEPfHpUz80BC9uBOTnDbk+AcGgGOD4TvBEvaDOy4p0xp3oPe3orpbBL0mrsm4wWFIXaWyGQa7rkfBLSAgQKZaRohe/sl0881Z1R8IY1ikhpnJElnGixhLagyp9UFpz8CMIOCo/ty1JsOkS+AzJjkekkTLvTlwP+43S16as6MiCUuQgDTmdAYEBgQKjwvZXXIDbUnx6KdjK0tvrolsDVy1Xxdh7l0V7hyxEb0J5JHR/ZKldMiGzep/UqeNcGBQskikakAQgWHHx1r38KYj8ZkfPo69eouHBhdWVMm/3thzR8Y5+OExXMfUFr66VLVbx2jRyoVXrdVLM/BoR0pM2AwIDAgJDCvTVW0PG+xwxzQbnRdAQET+lX8A8bFXRWInVhwuslSPj4VkOTIAM0FAL5no0qFraHb1CVBgQrQ+IN+zRQboqogzZSqr/wqpUKLlqkgkwl1T5Ic0QRMJRkKyjtcpwx0TVt6Fbw7o0qyAeh2Q8GhHRmmAGBASEWIEA37eO6uUWY/9XF5zroe/E/Ouif0JGDjus2tOHCxZmqONelc6vE75Xs91/YpeHxMYA2rSQHqZX/Yg5w3ToVfTVOlUuXsOWELjayHeOGmjvqIEj427VGxsUgtqkkIJDKndInf/eAXCZK2kjntwEvXabgkkUqqDBSrY7tYxD5GR4Z9fdfkR0X8Q1FzFDVTwLLamucZMdZyXYECB++/xjuGpyAIhaaAqgqFOGro0BUuFIIVI3P7X+bnxf/dnxHAxSnF881+jM/M/9rG/y83znalSBylXyIypUxAwIDAgNCuXdRwPm0f+6d0EXoI/klUFEdiT1V9EbPuIVtRhw85U9YKKGqT+kyXN3S2y0lcLppnybKDUdBAl3H6b0Q2QA39fhvVpUCBPL5uPOQJupYUOifzEFw8JKlBhxQhEgtDyuKhcJkHzkRXMApbIwEA6s7CXhUPH0+FQWr5RVV77dtQDg4UYQCP0BQTABwggMBg2ABAgEGBOesMSAwICQDBDrLoS1gDYL/w5Ae+sdmCBCA3x/Xhcf5iRC1N72NzGsz0hhTiV8Kcat2+eGoxzpBwoMjRr6HrWNyIZBn9AFXrzByQHjfaCsBCNOajp8eBG49qOGwJBxQ8iGqj3HxQhXdNYYDS+YCKsd1/Pywjt8cDS4B7TdHHRnDFHXJIkWsH0rV3CqHBQh3D1metAEaBC8gmNoEX0CwVAOsQbj4hmf231GrtVQ9l+yAK7yUizXZkokq1mSbGDyAYHyug0DB18SwPidMDK2g7vRbZrSp0sZFGoVt48DOceDQtC7C1egGIO95shWf1ANs7FawqguYl0Pdyouu57FR4Pq9GnaNRz86yDpyWp8i7Pwbe9w5IChS4it7dFEFM0wjQbkjvnhW6a5Hpo8fDEJUZSQtjcxBpgQK/aNiSLU0KwSNlXwntoxBQMIDI7pIoRykfaLxE3idP98IoV3UDukQUxlZNUIbks2H7z8OAxAcJgVLU2BpCWxAMDQF9v/8NAjlAoLDjMAmhuSriAEhuezKO9PyFXD0kiYgXNBiPgh+k0NvOtMaRB0AqsBHGy3dABRSR1YEegukN7+a3xQSK4s2850TECGdVD8i6iA4JJ+EN69VQWWMrcPQIOj4xeFwQFjRCXzJAwg0hu8PUJ4DXYT8yRwUrfDG1SrOX2DIul4PWit0TUdnIJxdyaRzcIpyIOgi6RFFiKzrhkigtLjDcLSsRgKtepQXAcKH7j+Ge4ZoIToBoQgCdhZF8kUwQcHlm+AwO9ilnoVqQcIHwelT4OOLwICQfNXU/FnYshoESwsQBQjOdpaTouczlwbB+s5yUlR0XLc+hwsWtZaTYvJborHOpKyR739cDhLoytZ1GQWeKBcEHUkBgeCA/A1u2i8fykhv269bTYWL6lc7Ezb7tBFamgTT/a6xFktKoyUtEjkpOgFBEVoDj4OitdkzIEjNBPsgtLIPAgOC1E3CjaIlsH3cKHW9ZzLaJ8GChL/foGJlh6FFiatBINPMLw7p2Hwg3KfDGjltpv22z4EiNDV8NI8EUgMEUxtA0Qu2BsKhVRD/tP62F5sn0sEyXzjFzVEM0ouPNQjSokqhocfM4GtiYA1CCoJvri7pbZ4872/cLxfdQFd/ai/w2tUq1nRSDgB5EwNlEKTaA7cMyjnx0QOGslC+eKmCixcpkdU0m2tmWuNqioBgeqjShl4JDQIDApZnZthJcTiPOa1xK3mustKAYMGEcFY08yCwiaEllpYVAvnt/Ya9PCoEUtSl6AUuX6bg3qPAnUeifRA+dbqK2w/puO2gfCgjwcEVyxQ8Z4FS81DGllgINbhIAoSP3H8Md1PBDduMEDcHghnmaDssFvMduDQIHh8D1iCkO+GsQUhXvuG9hzkqOr9zJEayvalLkiVphn3UimQwG2YVjX0QajnHVfxtgoSHSZNg5kmIyvtA0Q0U1UBOm1TBMqyuACX/ef5iReSVoAqTMgfVLnj1SgMO2KwgI7HGbBMICM68Bs6kSH4JlMT3qmFKsGwHfhqEMEDwc1ZkE0NZi4oBoSzxlXlymoAgYIE8qxkQypylhjqdIGHrKPD53RqekCjwRJoEeghEpRimFMiU+Ccsj4RTUAQHb1qj4rx59R2t0FCTW6eDNQCBwhynHBoE/wgGkTXR4aRYBIIAQBD+B1YiJdPpUQCEsXW5NAg+gOCbaJx9EKRXEgOCtKhSaJgAEMx935HvwHhP1HWPBoEBIYUJa4wu6YFNcPBhyQJPlb4qggMKp3z6vMaMVqi0PJq9PxsQKIWm/dYfAxBsrYCpQSjJgUDdmjGxMTUIDAjlrT4GhPLkV97ZFQQEMi0IRHCaHliDUN78NPjZZDb45HZDk5CwHEUsCVjRCn+9ykiCRKWR+Wh+CXgBwbcGg9M3watBSJgDgTUI6a8tBoT0ZRz8C+UAgqE2cAGBPyBQHoQs50Go5TzX6LdJt0QhkP+zx0jLHGVGKGeY9CBZ2G44JF6wsHXqEJQjs2Y51xcQvP4HdLFUn8GRG8FVtMn83E6SFBbBIMjAoRuIU6jJPLcRZM95EDgPQsk6Dc2maFVvtM5yaQv8NQg5Vce1J1GiJLVlM701wsMgrTFSNMOWUYiERo+NVqacsXesFhxcttSAg3pMn5yWfLlfQzv1kQeGcfehaf8Kjk4HRauio73JW34FjoqPwunA9DFw5kDwMy84N3z2Qaj4cmQNQsVFGqPDuOmWZQDBqVkQJgYdbzkpi4s41XKMiWmupqQ5cEJCVAhk3KunrIzXrFDw7AUMB3Fl1wztCRA+eP8w/u9wDEDwJj8i3YLtZ+BMsSzpoOjVDNhOjD5bHDspSi87BgRpUaXQUBYQPOYE31BHsy+vmUHVdbx6dRYvXp6p69z3KUiXu3RIgKCAzAxf3avh8bHKiaYvq4uES+e3UHnjykmvOXqiap7v+cNxPGaHuJjVHIPMCY76CoamwNIWOAqh2G0YELiaIydKsp8UodkUIzQI1EmpH4KO8+eruHZ9FnMo8J2PlpUA5TnYOwn8x3YdeyejsiREi6kvp+DNq4Hz5rFDYrS0mrfFnrEC3nPfcRynwh4B9Rdc/gZ+gGBrFEw5xQUE2RwIXk1DHU8L+yCwD0LJ8pQBBKFQsM60tBCa4aduBju6Eib1ZHS87/Q2nNbLgFDHz4OqDY0SHb1viyZgIelh5TmgMsetWkY8qeya6Tx6Dt2wbQybn5jErMi0ZfoSWJEK1obsNClYzor2Zu3vf0BQQW6N4rD8GBwbfFQOBNHUrzYrmxikl2DNdwyu5lg6VzYkBGRTjAsI1N/Z/QreuTGHuW2+t4z0guGGzSGBXRPAF3ZpIsohjk8CPTDmtwFXL1fw3IUKm62aYzkkugrybfnz0Wl8/vExHKAKXpb2QPgTFCs52toD+hWq0eDyPygCgCuCwdzEBSD4wIGx+RedGS2nRhsmzCtiQEg0tfZJDAjlya+8s318EIzN39QPxAEEM+SRzvVLuazAMDVctTKDFV0qP9jLm7mGP5te9sgn4YZ9mnBglAmBpIfF4nbgpRTKuEBBJ1dlbPh1kOQC6Pkykdfx8LEZ/O+eCWwZmYWmu9/0XYmNvJEIXkBIal5gQEgyfbHOYUCIJa4UGlciF4KgimJOBL98CIQNKnSc3KPgGQsyWN+jCJ+ErJXMpsQk7flAymQt0SiwicS5KYi/lbskKHhsFPjREDAwrYpwNR2Ekg4TlkNAvRkNF8/X8cwFQBcnQWqwpRPwqJfaAYxG9AzJa8DhqQIeGZ7Fbw5NY99EwazhUXzT9+Y6MPZxM7Oi9W97cy/DvMCAkPoalFoeaY6ipU0M1sbuEbCMH0JQ0SY7o6ITGszKjuJ+0nV0ZXQsbAN6cgoyigkWhtrB3BmKsCHG4kzIZGk4XO2tcy3thbMv89/WNQZoTWwRWP2muei4b1sCBAlDMyqG8wQGRTigfxtqYlo0qtDgtmt5rG7Ps/apUdaPjK3d1cahBRAPCyuCwPzDrNkxPK3h8IyGabJNObIgukwJ3twHfn/bJgnH7zjMCZH+B36A4LieQGOqjFzqYI7ZSbHVnRSTAILjHBckeCo+ujZ2y2Jhp2I2Nn27jQMm3OfZBgsHJOjQPZUkjfTOZk0IZ0lAD1g430vtPrw3IisS6uDRZA3BBATxp2Jm7eQJqqMJih6KbxoA74eOv532fsGG1nc+hZI8cGCsEh/fA2eCoyDzgsUgXkDwnFtEFfPSPeN1+iIwIEQvj6gWrEGIklDa38fNhSABCNTEjmYwoxsM5YDTt8EDCY7NnAo/OWs6lGoRwiFBDNECBT8/CiFT90YTCAxpy5/7Zwm0gASM+gjOw/O3N0uhDQbmluz93gkHogltx56IAx/fA6Mp2ac8zon0hfWb3ugFs39XBUfrM+d/Pf9mQCh/YTMglC/D8nqoBCBY0OD1QxCkYL7dx9EiWBoBJzRYG7oFHJbGwJPu2RCG/WOGtsF7ja6/+Y20vAXEZ7ME4kjAoy2wTjUBoKgxMMHAuznboOFxSgyDA0cftoYhDfOCDCA0iHmBLoVNDGxiKN08nVEM1sZv3cRe1b43H4Lne9tZ0f7c1CLYG7S/FsHP9GBs+15/BNOs4AsJPqDgvR6/v13POoaHOI9+bssSMCQQ5JDoa28wzrD8TbznO1T4RS2EJBw44cLUONiVHs3viloHd64DO7zRAyiuq/NoNcwLsRdBI4c4MiCY08hOiqWboMtJ0bmJ+qjrfZ0VA9IuF1/srbd6CV8E6/ftLI7mL4ZpEko2fg9IWOzg57AY5cTIewBLgCUgLwG/N2YPDBSb+GgXLM2CU3Pg2JhdZgUaFeU58PoiOGHAY5oIzH1ggYEHEOwR+sGB85wGT5LEgMCAYEggysSQBBDMc0pyIpgbc6QvguN8e4x+5oYAJ8QSJ8YAYPC4IZgaCvlnH7dkCbAEoiVQ4n9Q3GWLJztBwg8KrJZOjYLTrOAHB47NvWhaMPChmCzJ7NjsVwTNOMwPttOhNSbnODxA4EqWxIAQvTAkWrAPgoSQUm0SBxACYMFOjGQN1Ny4De8Dhw+Ar6mh6LhYYkKwIh2s33VFSjgdHp2gU9SI+IJCABQ5/RZSlTd3zhJoNQkYKQdLr9qrXSgBA8d53ugGH58Do3WAo6K9mTvgwOreo5EwhusNufQYDCLMC66xOK+cfRBirX4GhFjiSqFxgEq9bDODuRGHahE8vgjiFK+fQQgk2O0DwMUOfQx1UjRlyqaFFBYXd8kSMCUQZGpwCKjEx8Bnoy4xKQRpFGyNgHOjN/7tKuts/YaIeIipPfADCef1yEBRHS8QdlJkJ0VjecbRIgSEDfpqEZyQ4HVwtMIe/SCBwhw9m35J+mdPf4HfGx25bkPfkEYGhDp+VPHQGl4CPoAQGvroeUMvAQPHxi7+GaZR8Pgv2H4Hng3eDpSU1R6EAEKjOyjSpTEgMCDEBwQvUNjOg+YjrAQEDB2CCyCsc1xt3SYDkQvBAwnGVu9nsjCdEJ0gEAAyfkl8OQdCw28/fAENIIFSIDC2dvvw8UNw1UP03bhLTQGiP1dCJPN3XLkS3GaERNoDBoTUVx2bGFIXscQPyGgQfDZr5wZeEs1gtXdGNHj78Eue5GgTCgmR43FoDSJNDBzOKLFKuAlLoEwJRPghOAAhUGPg2JR9zQ1Gfma3o6EJIb6mBbM/V1ijz8ZfEr3gbOP9dxM4KNIlsQaBNQjGDR/XD8F7jpQWIdhhUXzjNDU4IUFGY+CjtXA+yQJrS7gaMSSU+fTn01kCwRIIcs7zg4KgzdeOJIjQGrjO92RMtHZ6ScdE0ZXzqpI6J/pARL0vFwYEBoTiGpXRIgSp7R2f++ZFMDf8sKgG0cQJA55/+5konHATWmDKey8ltQAAE6JJREFUdSdaBaHcCGH8Ph8sAZZAGhIw3QPdXftFN/iaGTw+BlYvkX4KxfoNSfwO7J/x/l4QwJjtGj3FsnW5DAgMCKGAYG/aVqswVb1Xi2BCgUs7ISISwjQJPpBg9ePM8OgHKi5IiWNeMC+OnRTT2Be4T5aAIQEJDYJfu0SmBr86Cwk0B2LYMeHAOEcipLMB1gUDAgNCPEBwbNb2iV71vvdNnL73bOiJIMH8bSlNQRAsBIGO82ZlUGiARxcPsWEkEBb37xfZEOm06IYNdwIkx5budUh0Qor5nW9WRJfJwyHlAM2GVHKkMECq44lkQGBAqBwgeOAhzNRgaCYifBJKNnNPYqSgmhERDokl+R0YDur4EcVDaxoJBIBCydt2QPIkr3bBylrgeMV3aSpcNRZk4cCzkUdqD3w2/mYxL9ClMSAwIEQCgrGZe6zzQZuwny+CExxKchcEQIJJECW5DcRoJUEhSFsQoSEIBYimeVrzhbAEqiOBwA3T+vkwICjZsP1CIks/qygceODCJbUoDYizcQNlULSGzYDAgOB+SiSJZvBoDpzmBBdWBEQalGgSXEDhgRPX+Pz9DKRhJuz5yGaG6uwe/CvNLQGZTTEiw2KwhsE/f4LLGbFczYFXQxBkZjBnMRSGZGRRZ6uBAYEBQQoQYmkRPMAQCglmWxsS/LQNTqVBqCYjQsvhpwnx3pAMBnX2iOLhNIUEIjZHOae+gIRKriyKDml5NnM7S6KfRiCu34EXHKIAoQHhgC6JAYEBITkgeDUHSTUJYZDg0SY4Bxue28AnYDFk82ezQlNsQ3wRDSCBeG/ZnmiAwJwJwWAg9nIrrsBPAyADB2GahCg4CICJBpgqBgSapEvvGR8ezmNOI0xYVcYYdyMNyo2QQJNgKQt8fQ9cv+PhmqAUy3azkAwHrDWoyrLiH2EJCAmEvk1Hhwe6AMPZ3Gfz99Ua+GkQgpIhWVPWYqYF67JZg8CAUPrUKgcQIrQKMuYGAxI87/ShEFK8hEBNQOA1cWok3rZYAtWVQEh2felIh3CNgUtrEPT2n0RzEAA48bQi1ZV2Ob/GgMCAEAsQrM275KSI0MJIx0UvWNhJl5KBgjU+Dmks5/HA57IEUpaALBAYO777CMy4GJB1sVzNQRI4iNSYpCzfMrtnQGBA8F9CcbUIEZoD8SNRIZABkGBBia/2wSYBP5+DgEvjhMplPjb4dJZA5SQQ/vYdAgWezdeuxmidEuFvUMIcMcItnaNqVu0BXSMDAgNCbECwNmzfEyuhSYgABeP3zSMIZAI/r9yDjXtiCbAEKiSBIKtDRHpmO3tyUPZFJ0R4+vItwOQHFx4QkYaDkPMqJLXUu2FAYEBIBAhlQYIHAGJpBmzTg3PYAYYEGedDmTap34b8AyyBFpRAVOifRBIi30yH3o05DhgEbeoSY/GdwahrrPNpZ0BgQAheohKbp7RToF9fQSYHrwbB7++Az7Qo84HENdX5PcvDYwk0nwRCNtIS00HQW77f5p4SHIif8ivI5J0ZBoSy12qIS2vZfUt1wGGOAWKS3EylIUFi4y/xJIgyWbgUCf4RCSUREVKrwmwkKYM4XXJblkDTSyDhxugKS/QTUkTWRfuUMDCQ1RKEQovEtpVQBvW0NliDwBqE8PUosUHGjhSQ2PQjQcEaddj4JMYumKW00kQ93aM8FpZA00ggUBsgCwNh2gOfjd93G49yRgwCCPO3pTQHEX00yoQyIDAglA0I1iYb2FGEecE+z9MuMENBXMdECS1Do9ywPE6WQNNKIOqNO8Jh0SkXKTCQ1SQ4Om4lOKDLZkBgQIh+3sR4E48FCYIsousnGAAScESNLer76KvnFiwBlkC1JZAUFnzSJYihy2gNWHNQMssMCAwI0bd+zE02tsnBDxSsUYXmY4geegmASJzCTVgCLIEaSyAKEIJAwBp2DG2DL0B4Lr/VNAfW5TMgMCDIPwligEJk8aMkZoKI3y8raXKMa5MXGLdkCbAEXBKQ2PiDJBbpFhjWd1xgMAchDQYR2odGXQUMCAwI8dZujI00MSSEaRQkNAveCyoLHOJJh1uzBFgCZUogEgS8/ScBA4kNPRYcSPRXplhqcjoDAgNCvIUXAxDsvbzc3ASyvynbLuSKGSbiLQduzRKQlUDsjd+vY1kNRFS7ckMY40CKrIDqsB0DAgNC/GWZYCOO1CbIaA1k2yTQMsQXAp/BEmAJpCqBqE0+7iYt0V9srUGTag4s0TIgMCAku8fTgoQ4EJBgDIEXW8m+kkmUz2IJNL8EJDZpaSHI9iXZjuGgVPIECIv1mYtvem7/HdLzUuGGFdE8lTOmS+8dPzY8i7nl9NGS5ybcVKW0CU6BJvmdJOe05CTyRbME6lgCkpt7yRXEOC8RGFCa5ZrvXOnPmwAEFC646Tm9v0r/1/x/oeZivvTe8cPDs1hQKwE0/O+WuRnHBgZLYGX+bsPLnS+AJdDKEogBAU4xJQMCRw8Jf7cRp6o9o2DO7NSzvnvRvHtrNf7aA8I9YweG88qyWgmgKX63Qpt1YljwCrFC42mKueGLYAk0qgQqtBmXDQWW/Co0nkaZjp6cCpw4fs5PXrjsvlqNufaAcNfItmEtu6FWAmiq363gxlwxWAgTcAXH21TzyBfDEkhTAlXYaCsGBSSHKow3TXEn7bu/TcWegcGTH7pq3dakfZR7Xs0B4cV3jfz2uJY9r9wL4fMdEkhp460KNPBEsgRYAg0lgYrCgPPKWxQMLBH05xRsP3RwzZbL1+2t1YKoOSC86M6jPx5VOl7AMfApLYGUYMEaLUNDSvPG3bIE6lQCqQFBC2sL/Ka6T5nF3oGReQ+/YvXxWi2FmgPCs340cH1nb//rJguMCKkugpRBQWbsDBMyUuI2LIHqSiDVDV/mUlpcU+AnItqYu7Xpye5jc3tvvkopyIgxjTY1B4Szbt71LysXL/7giXwal8d9SkmgDuBBapzciCXAEmhsCTAMSM0fhThicmzrnc9fdLLUCSk1qj0gfGfnZcsXLfjeGLIpXSJ3G1sCDAyxRcYnsARYAh4JMAwkXhK9OQVDh47cet/lq16auJMKnFhzQDjle7tWL+vu2aO39yDPG1MFpjTFLnh+UhQud80SaEAJMASkMmk9SgH7jhz614evXP/BVH5AstOaAwKN89zbDgwumDd3ydgs+yFIzlvjNmPIaNy545E3nwR4g6+7OSXrQnZmEodGxi586Ko1v6zlAOsCEM75/r7vze/vu2yCzQy1XAv82ywBlgBLgCVQYwn0ZBUcPXp0Qp3Fgt9etXKylsOpC0B4yvf3XNvb2fU5tbMHsxprEWq5IPi3WQIsAZYAS6A2EqANuUOfxdGRE7ffd9mqS2oziuKv1gUgnPXdPU/uacv9sqd3Tv+kXhdDqvW88O+zBFgCLAGWQItJoF0FpifGMDY58Xf3X77207W+/LrYjU+/bdfiTj379b6u7uehrQOzWq3Fwr/PEmAJsARYAiyB6kmANuN2FHDixIljk5OTFz348g0PVO/X/X+pLgBh/U+2t/dOtL2pp6P9P9u7utUZqLWWC/8+S4AlwBJgCbAEqiaBNhUoTE1gZHz8Fr0w+6YHrtpwuGo/HvBDdQEINLYnfXvH07O57Ffn9c/ZlM+0Ic+uCLVeG/z7LAGWAEuAJVAFCdBGnEMBk6OjhfHpmdf3L1xz413PVWqePrBuAOG0zfvmZTH7gf6urrfkWItQhSXJP8ESYAmwBFgC9SCBnAIos5M4MjL2m7yivfmRK9Y9VA/jqhtAEFqEm3e/GAo+vbh/zprZTDtrEephhfAYWAIsAZYASyA1CdAm3IkCjo+MTE5NzX40e6Ljk39607KJ1H4wRsd1BQhn3zSwIJ+d/kRHLnvN/Ln9beOaCrY0xJhNbsoSYAmwBFgCDSWBDhWYmRjTj49N/EHRtLf++eqT/lgvF1BXgEBCOes7uy7RM8oX+zs71nX39mG8ZnWs6mWKeBwsAZYAS4Al0IwSaFcVKDOTOHxidLhQwCcmeld/cscLlOl6uda6A4Snbd7XOa4WPqDq+tvn9Xa3tXX2YIJLQdfLeuFxsARYAiwBlkAFJJBVFJEU6dDxEW1WK9yjqvrfPHD5ur0V6LpiXdQdINCVnbb50SVZdP0ik1HPmN/bA7R3YpohoWKTzh2xBFgCLAGWQO0kQPUWehQNQ8ePYzqfH9UL6sseftnqn0FR6sqqXpeAQNN2xre2nJ3Jdfw2l83k5vf1YTbbxmmYa7ee+ZdZAiwBlgBLoAISoE23N6Pj6PAIJmZmoGj46J9ftvafKtB1xbuoW0CgKz1z8863K4r6kc5crmtObw9m1RxHNlR8CXCHLAGWAEuAJVANCYiIBVXD+NgoRqdmCpqm355bt+bSPz1Fma3G78f9jboGBPJHmMDsv0NRX9PVlu3u7e5BIZMDV4WOO83cniXAEmAJsARqKQEyK1Aq5amJCYxMTGm6rv1Wh/qqh65as7uW4wr77boGBBr4qZt3rsqpmQ9B16/ozOU6e7u7obS1Y4p9Eup1TfG4WAIsAZYAS8AhgawCtOl5TExO4MTklK5r+KMGvPvhK9fcC0Wp2+pDdQ8IeL+uPvnUHSdrSvZ9AF7clsm093Z1oqOrGxN5HXUrWb49WAIsAZYAS6DlJdCZpUQHUxidmMD49IwOHQ9A0d433q3dvuMFG+ompNFvouofEGjU79fVM0/dvUGB+mFAu1RV1VxPRzv6enowiQzyWl05frb8DcECYAmwBFgCrS4B2ly7M8A0aQ0mJjFTKOiKrj+sKOo/Hh/Tf7XnNWun6l1GjQEIJEVdV9bfvGNBl579jKLi5aI0ZjaLub090HJtmC6Asy7W+2rj8bEEWAIsgRaQQJuqoAN5DI+OkdYAmq5D0bFFK+A1mzJr7rv5KqUhUgA2DiCYi+o57/9V9vjJaz6IjH4doHRTjYv+rg70dPeAUjOTyYH1CS1wB/IlsgRYAiyBOpIAbaaKQlEKOgozUzg2Oo7ZgtiRZhRd+Z2O7DUPXrXyQB0NOXIoDQcI1hWdtXn3ywC8RwdOoYRUWVXFvJ4uZNraMaOr0BUFZHlgWIhcA9yAJcASYAmwBBJKgKITqGpQBhoyhTxOjE9gfGYWCpSCrusDioJv94/hfXc1gEnBK4KGBYQrN+uZbereM6Hrb4SuvxBQlkOBmsuo6O3sRCabAzIZQM2AAh446CHh6ufTWAIsAZYAS8AlAdIU5BQFiq5B1/LQ87OYnJoWYCAOHSM6lF8rwPUj4/pPG8HfwG+KGxYQrIs5+6atC/LZtgsB5UpAfx4UdNN3pFHoaMshm80im8lCFf/LQFMUkZGR/Rr5jmcJsARYAiwBGQnQRplVFVC4ol4ooCD+N4tCvoDp2RnM5AuWtroAXf8TFHWzomR+8OfLV+ys5zDGqGtveECgC7xy8+bMVpy7SoF+rqLgGh24CEAXfScmNpNBNqNCUVTx71w2i0wmA5UqaSkqFFU15aSwSSJqxfD3LAGWAEugSSVAO4AC+v86dJ1s1Bq0ggZN0zBbyGM2XxD/Nv4uCOdDQ2Egto6HFU2/QVGUOzuR3frbq1ZONrqYmgIQrEkgs8PW7NB8ZXbqNCj6qwH9RVCUBc5JUhQFZDOiRSA8SkzHEqMNA0KjL2geP0uAJcASSCoB1w5g+bDphAsUSEeaZ69Xm0IQ8BsN+FpW1f5vzgllqBF9DYLk1VSA4L3Ic7+xZf5UV/sLFV15JYALoCCTdOHweSwBlgBLgCXAEhCvkjq26MDNUNXNDz6yagveX7/ZEMuZsaYGBKdgnnrj0b6p3Imnaap+jgrlDF3DeiiYoyjIAkoGuq4KewQfLAGWAEuAJdDqEiBdQUEBCtCVcQX6PijKo4pSuH9KUX6z5fJ1e1tBQK27Jb5fV087dX8/pqfnZXLZvow2265nFMsZoRXmnq+RJcASYAmwBLwSULM6eSDmkRkrzE4Mq+360UevOm2mFQXVuoDQirPN18wSYAmwBFgCLAFJCTAgSAqKm7EEWAIsAZYAS6CVJMCA0EqzzdfKEmAJsARYAiwBSQkwIEgKipuxBFgCLAGWAEuglSTAgNBKs83XyhJgCbAEWAIsAUkJMCBICoqbsQRYAiwBlgBLoJUkwIDQSrPN18oSYAmwBFgCLAFJCTAgSAqKm7EEWAIsAZYAS6CVJMCA0EqzzdfKEmAJsARYAiwBSQkwIEgKipuxBFgCLAGWAEuglSTAgNBKs83XyhJgCbAEWAIsAUkJMCBICoqbsQRYAiwBlgBLoJUkwIDQSrPN18oSYAmwBFgCLAFJCTAgSAqKm7EEWAIsAZYAS6CVJMCA0EqzzdfKEmAJsARYAiwBSQkwIEgKipuxBFgCLAGWAEuglSTAgNBKs83XyhJgCbAEWAIsAUkJMCBICoqbsQRYAiwBlgBLoJUkwIDQSrPN18oSYAmwBFgCLAFJCTAgSAqKm7EEWAIsAZYAS6CVJMCA0EqzzdfKEmAJsARYAiwBSQkwIEgKipuxBFgCLAGWAEuglSTAgNBKs83XyhJgCbAEWAIsAUkJMCBICoqbsQRYAiwBlgBLoJUkwIDQSrPN18oSYAmwBFgCLAFJCTAgSAqKm7EEWAIsAZYAS6CVJMCA0EqzzdfKEmAJsARYAiwBSQkwIEgKipuxBFgCLAGWAEuglSTAgNBKs83XyhJgCbAEWAIsAUkJMCBICoqbsQRYAiwBlgBLoJUk8P8BpP6livbw0qIAAAAASUVORK5CYII=;" vertex="1" parent="1">
          <mxGeometry x="502.6" y="459" width="81" height="81" as="geometry" />
        </mxCell>
        <object placeholders="1" c4Name="Docker containers" c4Type="SystemScopeBoundary" c4Application="Software System" label="&lt;font style=&quot;font-size: 16px&quot;&gt;&lt;b&gt;&lt;div style=&quot;text-align: left&quot;&gt;%c4Name%&lt;/div&gt;&lt;/b&gt;&lt;/font&gt;&lt;div style=&quot;text-align: left&quot;&gt;[%c4Application%]&lt;/div&gt;" id="Blm7-tKkqha4oM_iVl1n-2">
          <mxCell style="rounded=1;fontSize=11;whiteSpace=wrap;html=1;dashed=1;arcSize=20;fillColor=none;strokeColor=#666666;fontColor=#333333;labelBackgroundColor=none;align=left;verticalAlign=bottom;labelBorderColor=none;spacingTop=0;spacing=10;dashPattern=8 4;metaEdit=1;rotatable=0;perimeter=rectanglePerimeter;noLabel=0;labelPadding=0;allowArrows=0;connectable=0;expand=0;recursiveResize=0;editable=1;pointerEvents=0;absoluteArcSize=1;points=[[0.25,0,0],[0.5,0,0],[0.75,0,0],[1,0.25,0],[1,0.5,0],[1,0.75,0],[0.75,1,0],[0.5,1,0],[0.25,1,0],[0,0.75,0],[0,0.5,0],[0,0.25,0]];" vertex="1" parent="1">
            <mxGeometry x="472.6" y="404" width="300" height="254" as="geometry" />
          </mxCell>
        </object>
        <mxCell id="Blm7-tKkqha4oM_iVl1n-4" value="" style="sketch=0;aspect=fixed;html=1;points=[];align=center;image;fontSize=12;image=img/lib/mscae/Docker.svg;" vertex="1" parent="1">
          <mxGeometry x="452.6" y="384" width="50" height="41" as="geometry" />
        </mxCell>
        <object placeholders="1" c4Name="Server / RPI" c4Type="SystemScopeBoundary" c4Application="Software System" label="&lt;font style=&quot;font-size: 16px&quot;&gt;&lt;b&gt;&lt;div style=&quot;text-align: left&quot;&gt;%c4Name%&lt;/div&gt;&lt;/b&gt;&lt;/font&gt;&lt;div style=&quot;text-align: left&quot;&gt;[%c4Application%]&lt;/div&gt;" id="Blm7-tKkqha4oM_iVl1n-5">
          <mxCell style="rounded=1;fontSize=11;whiteSpace=wrap;html=1;dashed=1;arcSize=20;fillColor=none;strokeColor=#666666;fontColor=#333333;labelBackgroundColor=none;align=left;verticalAlign=bottom;labelBorderColor=none;spacingTop=0;spacing=10;dashPattern=8 4;metaEdit=1;rotatable=0;perimeter=rectanglePerimeter;noLabel=0;labelPadding=0;allowArrows=0;connectable=0;expand=0;recursiveResize=0;editable=1;pointerEvents=0;absoluteArcSize=1;points=[[0.25,0,0],[0.5,0,0],[0.75,0,0],[1,0.25,0],[1,0.5,0],[1,0.75,0],[0.75,1,0],[0.5,1,0],[0.25,1,0],[0,0.75,0],[0,0.5,0],[0,0.25,0]];" vertex="1" parent="1">
            <mxGeometry x="432.6" y="364" width="360" height="360" as="geometry" />
          </mxCell>
        </object>
        <mxCell id="Blm7-tKkqha4oM_iVl1n-7" style="edgeStyle=none;rounded=0;orthogonalLoop=1;jettySize=auto;html=1;startArrow=classic;startFill=1;strokeWidth=2;" edge="1" parent="1" source="Blm7-tKkqha4oM_iVl1n-8" target="Blm7-tKkqha4oM_iVl1n-1">
          <mxGeometry relative="1" as="geometry" />
        </mxCell>
        <mxCell id="Blm7-tKkqha4oM_iVl1n-8" value="AA&amp;nbsp;&lt;br&gt;Application" style="rounded=1;whiteSpace=wrap;html=1;absoluteArcSize=1;arcSize=14;strokeWidth=2;" vertex="1" parent="1">
          <mxGeometry x="642.6" y="449" width="100" height="100" as="geometry" />
        </mxCell>
        <mxCell id="5ZVYjtS9KebjKEegnlGa-1" value="" style="points=[];aspect=fixed;html=1;align=center;shadow=0;dashed=0;image;image=img/lib/allied_telesis/computer_and_terminals/Server_Desktop.svg;" vertex="1" parent="1">
          <mxGeometry x="410" y="330" width="42.599999999999994" height="54" as="geometry" />
        </mxCell>
        <mxCell id="y67IVwC4AQ30ryZjGcur-4" style="edgeStyle=orthogonalEdgeStyle;rounded=0;orthogonalLoop=1;jettySize=auto;html=1;strokeWidth=2;" edge="1" parent="1" target="y67IVwC4AQ30ryZjGcur-2">
          <mxGeometry relative="1" as="geometry">
            <mxPoint x="140" y="499.5" as="sourcePoint" />
          </mxGeometry>
        </mxCell>
        <mxCell id="5ZVYjtS9KebjKEegnlGa-3" value="" style="verticalLabelPosition=bottom;html=1;verticalAlign=top;align=center;strokeColor=none;fillColor=#00BEF2;shape=mxgraph.azure.user;" vertex="1" parent="1">
          <mxGeometry x="70" y="459" width="70" height="80" as="geometry" />
        </mxCell>
        <mxCell id="y67IVwC4AQ30ryZjGcur-3" style="edgeStyle=orthogonalEdgeStyle;rounded=0;orthogonalLoop=1;jettySize=auto;html=1;strokeWidth=2;" edge="1" parent="1" source="y67IVwC4AQ30ryZjGcur-2" target="Blm7-tKkqha4oM_iVl1n-1">
          <mxGeometry relative="1" as="geometry" />
        </mxCell>
        <mxCell id="y67IVwC4AQ30ryZjGcur-2" value="" style="image;points=[];aspect=fixed;html=1;align=center;shadow=0;dashed=0;image=img/lib/allied_telesis/computer_and_terminals/Personal_Computer_with_Server.svg;" vertex="1" parent="1">
          <mxGeometry x="210" y="448" width="103" height="103" as="geometry" />
        </mxCell>
      </root>
    </mxGraphModel>
  </diagram>
  <diagram id="HoEodQXwdoqmuoYAzi4c" name="v2.1">
    <mxGraphModel dx="1853" dy="1070" grid="1" gridSize="10" guides="1" tooltips="1" connect="1" arrows="1" fold="1" page="1" pageScale="1" pageWidth="850" pageHeight="1100" math="0" shadow="0">
      <root>
        <mxCell id="0" />
        <mxCell id="1" parent="0" />
        <object placeholders="1" c4Name="AA Container" c4Type="ContainerScopeBoundary" c4Application="Container" label="&lt;font style=&quot;font-size: 16px&quot;&gt;&lt;b&gt;&lt;div style=&quot;text-align: left&quot;&gt;%c4Name%&lt;/div&gt;&lt;/b&gt;&lt;/font&gt;&lt;div style=&quot;text-align: left&quot;&gt;[%c4Application%]&lt;/div&gt;" id="J_bz4MxVaRMobVFIQNDr-1">
          <mxCell style="rounded=1;fontSize=11;whiteSpace=wrap;html=1;dashed=1;arcSize=20;fillColor=none;strokeColor=#666666;fontColor=#333333;labelBackgroundColor=none;align=left;verticalAlign=bottom;labelBorderColor=none;spacingTop=0;spacing=10;dashPattern=8 4;metaEdit=1;rotatable=0;perimeter=rectanglePerimeter;noLabel=0;labelPadding=0;allowArrows=0;connectable=0;expand=0;recursiveResize=0;editable=1;pointerEvents=0;absoluteArcSize=1;points=[[0.25,0,0],[0.5,0,0],[0.75,0,0],[1,0.25,0],[1,0.5,0],[1,0.75,0],[0.75,1,0],[0.5,1,0],[0.25,1,0],[0,0.75,0],[0,0.5,0],[0,0.25,0]];" vertex="1" parent="1">
            <mxGeometry x="70" y="330" width="610" height="450" as="geometry" />
          </mxCell>
        </object>
        <mxCell id="qoe2yWICKXUS_5jApiEG-3" value="API calls" style="edgeStyle=orthogonalEdgeStyle;rounded=0;orthogonalLoop=1;jettySize=auto;html=1;strokeWidth=2;" edge="1" parent="1" source="J_bz4MxVaRMobVFIQNDr-2" target="J_bz4MxVaRMobVFIQNDr-3">
          <mxGeometry relative="1" as="geometry" />
        </mxCell>
        <object placeholders="1" c4Type="Front end" c4Container="Container" c4Technology="Angular" c4Description="" label="&lt;font style=&quot;font-size: 16px&quot;&gt;&lt;b&gt;%c4Type%&lt;/b&gt;&lt;/font&gt;&lt;div&gt;[%c4Container%:&amp;nbsp;%c4Technology%]&lt;/div&gt;&lt;br&gt;&lt;div&gt;&lt;font style=&quot;font-size: 11px&quot;&gt;&lt;font color=&quot;#E6E6E6&quot;&gt;%c4Description%&lt;/font&gt;&lt;/div&gt;" id="J_bz4MxVaRMobVFIQNDr-2">
          <mxCell style="shape=mxgraph.c4.webBrowserContainer2;whiteSpace=wrap;html=1;boundedLbl=1;rounded=0;labelBackgroundColor=none;strokeColor=#118ACD;fillColor=#23A2D9;strokeColor=#118ACD;strokeColor2=#0E7DAD;fontSize=12;fontColor=#ffffff;align=center;metaEdit=1;points=[[0.5,0,0],[1,0.25,0],[1,0.5,0],[1,0.75,0],[0.5,1,0],[0,0.75,0],[0,0.5,0],[0,0.25,0]];resizable=0;strokeWidth=1;" vertex="1" parent="1">
            <mxGeometry x="90" y="370" width="240" height="160" as="geometry" />
          </mxCell>
        </object>
        <mxCell id="qoe2yWICKXUS_5jApiEG-4" value="Uses" style="edgeStyle=orthogonalEdgeStyle;rounded=0;orthogonalLoop=1;jettySize=auto;html=1;entryX=0;entryY=0.5;entryDx=0;entryDy=0;entryPerimeter=0;strokeWidth=2;" edge="1" parent="1" source="J_bz4MxVaRMobVFIQNDr-3" target="J_bz4MxVaRMobVFIQNDr-5">
          <mxGeometry y="10" relative="1" as="geometry">
            <mxPoint as="offset" />
          </mxGeometry>
        </mxCell>
        <object placeholders="1" c4Name="API" c4Type="Software System" c4Description="Python" label="&lt;font style=&quot;font-size: 16px&quot;&gt;&lt;b&gt;%c4Name%&lt;/b&gt;&lt;/font&gt;&lt;div&gt;[%c4Type%]&lt;/div&gt;&lt;br&gt;&lt;div&gt;&lt;font style=&quot;font-size: 11px&quot;&gt;&lt;font color=&quot;#cccccc&quot;&gt;%c4Description%&lt;/font&gt;&lt;/div&gt;" id="J_bz4MxVaRMobVFIQNDr-3">
          <mxCell style="rounded=1;whiteSpace=wrap;html=1;labelBackgroundColor=none;fillColor=#1061B0;fontColor=#ffffff;align=center;arcSize=10;strokeColor=#0D5091;metaEdit=1;resizable=0;points=[[0.25,0,0],[0.5,0,0],[0.75,0,0],[1,0.25,0],[1,0.5,0],[1,0.75,0],[0.75,1,0],[0.5,1,0],[0.25,1,0],[0,0.75,0],[0,0.5,0],[0,0.25,0]];" vertex="1" parent="1">
            <mxGeometry x="90" y="590" width="240" height="120" as="geometry" />
          </mxCell>
        </object>
        <object placeholders="1" c4Name="Machine learning algoritme" c4Type="Software System" c4Description="Python" label="&lt;font style=&quot;font-size: 16px&quot;&gt;&lt;b&gt;%c4Name%&lt;/b&gt;&lt;/font&gt;&lt;div&gt;[%c4Type%]&lt;/div&gt;&lt;br&gt;&lt;div&gt;&lt;font style=&quot;font-size: 11px&quot;&gt;&lt;font color=&quot;#cccccc&quot;&gt;%c4Description%&lt;/font&gt;&lt;/div&gt;" id="J_bz4MxVaRMobVFIQNDr-5">
          <mxCell style="rounded=1;whiteSpace=wrap;html=1;labelBackgroundColor=none;fillColor=#1061B0;fontColor=#ffffff;align=center;arcSize=10;strokeColor=#0D5091;metaEdit=1;resizable=0;points=[[0.25,0,0],[0.5,0,0],[0.75,0,0],[1,0.25,0],[1,0.5,0],[1,0.75,0],[0.75,1,0],[0.5,1,0],[0.25,1,0],[0,0.75,0],[0,0.5,0],[0,0.25,0]];" vertex="1" parent="1">
            <mxGeometry x="410" y="590" width="240" height="120" as="geometry" />
          </mxCell>
        </object>
        <mxCell id="qoe2yWICKXUS_5jApiEG-2" style="edgeStyle=orthogonalEdgeStyle;rounded=0;orthogonalLoop=1;jettySize=auto;html=1;strokeWidth=2;" edge="1" parent="1" source="qoe2yWICKXUS_5jApiEG-1">
          <mxGeometry relative="1" as="geometry">
            <mxPoint x="90" y="430" as="targetPoint" />
          </mxGeometry>
        </mxCell>
        <mxCell id="qoe2yWICKXUS_5jApiEG-1" value="" style="verticalLabelPosition=bottom;html=1;verticalAlign=top;align=center;strokeColor=none;fillColor=#00BEF2;shape=mxgraph.azure.user;" vertex="1" parent="1">
          <mxGeometry x="-240" y="355" width="130" height="150" as="geometry" />
        </mxCell>
        <mxCell id="0UUVfYgSAzt_13h2AEHF-1" value="" style="sketch=0;aspect=fixed;html=1;points=[];align=center;image;fontSize=12;image=img/lib/mscae/Docker.svg;" vertex="1" parent="1">
          <mxGeometry x="40" y="305.8" width="60" height="49.2" as="geometry" />
        </mxCell>
      </root>
    </mxGraphModel>
  </diagram>
</mxfile>
